<svg width="64" height="64" viewBox="0 0 64 64" fill="none" xmlns="http://www.w3.org/2000/svg">
<path d="M51.695 7.67C51.2 7.41 50.605 7.45 50.145 7.765C47.9282 9.30358 46.0555 11.2862 44.6456 13.5869C43.2357 15.8877 42.3195 18.4564 41.955 21.13L40.52 31.735L40.51 31.78C40.33 32.59 40.84 33.39 41.65 33.57C43.045 33.88 44.03 35.14 43.995 36.575C43.96 38.185 42.535 39.5 40.825 39.5H39.325C39.075 39.5 38.825 39.515 38.58 39.54C38.535 39.45 38.495 39.355 38.45 39.26L37.21 36.85C34.7756 32.1081 33.504 26.8552 33.5 21.525V2C33.5 1.17 32.83 0.5 32 0.5C31.17 0.5 30.5 1.17 30.5 2V21.525C30.5 26.83 29.22 32.13 26.79 36.845L25.55 39.255C25.505 39.345 25.465 39.44 25.42 39.535C25.175 39.515 24.925 39.5 24.675 39.5H23.175C21.465 39.5 20.04 38.185 20 36.575C19.9844 35.8805 20.2093 35.202 20.6367 34.6544C21.064 34.1067 21.6676 33.7237 22.345 33.57C22.5375 33.5275 22.7196 33.4474 22.8811 33.3344C23.0426 33.2213 23.1802 33.0776 23.2861 32.9114C23.392 32.7451 23.4641 32.5596 23.4982 32.3655C23.5323 32.1713 23.5278 31.9724 23.485 31.78L22.04 21.13C21.31 15.735 18.325 10.86 13.85 7.765C13.39 7.45 12.795 7.41 12.3 7.67C12.0584 7.7981 11.8563 7.98959 11.7153 8.22392C11.5744 8.45825 11.4999 8.72655 11.5 9V48.5C11.5 49.33 12.17 50 13 50H19C19.83 50 20.5 49.33 20.5 48.5C20.5 47.67 19.83 47 19 47H14.5V12.215C16.9901 14.7464 18.5934 18.0162 19.07 21.535L20.365 31.11C19.3345 31.6155 18.4702 32.4052 17.8739 33.3859C17.2777 34.3667 16.9745 35.4975 17 36.645C17.08 39.875 19.85 42.5 23.175 42.5H24.31C23.14 46.86 23.785 51.605 26.21 55.51L30.73 62.795C31 63.23 31.48 63.5 32 63.5C32.52 63.5 33 63.23 33.275 62.79L37.795 55.505C40.215 51.605 40.86 46.86 39.695 42.495H40.83C44.15 42.5 46.92 39.875 47 36.645C47.055 34.265 45.7 32.12 43.635 31.11L44.93 21.535C45.405 18 47.03 14.73 49.5 12.215V47H44.5C43.67 47 43 47.67 43 48.5C43 49.33 43.67 50 44.5 50H51C51.83 50 52.5 49.33 52.5 48.5V9C52.5001 8.72592 52.4252 8.45705 52.2832 8.22257C52.1413 7.9881 51.9379 7.79699 51.695 7.67ZM29.46 38.22C30.505 36.19 31.355 34.06 32 31.87C32.645 34.06 33.495 36.19 34.54 38.22L35.62 40.325C34.15 41.01 32.895 42.075 31.995 43.41C31.095 42.075 29.84 41.01 28.37 40.325L29.46 38.22ZM35.245 53.925L32 59.155L28.755 53.925C26.74 50.68 26.225 46.72 27.245 43.105C29.17 44.055 30.5 46.035 30.5 48.325V51.325C30.5 52.155 31.17 52.825 32 52.825C32.83 52.825 33.5 52.155 33.5 51.325V48.325C33.5 46.035 34.83 44.06 36.755 43.105C37.775 46.72 37.26 50.68 35.245 53.925Z" fill="#464C54"/>
</svg>
