<svg width="35" height="36" viewBox="0 0 35 36" fill="none" xmlns="http://www.w3.org/2000/svg">
<path d="M12 7.91406L17 12.9141L22 7.91406M14 5.91406L17 8.91406L20 5.91406M16.5 3.91406L17.5 4.91406" stroke="#3D5EA7" stroke-width="1.5"/>
<path d="M12 27.4141L17 22.4141L22 27.4141M14 29.4141L17 26.4141L20 29.4141M16.5 31.4141L17.5 30.4141" stroke="#3D5EA7" stroke-width="1.5"/>
<path d="M8 13.4141L13 18.4141L8 23.4141M6 15.4141L9 18.4141L6 21.4141M4 17.9141L5 18.9141" stroke="#3D5EA7" stroke-width="1.5"/>
<path d="M26 23.4141L21 18.4141L26 13.4141M28 21.4141L25 18.4141L28 15.4141M30 18.9141L29 17.9141" stroke="#3D5EA7" stroke-width="1.5"/>
<path d="M17 14.9141L15.5 16.4141L14 17.9141L15.5 19.4141L16 19.9141L17 20.9141L17.5 20.4141L18.5 19.4141L19 18.9141L20 17.9141L18.5 16.4141L17 14.9141Z" fill="#3D5EA7"/>
<path d="M14 14.9141L15.5 16.4141M15.5 16.4141L17 14.9141L18.5 16.4141M15.5 16.4141L14 17.9141L15.5 19.4141M18.5 16.4141L20 14.9141M18.5 16.4141L20 17.9141L19 18.9141L18.5 19.4141M15.5 19.4141L16 19.9141L17 20.9141L17.5 20.4141L18.5 19.4141M15.5 19.4141L14 20.9141M18.5 19.4141L19.5 20.4141L20 20.9141L18.5 19.4141Z" stroke="#3D5EA7" stroke-width="2"/>
<path d="M18.4152 1.39741L16.9844 0L15.587 1.43082L17.0178 2.82823L18.4152 1.39741Z" fill="#3D5EA7"/>
<path d="M33.1366 18.1982L31.2812 16.4141L29.4972 18.2695L31.3525 20.0536L33.1366 18.1982Z" fill="#3D5EA7"/>
<path d="M4.63662 18.1982L2.78125 16.4141L0.997161 18.2695L2.85253 20.0536L4.63662 18.1982Z" fill="#3D5EA7"/>
<path d="M18.4152 33.8115L16.9844 32.4141L15.587 33.8449L17.0178 35.2423L18.4152 33.8115Z" fill="#3D5EA7"/>
</svg>
