<svg width="26" height="22" viewBox="0 0 26 22" fill="none" xmlns="http://www.w3.org/2000/svg">
<path d="M15.5712 1.899L13.4 3.76L10.8939 1.88039C8.06426 -0.241807 4.03957 0.400615 2.01124 3.29823C0.269628 5.78625 0.565512 9.16551 2.713 11.313L13.4 22L23.9913 10.7026C26.1486 8.40153 26.1958 4.83532 24.1003 2.47785C21.8905 -0.00814176 18.0966 -0.265631 15.5712 1.899Z" fill="#FED937"/>
<g clip-path="url(#clip0_7288_6622)">
<path d="M15.5712 1.899L13.4 3.76L10.8939 1.88039C8.06426 -0.241807 4.03957 0.400615 2.01124 3.29823C0.269628 5.78625 0.565512 9.16551 2.713 11.313L13.4 22L23.9913 10.7026C26.1486 8.40153 26.1958 4.83532 24.1003 2.47785C21.8905 -0.00814176 18.0966 -0.265631 15.5712 1.899Z" fill="#1457C5"/>
</g>
<defs>
<clipPath id="clip0_7288_6622">
<rect width="26" height="10" fill="white"/>
</clipPath>
</defs>
</svg>
