<svg width="129" height="124" viewBox="0 0 129 124" fill="none" xmlns="http://www.w3.org/2000/svg">
<circle cx="63.5" cy="60" r="53" fill="#D4E3F9"/>
<path d="M114.001 51.1354C114.022 50.4799 114.062 49.8037 113.952 49.1549C113.149 48.4143 114.167 47.2497 112.063 46.7354C110.713 46.7897 110.125 47.1577 109.037 47.8858C108.927 47.8436 108.817 47.8035 108.706 47.7657C105.395 46.6478 103.828 49.9917 103.034 52.5098C101.328 52.6689 100.393 53.547 100.023 55.2036C99.4905 57.5841 99.0463 59.9159 98.3599 62.2615C91.8546 59.0019 86.3437 69.0882 82.1222 72.5082C78.7048 75.2769 74.7046 76.5468 72.6031 80.6827L72.5967 80.6951C71.7505 82.3603 71.402 83.0462 71.23 84.9513C70.9905 87.6028 70.8845 90.2099 70.7767 92.8587L70.7706 93.0086C70.5853 97.8506 70.4462 102.694 70.3536 107.539L70.1744 115.005C70.1578 115.638 69.9897 118.697 70.1945 118.946L70.3515 118.923C70.5754 118.602 70.6153 112.166 70.6374 111.324C70.7677 104.843 70.9584 98.3637 71.2095 91.8864C71.3215 89.2733 71.2947 85.3192 72.0123 82.9038C73.4363 78.1112 77.5597 76.1986 81.3126 73.6476C85.6289 70.7137 88.2407 65.0794 93.0705 62.7148C95.7792 61.3637 99.6935 61.7224 99.0239 65.7324C98.7429 67.879 97.3732 68.8652 96.2322 70.3914C94.8428 72.2498 88.8922 76.3644 90.0045 78.8072L90.0925 78.8133C90.3911 78.2124 90.0997 77.6366 90.6969 76.759C91.9504 74.9172 93.7298 73.5566 95.2916 71.9806C97.5926 69.6588 99.6509 67.1 101.355 64.295C102.62 62.0782 103.631 59.7202 104.647 57.3793C105.442 55.2507 106.14 54.1028 106.957 51.8951C107.717 49.8417 110.068 45.9401 112.882 47.5207C113.11 47.6491 113.257 48.3513 113.236 48.642C113.155 49.7323 112.876 50.8465 112.685 51.9252C111.817 56.4081 110.298 61.0102 108.656 65.2582C107.812 67.4399 106.79 69.5298 105.958 71.6929C105.518 72.8415 105.102 73.9993 104.709 75.1652C103.839 77.8375 103.264 80.5866 101.055 82.5753C100.334 83.2235 98.8071 84.0408 97.9282 84.5427C95.5177 85.9193 93.0674 87.1608 90.6946 88.6175C89.13 89.5344 87.6865 90.3168 86.3665 91.5886C84.5733 93.3164 84.86 94.3211 85.1351 96.5805L85.6351 100.55C86.0211 103.54 86.4468 106.524 86.9122 109.503C87.0078 110.126 87.5239 113.979 87.7819 114.235C88.1165 114.128 87.704 112.385 87.6462 112.023C86.9988 107.802 86.3997 103.573 85.8488 99.3383C85.7069 98.2503 85.1049 94.8279 85.2682 93.9116C85.4233 93.0423 86.0928 92.2888 86.7293 91.7135C87.9609 90.6002 89.4503 89.7751 90.8774 88.9418C93.1552 87.6119 95.4748 86.38 97.7746 85.092C98.8018 84.5168 99.8985 83.9637 100.839 83.2547C101.508 82.7505 102.164 82.0687 102.646 81.3836C103.434 80.2659 103.812 78.9892 104.36 77.7575C104.796 76.7769 105.282 75.8104 105.742 74.8398C106.53 73.1761 107.29 71.4906 108.11 69.8428C108.995 68.0642 109.929 66.3252 110.701 64.4909C112.334 60.6105 113.866 55.3657 114.001 51.1354Z" fill="black"/>
<path d="M107.239 47.956C107.877 47.9179 108.096 47.9706 108.682 48.1529C107.113 50.0044 106.646 51.5546 105.721 53.7495C104.703 56.2043 103.651 58.6444 102.563 61.0688C102.401 61.4289 102.234 61.7351 102.047 62.082C102.566 58.2716 102.67 53.992 104.268 50.4172C104.831 49.1578 105.842 48.2003 107.239 47.956Z" fill="#D4E3F9"/>
<path d="M102.419 53.0024C102.63 52.9896 102.634 52.9801 102.835 53.0303L102.874 53.1425C102.436 55.3626 102.081 57.5986 101.812 59.8455C101.71 60.6594 101.629 62.7721 101.39 63.4043C101.169 63.9901 99.6749 66.1541 99.2216 66.6354L99.1977 66.5195C99.6268 64.9598 99.7544 63.8416 98.6562 62.5278C99.3543 60.827 99.5831 58.6716 100.042 56.8728C100.451 55.2692 100.524 53.539 102.419 53.0024Z" fill="#D4E3F9"/>
<path d="M113.475 49.8076L113.527 49.863C113.677 50.406 113.526 51.7196 113.491 52.3323C113.373 54.9768 112.579 57.4083 111.86 59.9219C110.86 63.4214 109.38 66.4017 107.763 69.6419L105.475 74.3306L105.414 74.2938C105.782 73.2945 106.131 72.1791 106.555 71.212C108.465 67.014 110.074 62.833 111.439 58.4289C112.377 55.4047 112.895 52.9133 113.475 49.8076Z" fill="#D4E3F9"/>
<path d="M14.7932 46.9311C16.2746 46.8389 17.2391 47.4548 18.5156 48.1184C19.2488 47.6173 19.7559 47.5923 20.6134 47.7424C22.9548 48.1522 23.7799 50.4415 24.2782 52.4588C28.3672 52.9167 28.0698 59.6297 28.7412 62.7118C31.2593 60.2528 34.3556 62.307 36.58 63.9808C39.9129 66.4885 42.1205 69.9027 45.2917 72.5619C48.0507 74.8363 51.2461 75.8566 53.471 78.8148C55.0364 80.8963 55.8476 82.4739 56.149 85.0981C56.7333 90.1834 56.774 95.1637 56.9129 100.271C57.0454 104.292 57.1416 108.313 57.2014 112.336C57.2186 113.064 57.4013 118.612 57.2814 118.879L57.1207 118.931C56.8779 118.774 56.9323 116.915 56.9275 116.552C56.9084 115.348 56.8817 114.144 56.8471 112.941L56.4832 97.7836C56.3904 94.4262 56.3069 91.0697 56.0163 87.7223C55.8662 85.9947 55.7885 84.3468 55.2211 82.6925C54.3427 80.1311 52.5183 77.8455 50.2878 76.3272C48.3688 75.0209 46.3044 73.9848 44.5518 72.4359C41.4184 69.6668 35.3815 61.1803 30.7413 62.0272C30.0024 62.162 29.3407 62.5788 28.9293 63.2109C28.5048 63.8632 28.3807 64.7416 28.5681 65.4933C28.7 66.0221 29.0124 66.4924 29.4977 66.7563C30.1088 67.0886 30.8366 67.0492 31.4799 66.8408C32.4892 66.5142 33.7266 65.6727 34.3626 64.821C34.575 64.5365 34.7293 64.1283 35.0016 63.9045C35.7058 64.3888 33.7547 65.9672 33.3678 66.2355C31.7418 67.3623 30.2814 68.0047 28.5884 66.5532C28.7582 67.3656 28.9447 67.731 29.4509 68.3967C30.7843 70.1501 32.3232 71.7363 33.9293 73.2395C35.0792 74.3307 36.4945 75.388 37.1477 76.8689C37.3482 77.3528 37.3953 78.7155 37.1325 79.1587L37.0756 79.1757C36.964 79.0704 36.9132 78.9924 36.9013 78.834C36.8722 78.4494 36.9833 78.0393 36.9687 77.6481C36.9391 76.862 36.1336 75.9 35.6147 75.3529C34.711 74.3999 33.6732 73.5707 32.7341 72.6524C30.8844 70.8435 29.1302 68.814 27.6953 66.6571C26.4698 64.8149 25.2282 62.8592 24.3145 60.8415C23.2263 58.4381 22.3038 55.9497 21.234 53.5335C20.6074 52.1183 19.9125 50.4482 18.9168 49.2517C18.0704 48.2348 16.5313 47.255 15.1704 47.254C14.8956 47.2538 14.6026 47.3347 14.4147 47.5463C14.1235 47.8743 14.1163 48.2582 14.1601 48.6744C14.4655 51.5706 15.2621 54.4921 16.0476 57.2912C16.8109 60.0112 17.6207 62.7337 18.6468 65.3677C19.1306 66.6093 19.7191 67.815 20.2449 69.04C20.7968 70.3261 21.2859 71.635 21.7714 72.9473C22.3527 74.5183 22.8755 76.1112 23.4266 77.6931C23.774 78.6907 24.0903 79.7701 24.6157 80.6893C25.0239 81.4038 25.6847 82.0325 26.3269 82.539C27.7434 83.6559 29.4477 84.4927 31.0286 85.3536C33.3745 86.6312 35.7335 87.8886 37.9754 89.3452C39.1626 90.1164 40.4235 90.9702 41.3519 92.0452C41.826 92.594 42.2424 93.3092 42.3304 94.0388C42.462 95.1274 39.8229 113.771 39.6124 114.34L39.4983 114.418L39.4004 114.365C39.2846 113.942 39.852 110.343 39.9401 109.674L41.4029 99.0299C41.6127 97.4521 42.3973 94.0858 41.4368 92.8191C39.5228 90.2946 36.1176 88.7381 33.4532 87.1116C31.1695 85.7491 27.0018 83.9171 25.2323 82.1081C24.8071 81.6775 24.4468 81.1872 24.1626 80.6529C23.781 79.9273 23.5137 79.1037 23.1954 78.3463C21.2315 73.6706 18.6457 69.2815 16.7259 64.5922C15.9101 62.6275 15.2218 60.6123 14.6651 58.559C14.3679 57.48 14.0583 56.227 13.8766 55.1235C13.6379 53.6749 12.8422 47.2666 14.683 46.9793L14.7932 46.9311Z" fill="black"/>
<path d="M24.3672 52.8965C24.8291 52.9884 25.337 53.1201 25.73 53.3868C26.1128 53.6467 26.5113 54.1507 26.684 54.6089C27.6316 57.1238 27.9658 60.1683 28.2643 62.8307C28.3315 63.4289 28.1346 64.0614 28.0819 64.6335C28.0219 65.2873 28.1501 65.8964 28.2586 66.5273L28.2736 66.7006L28.1996 66.6929C27.4454 65.6568 25.9657 63.2293 25.3927 62.1236C25.7422 59.1237 24.9684 55.8138 24.3672 52.8965Z" fill="#D4E3F9"/>
<path d="M19.2688 48.0782C19.6802 48.0388 19.8773 48.045 20.2783 48.077C21.1901 48.15 22.0444 48.6374 22.5887 49.3488C24.0336 51.2374 25.3557 58.9726 25.0263 61.1956L24.9598 61.21L24.8487 61.0673C24.3968 60.1434 24.0569 59.1123 23.6386 58.1597C22.4175 55.3789 21.3986 52.4512 19.8216 49.8464C19.5474 49.3937 19.0666 48.8758 18.8516 48.4215C18.9619 48.2009 19.0117 48.2305 19.2688 48.0782Z" fill="#D4E3F9"/>
<path d="M13.8516 49.8691C13.9441 49.9608 14.8841 54.431 15.0118 54.9376C15.895 58.4414 16.8939 61.9984 18.2362 65.3569C19.09 67.493 20.0587 69.5782 20.8972 71.7226C21.231 72.5761 21.6196 73.4502 21.8274 74.3431C21.4871 73.9249 20.2339 71.0834 19.8831 70.4201C19.4082 69.4621 18.8878 68.5278 18.4387 67.5566C16.4586 63.2746 14.819 58.7011 14.1195 54.0193C13.9179 52.6706 13.8928 51.2331 13.8516 49.8691Z" fill="#D4E3F9"/>
<path d="M92.9219 64.4932C93.2517 64.6159 93.3617 64.8799 93.6504 65.1776C94.4151 65.9664 95.1146 66.546 96.1768 66.8557C97.0078 67.098 97.486 66.7974 97.9564 66.8842L98.0215 66.9908L97.9263 67.1526C97.5732 67.2707 97.3185 67.3326 96.9444 67.3635C95.7072 67.4656 92.9158 65.7954 92.9219 64.4932Z" fill="black"/>
<path d="M63.2397 28.4343C63.6803 27.6542 64.1246 26.9322 64.68 26.2262C67.3063 22.9458 71.1133 20.8252 75.2849 20.3188C79.4655 19.7918 83.6827 20.9657 86.9895 23.5774C90.6178 26.4954 92.9395 30.7345 93.4443 35.3634C93.9708 40.3517 92.2908 45.2589 89.4129 49.2871C88.8957 50.0111 88.0474 50.6426 87.464 51.389C86.5766 54.2174 85.3403 55.0138 83.31 57.0169L78.3194 61.9844L69.774 70.4458C68.3517 71.8554 66.3433 73.9422 64.88 75.2478C64.5888 75.066 64.3311 74.8789 64.006 74.7752C63.7117 75.0476 63.3431 75.5689 62.9792 75.6267C61.8839 74.7242 59.6151 72.325 58.4495 71.1841C54.101 66.8516 49.7916 62.4803 45.5217 58.0703L40.4099 52.9032C39.1428 51.6265 37.7102 50.2929 36.7028 48.8144C32.8254 43.0993 31.7658 36.2851 34.7515 29.9494C38.8673 21.2158 50.116 17.1941 58.2868 22.9219C60.6195 24.557 61.7043 26.1105 63.2397 28.4343Z" fill="black"/>
<path d="M64.0078 74.7749C65.3801 73.2951 66.87 71.8827 68.304 70.4535C70.6659 68.0576 73.0505 65.684 75.4575 63.3333L84.5844 54.2851C85.5441 53.3352 86.4983 52.3175 87.4658 51.3887C86.5784 54.217 85.3421 55.0134 83.3118 57.0165L78.3212 61.9841L69.7758 70.4454C68.3535 71.855 66.3451 73.9418 64.8818 75.2474C64.5906 75.0656 64.3329 74.8786 64.0078 74.7749Z" fill="#FEEB93"/>
<path d="M63.2507 29.5087C64.6404 27.2553 64.537 26.6863 66.7468 24.7023C69.8862 21.8676 74.0364 20.4194 78.2578 20.6854C82.3425 20.9084 86.1081 22.8721 88.8155 25.9092C91.81 29.2798 93.3446 33.7008 93.0825 38.2018C92.8509 42.1051 90.8869 47.5355 87.8857 50.1944C87.3529 50.8358 85.8981 52.1923 85.2413 52.8392L80.4965 57.5665L63.5804 74.4254L63.0177 75.0475C61.7898 73.9509 60.3641 72.4736 59.1904 71.3003L52.018 64.0579C49.1096 61.1321 46.2252 58.1823 43.3654 55.209C41.1051 52.8949 37.7019 49.8265 36.1743 47.118C33.7277 42.7804 32.8061 37.8733 34.1026 33.0251C35.2455 28.7195 38.0754 25.0564 41.9526 22.8634C45.3692 20.8937 49.7275 20.1631 53.5566 21.1957C56.821 22.1074 59.6748 24.1094 61.643 26.8687C62.2677 27.7357 62.7177 28.5901 63.2507 29.5087Z" fill="#5A7CC0"/>
<path d="M87.2291 44.2188L90.6889 44.2487C90.1761 45.6259 89.7314 46.5857 89.0268 47.8828C88.8217 48.2605 87.9949 49.8446 87.8906 50.1936C87.3578 50.835 85.903 52.1915 85.2462 52.8384L80.5014 57.5658L63.5853 74.4246C61.9452 72.4914 60.2779 70.5814 58.5838 68.6952C57.627 67.6415 56.615 66.6296 55.663 65.579L47.1496 55.9945C43.9304 52.3442 40.2099 49.088 38.5156 44.3628C39.0774 44.2967 40.1642 44.3221 40.77 44.3221L44.714 44.3197L58.1481 44.3105L75.5688 44.2808L82.5534 44.2604C83.85 44.261 85.3294 44.2314 86.6109 44.3006C85.7908 45.7648 84.9268 47.1806 83.8134 48.4444C83.6214 48.6624 83.163 49.2504 83.3473 49.5416C84.2745 49.2894 86.7161 45.1287 87.2291 44.2188Z" fill="#FEEB93"/>
<path d="M63.2507 29.5087C64.6404 27.2553 64.537 26.6863 66.7468 24.7023C69.8862 21.8676 74.0364 20.4194 78.2578 20.6854C82.3425 20.9084 86.1081 22.8721 88.8155 25.9092C91.81 29.2798 93.3446 33.7008 93.0825 38.2018C92.8509 42.1051 90.8869 47.5355 87.8857 50.1944C87.99 49.8454 88.8168 48.2613 89.0219 47.8836C89.7265 46.5865 90.1712 45.6267 90.684 44.2495C92.0837 39.6046 92.1833 34.6867 89.8046 30.337C88.0227 27.0786 84.9379 24.0121 81.3095 22.94C77.5829 21.7993 73.5519 22.2333 70.1535 24.141C68.2367 25.201 66.848 26.3647 65.5107 28.1022C65.0597 28.68 64.6666 29.3007 64.3372 29.9555C64.1221 30.3919 63.8744 31.2712 63.4406 31.3813C62.9345 31.1708 62.5056 29.9033 62.268 29.4039C59.325 23.2188 52.4406 20.9044 46.1822 23.4653C42.8008 24.8491 39.8728 27.9229 38.4529 31.3046C36.7318 35.4738 36.7735 40.0944 38.4773 44.2984C38.4885 44.3201 38.4996 44.3419 38.5107 44.3636C40.205 49.0888 43.9255 52.345 47.1447 55.9953L55.6581 65.5797C56.6101 66.6304 57.6221 67.6423 58.5789 68.696C60.273 70.5822 61.9403 72.4921 63.5804 74.4254L63.0177 75.0475C61.7898 73.9509 60.3641 72.4736 59.1904 71.3003L52.018 64.0579C49.1096 61.1321 46.2252 58.1823 43.3654 55.209C41.1051 52.8949 37.7019 49.8265 36.1743 47.118C33.7277 42.7804 32.8061 37.8733 34.1026 33.0251C35.2455 28.7195 38.0754 25.0564 41.9526 22.8634C45.3692 20.8937 49.7275 20.1631 53.5566 21.1957C56.821 22.1074 59.6748 24.1094 61.643 26.8687C62.2677 27.7357 62.7177 28.5901 63.2507 29.5087Z" fill="white"/>
<path d="M86.5984 44.3009C87.2009 43.1865 87.577 42.0404 87.9711 40.794C90.4759 32.8712 84.7838 24.9653 76.3434 25.5517C75.8166 25.5883 75.3816 25.7844 74.847 25.6187L74.8047 25.4971C75.1734 25.1128 75.9469 25.112 76.454 25.0782C81.5379 24.739 86.2696 27.5723 88.1311 32.3635C89.8143 36.6959 89.0004 40.1234 87.2166 44.219C86.7036 45.129 84.2619 49.2896 83.3348 49.5418C83.1505 49.2506 83.6088 48.6627 83.8009 48.4446C84.9143 47.1809 85.7782 45.7651 86.5984 44.3009Z" fill="black"/>
<path d="M25.0703 15.6497C25.2124 15.6606 25.3764 15.7159 25.5747 15.8411C27.1389 16.8283 28.7685 17.8368 30.263 18.9202C30.2866 19.0098 30.3101 19.0994 30.3337 19.1891C29.8463 19.2002 26.0069 16.5428 25.3146 16.1225C25.0842 15.9827 25.0974 15.8597 25.0703 15.6497Z" fill="black"/>
<path d="M102.599 16.3955C102.727 16.4659 102.67 16.4169 102.735 16.5839C102.502 16.9437 98.8046 18.9783 98.1557 19.3316C98.0816 19.2689 98.0618 19.2103 98.0078 19.1197L98.0542 18.9809C98.9574 18.3476 101.593 16.8784 102.599 16.3955Z" fill="black"/>
<path d="M38.6562 7.41504C39.2585 7.59397 40.5621 9.72364 41.0089 10.3059C41.2327 10.5977 41.2941 10.7602 41.2247 11.0882C40.6503 10.7569 39.2422 8.39335 38.7375 7.78975C38.6708 7.70999 38.66 7.51872 38.6562 7.41504Z" fill="black"/>
<path d="M88.8144 7.11719C88.9438 7.19679 88.8961 7.16143 88.9823 7.30514C88.8737 7.82266 87.3664 9.84504 86.9638 10.3459L86.8662 10.2857L86.8359 10.0945C87.0734 9.36679 88.3018 7.75856 88.8144 7.11719Z" fill="black"/>
</svg>
