<svg width="168" height="124" viewBox="0 0 168 124" fill="none" xmlns="http://www.w3.org/2000/svg">
<g clip-path="url(#clip0_7125_9548)">
<circle cx="84" cy="62.5" r="51.5" fill="#D4E3F9"/>
<path d="M63.2945 46.5043C63.6017 46.3157 63.5776 46.2525 63.8443 46.3006C64.1393 46.6999 64.3164 47.1358 64.5636 47.5596C67.1352 51.9687 69.4166 56.5236 71.8876 60.9873C72.1729 61.5025 72.5003 62.1256 72.7409 62.6619C68.5913 66.609 62.556 70.3925 57.4599 72.9058C46.0527 78.5316 33.7141 81.1942 23.9144 89.8268C23.261 90.4025 21.3841 91.9685 20.9999 92.5708C20.8169 92.0086 20.021 90.7148 19.6973 90.1427C18.3879 87.8565 17.058 85.5823 15.708 83.3201C14.4441 81.1619 13.2168 78.7251 11.8984 76.6386C12.9596 75.4507 15.1911 73.6964 16.4744 72.7223C25.6855 65.7298 36.6827 62.2345 46.9706 57.2546C52.5401 54.5586 58.6921 50.7058 63.2945 46.5043Z" fill="#FEEB93"/>
<path d="M54.8501 29.6611C56.3735 32.762 58.14 35.7617 59.8151 38.7808C60.9015 40.7395 61.8062 42.7832 62.9843 44.6887C63.2347 45.0939 63.4432 45.5058 63.6439 45.9379C63.6286 46.2129 63.5222 46.238 63.2995 46.504C58.6971 50.7054 52.5451 54.5583 46.9756 57.2542C36.6877 62.2341 25.6905 65.7294 16.4794 72.7219C15.1961 73.696 12.9646 75.4503 11.9034 76.6382C11.4263 75.8709 10.8746 74.8012 10.4041 73.9858L5.51485 65.4135C4.93661 64.4152 4.01917 62.7023 3.39062 61.8068C3.62354 61.6331 4.27845 60.9191 4.529 60.6593C5.18432 59.9691 5.86314 59.3016 6.56424 58.658C9.47177 56.0053 12.6631 53.6815 16.0802 51.7287C27.8818 44.921 41.2448 42.1235 51.5677 32.867C52.5708 31.9676 53.999 30.6647 54.8501 29.6611Z" fill="#5A7CC0"/>
<path d="M103.148 47.1933C104.867 43.7052 106.888 40.1275 108.705 36.6752C109.602 34.97 111.728 31.3833 112.266 29.6113C113.024 30.3658 114.432 31.4079 115.315 32.1828C116.639 33.3459 118.064 34.5464 119.408 35.6871C120.206 36.3633 122.927 37.928 123.411 38.6201C124.462 38.877 126.67 40.3937 127.646 41.0714L127.747 41.2846C128.289 41.7327 128.65 41.9762 129.323 42.1448C129.769 42.1944 132.585 43.2987 132.825 43.5626C133.489 43.9308 133.891 44.15 134.59 44.4287C134.995 44.4909 135.163 44.5351 135.494 44.7877C135.629 44.7503 135.765 44.7155 135.904 44.7694C139.457 46.1393 142.982 47.5038 146.42 49.1501C147.785 49.8079 149.128 50.5109 150.446 51.2575C155.909 54.3521 159.108 57.1213 163.218 61.8481C162.955 62.391 162.154 63.7383 161.794 64.2516C161.375 64.9758 160.88 65.8866 160.429 66.5734C160.048 67.2635 159.33 68.6245 158.871 69.2159C158.495 69.9183 158.111 70.6176 157.652 71.2706C157.165 72.1764 156.661 73.0731 156.141 73.9601C155.749 74.6765 155.337 75.3822 154.907 76.0766C154.445 76.8951 153.943 77.8469 153.465 78.6401C153.076 79.3668 152.549 80.1361 152.203 80.8142C151.83 81.4674 151.035 82.9309 150.612 83.4823C150.239 84.1396 149.747 84.9308 149.406 85.579C149.021 86.3307 148.385 87.5107 147.879 88.1912C147.445 88.9664 147.047 89.6616 146.572 90.4167C146.315 90.9516 145.611 92.2073 145.266 92.6564C144.243 91.6354 143.208 90.5781 142.152 89.6051C136.344 84.2538 129.913 81.1454 122.582 78.3917C118.725 76.9429 114.515 75.3791 110.822 73.5557C105.075 70.7175 99.5905 66.6018 94.9609 62.15C95.2682 61.4649 95.8661 60.3196 96.3069 59.7266L97.7422 57.1886C98.1686 56.371 98.6583 55.5166 99.1067 54.7051L100.368 52.3127C100.816 51.4295 101.316 50.5528 101.797 49.6854C102.225 48.8701 102.671 47.9733 103.148 47.1933Z" fill="#FD7A3F"/>
<path d="M135.473 44.7873C135.609 44.7499 135.744 44.7151 135.884 44.7689C139.436 46.1388 142.962 47.5033 146.399 49.1497C147.765 49.8075 149.107 50.5104 150.426 51.2571C155.889 54.3517 159.088 57.1209 163.198 61.8476C162.935 62.3905 162.133 63.7378 161.773 64.2512C161.354 64.9754 160.86 65.8861 160.408 66.573C160.027 67.263 159.309 68.6241 158.851 69.2154C158.475 69.9179 158.09 70.6171 157.631 71.2701C157.144 72.176 156.641 73.0727 156.121 73.9596C155.728 74.676 155.317 75.3817 154.887 76.0762C153.711 74.5804 152.994 73.9579 151.645 72.6808C145.991 67.3284 138.568 63.7339 131.394 60.9287C130.039 60.3987 128.688 59.78 127.305 59.2786C127.698 58.481 128.146 57.6706 128.566 56.8839C128.893 56.221 129.554 54.9892 129.962 54.4027C130.374 53.6553 130.771 52.8994 131.151 52.1354C131.607 51.2397 132.129 50.3786 132.711 49.5592C133.104 48.8243 133.479 48.1179 133.91 47.4027C134.32 46.732 135.048 45.2933 135.473 44.7873Z" fill="#FD7A3F"/>
<path d="M135.488 44.7873C135.624 44.7499 135.76 44.7151 135.899 44.7689C139.451 46.1388 142.977 47.5033 146.415 49.1497C147.78 49.8075 149.123 50.5104 150.441 51.2571C155.904 54.3517 159.103 57.1209 163.213 61.8476C162.95 62.3905 162.149 63.7378 161.788 64.2512C161.369 64.9754 160.875 65.8861 160.423 66.573C159.427 65.2161 158.639 64.5269 157.482 63.3453C152.434 58.1878 146.236 55.0302 139.616 52.2888C138.392 51.7736 137.157 51.2854 135.912 50.8246C134.947 50.4722 133.59 50.0606 132.727 49.5592C133.12 48.8243 133.494 48.1179 133.925 47.4027C134.335 46.732 135.063 45.2933 135.488 44.7873Z" fill="#FD7A3F"/>
<path d="M133.925 47.4033C135.009 47.6358 136.646 48.3416 137.697 48.7479C146.275 52.0621 154.785 56.2297 160.901 63.3095C161.139 63.584 161.524 64.0151 161.788 64.2518C161.369 64.976 160.875 65.8867 160.423 66.5736C159.427 65.2167 158.639 64.5275 157.482 63.3459C152.434 58.1884 146.236 55.0308 139.616 52.2894C138.392 51.7742 137.157 51.286 135.912 50.8252C134.947 50.4728 133.59 50.0612 132.727 49.5598C133.12 48.8249 133.494 48.1185 133.925 47.4033Z" fill="#FEFEFF"/>
<path d="M129.962 54.4033C137.432 57.3696 144.768 60.0551 151.157 65.1482C152.811 66.4664 154.317 67.8142 155.865 69.2613C156.338 69.7041 157.245 71.0166 157.631 71.2708C157.144 72.1766 156.641 73.0733 156.121 73.9603C155.728 74.6767 155.317 75.3824 154.887 76.0769C153.711 74.581 152.994 73.9586 151.645 72.6815C145.991 67.3291 138.568 63.7346 131.394 60.9293C130.039 60.3994 128.688 59.7807 127.305 59.2792C127.698 58.4816 128.146 57.6713 128.566 56.8845C128.893 56.2217 129.554 54.9899 129.962 54.4033Z" fill="#FD7A3F"/>
<path d="M128.566 56.8838C130.995 58.1905 133.721 59.0345 136.257 60.1449C142.354 62.8149 148.035 65.862 152.923 70.4468C154.052 71.5057 155.267 72.6653 156.121 73.9596C155.728 74.676 155.317 75.3817 154.887 76.0761C153.711 74.5803 152.994 73.9579 151.645 72.6807C145.991 67.3284 138.568 63.7339 131.394 60.9286C130.039 60.3986 128.688 59.7799 127.305 59.2785C127.698 58.4809 128.146 57.6705 128.566 56.8838Z" fill="#FEFEFF"/>
<path d="M131.165 52.1367C133.113 52.9838 135.131 53.6164 137.064 54.421C143.486 57.0944 149.535 60.1128 154.724 64.8379C156.037 66.0331 157.897 67.7656 158.865 69.2168C158.489 69.9192 158.105 70.6184 157.645 71.2714C157.26 71.0172 156.352 69.7048 155.879 69.262C154.331 67.8149 152.825 66.4671 151.171 65.1488C144.782 60.0558 137.446 57.3703 129.977 54.404C130.389 53.6567 130.785 52.9007 131.165 52.1367Z" fill="#FEFEFF"/>
<path d="M103.148 47.1933C104.867 43.7052 106.889 40.1275 108.705 36.6752C109.602 34.97 111.728 31.3833 112.266 29.6113C113.024 30.3658 114.433 31.4079 115.315 32.1828C116.64 33.3459 118.064 34.5464 119.409 35.6871C120.206 36.3633 122.928 37.928 123.411 38.6201C124.462 38.877 126.671 40.3937 127.646 41.0714L127.748 41.2846C128.289 41.7327 128.651 41.9762 129.323 42.1448C129.77 42.1944 132.585 43.2987 132.826 43.5626C133.49 43.9308 133.891 44.15 134.59 44.4287C134.995 44.4909 135.164 44.5351 135.494 44.7877C135.068 45.2938 134.341 46.7325 133.931 47.4032C133.5 48.1184 133.125 48.8247 132.732 49.5596C132.15 50.379 131.628 51.2402 131.172 52.1358C130.791 52.8998 130.395 53.6558 129.983 54.4031C129.575 54.9897 128.914 56.2214 128.587 56.8843C128.167 57.671 127.719 58.4814 127.326 59.279C126.801 60.1669 126.407 60.881 125.801 61.722C123.741 60.8472 121.71 59.9138 119.705 58.922C118.24 58.1975 116.501 57.435 115.12 56.5696C110.741 53.8252 106.864 50.7744 103.148 47.1933Z" fill="#1E3770"/>
<path d="M132.817 43.5625C133.481 43.9307 133.883 44.1499 134.582 44.4286C133.89 44.8899 133.766 44.5137 133.299 45.2463L133.258 45.3113L133.11 45.3035L132.735 44.866C132.332 44.8017 132.238 44.8062 131.883 44.6255L131.924 44.4709C132.489 44.3356 132.553 44.0408 132.817 43.5625Z" fill="#FEFEFF"/>
<path d="M127.741 41.2861C128.283 41.7342 128.644 41.9777 129.316 42.1463C128.784 42.4788 128.556 42.7838 128.19 42.9969C127.894 43.0183 127.135 42.5468 126.82 42.3862C127.31 41.9826 127.444 41.8481 127.741 41.2861Z" fill="#FEFEFF"/>
<path d="M123.394 38.6201C123.594 39.1367 123.619 39.1469 124.02 39.5331L124.126 39.6347C123.604 40.016 123.603 39.9837 123.471 40.6475L123.45 40.7577L123.388 40.7876L123.145 40.3695C122.981 40.0862 122.719 40.0758 122.427 40.017C122.259 39.7598 122.488 39.7253 122.592 39.3856C122.592 39.3856 122.55 38.8653 122.546 38.8203L122.647 38.7866L122.967 38.9894C123.243 38.9027 123.177 38.8957 123.394 38.6201Z" fill="#FEFEFF"/>
<path d="M107.572 40.3643C107.953 40.6922 108.054 41.0305 108.289 41.4657C108.422 41.5097 108.556 41.5495 108.691 41.5853C108.844 41.7862 108.996 41.9221 108.993 42.162C108.46 42.5596 108.562 42.5161 108.542 43.1724L107.93 42.4368C107.588 42.325 107.276 42.3105 106.984 42.1199C107.114 41.858 107.211 41.8757 107.522 41.6963L107.572 40.3643Z" fill="#FEFEFF"/>
<path d="M105.81 44.6152C106.674 45.193 106.637 45.5056 107.4 46.039C106.856 46.2978 106.754 46.341 106.512 46.8822L106.504 46.9343L106.432 46.9532L105.979 46.3432L104.992 45.9671C105.639 45.4764 105.792 45.4638 105.81 44.6152Z" fill="#FEFEFF"/>
<path d="M126.596 54.2715L126.745 54.2982C127.041 54.9301 127.182 54.6876 127.982 55.022L127.977 55.1165C127.66 55.188 127.403 55.1965 127.206 55.4343C127.083 55.9513 127.157 55.8614 126.721 56.0512L126.651 56.045C126.148 55.3677 126.108 55.5 125.289 55.458C126.136 54.7954 125.692 55.0406 126.184 54.3381L126.596 54.2715Z" fill="#FEFEFF"/>
<path d="M114.404 32.4834C114.614 32.7128 114.743 33.1697 114.98 33.3952C115.159 33.5655 115.001 33.3566 115.32 33.3587C115.525 33.6175 115.663 33.6951 115.689 33.9666C115.224 34.2674 115.193 34.2115 114.965 34.7422L114.923 34.8423C114.905 34.8834 114.887 34.9245 114.868 34.9658C114.277 33.8457 114.075 34.325 113.75 33.8934C113.761 33.7461 114.274 33.0525 114.404 32.4834Z" fill="#FEFEFF"/>
<path d="M111.422 32.7754C111.695 32.9795 112.014 33.5839 112.604 34.0695C112.553 34.349 112.556 34.3647 112.441 34.6209C112.209 34.73 112.172 34.7135 112.047 34.9256C112.04 35.1648 112.062 35.2868 111.93 35.4855C111.789 35.0938 111.624 34.6005 111.277 34.3604C111.131 34.3862 111.092 34.3981 110.968 34.4617L110.995 34.2289L110.764 34.1185C110.667 33.9083 111.098 33.8357 111.24 33.6009C111.34 33.4366 111.392 32.9696 111.422 32.7754Z" fill="#FEFEFF"/>
<path d="M116.292 39.4463C116.637 39.6866 116.566 40.0026 116.936 40.2329C117.624 39.8815 117.048 40.4758 118.084 40.8329L118.191 40.8687C117.971 40.9973 117.793 41.0961 117.597 41.2616L117.477 41.3649C117.417 41.6385 117.435 41.8242 117.267 41.9644C116.864 41.4636 116.702 41.16 116.045 41.0468L116.031 40.9338C116.683 40.4874 116.342 40.2685 116.292 39.4463Z" fill="#FEFEFF"/>
<path d="M127.178 47.5146L127.262 47.5556C127.642 48.1763 127.832 48.2978 128.47 48.5552C126.983 49.0912 127.8 48.9721 127.423 49.4592L127.275 49.3462C126.626 48.6948 126.385 49.1097 126.086 48.8509C126.262 48.482 126.274 48.1129 126.432 47.9474C126.996 47.8953 126.871 47.9481 127.178 47.5146Z" fill="#FEFEFF"/>
<path d="M108.556 44.2207C109.717 44.916 109.315 44.784 110.311 45.5836C109.802 45.897 109.742 45.9104 109.555 46.4747C109.342 46.4975 108.993 45.8859 108.725 45.7969C108.702 45.7893 108.282 45.7407 108.227 45.7337L108.117 45.5862L108.741 45.2396L108.556 44.2207Z" fill="#FEFEFF"/>
<path d="M125.999 44.8857L126.04 44.8954C126.405 45.5525 126.5 45.4067 127.043 45.7761C126.878 45.8953 126.637 45.9051 126.414 45.9454C126.207 46.1483 126.306 46.4038 126.153 46.6981L126.028 46.5714C125.631 46.2322 125.51 46.1515 124.988 46.1095L124.916 45.9423L124.883 46.0859C125.011 45.63 124.997 45.361 125.09 44.945C125.534 45.0441 125.625 45.1469 125.999 44.8857Z" fill="#FEFEFF"/>
<path d="M130.276 47.0264C130.457 47.094 130.64 47.1587 130.824 47.2206L131.082 47.092C131.357 47.3713 131.271 47.2123 131.368 47.5784C131.592 47.7484 132.217 47.7657 132.534 47.7985C132.441 47.8199 132.349 47.8417 132.256 47.8641C131.616 48.0185 131.467 47.9766 131.155 48.4855L131.183 48.6707C131.527 48.7521 129.313 47.927 129.624 48.1057C130.074 47.6777 130.178 47.6566 130.276 47.0264Z" fill="#FEFEFF"/>
<path d="M116.713 49.873C117.106 50.0632 118.31 50.5583 118.338 51.0064C117.816 51.4565 117.86 51.317 117.839 51.978C117.324 51.4666 117.383 51.3653 116.628 51.4139L116.514 51.4221C116.413 50.7485 116.909 50.9165 116.713 49.873Z" fill="#FEFEFF"/>
<path d="M114.803 43.3213C114.813 43.3262 116.364 44.8044 116.366 44.8071C116.175 44.9361 116.163 44.879 115.864 44.8463C115.652 44.9864 115.685 45.0785 115.58 45.3853L115.55 45.5276C114.963 44.845 115.287 44.9816 114.321 44.7022L114.273 44.5716C114.559 44.0749 114.621 43.8622 114.803 43.3213Z" fill="#FEFEFF"/>
<path d="M112.394 36.4766C112.638 36.7445 112.716 37.0737 113.128 37.2981C113.326 37.4062 113.579 37.5651 113.686 37.7697C113.513 38.3634 113.313 38.4456 113.187 39.1221L113.157 39.2157C113.068 38.902 112.807 38.3882 112.62 38.1297L112.042 38.0422C111.899 37.8533 112.053 37.7523 112.181 37.5178C112.384 37.1474 112.389 37.0074 112.394 36.5884L112.394 36.4766Z" fill="#FEFEFF"/>
<path d="M119.596 39.2578C119.751 39.477 119.817 39.5995 120.034 39.7632L120.333 39.5927C120.384 39.6755 120.471 39.9956 120.505 40.1079C121.145 40.6687 120.713 40.4807 120.385 40.9468C120.383 40.9487 120.314 41.3829 120.306 41.4318L120.198 41.4377C119.84 40.9394 119.83 40.9295 119.235 40.7628L119.12 40.7315L119.07 40.6376C119.192 40.4741 119.274 40.3666 119.379 40.1907L119.256 39.9185C119.366 39.5317 119.384 39.7846 119.596 39.2578Z" fill="#FEFEFF"/>
<path d="M121.686 52.38C121.759 52.3368 121.715 52.3487 121.825 52.3767C122.122 52.7592 122.654 53.0024 122.745 53.2976L122.858 53.2812L122.843 53.2106L122.881 53.2682C121.859 53.5332 122.506 53.6653 122.127 54.0445L121.783 53.8224C121.349 53.5608 121.168 53.5563 120.664 53.6151L120.594 53.5555C120.973 53.158 121.147 53.1202 121.075 52.5745L121.056 52.4335C121.354 52.4756 121.386 52.4865 121.686 52.38Z" fill="#FEFEFF"/>
<path d="M120.637 42.3037C120.982 42.5798 121.092 42.6011 121.506 42.7256L121.628 42.761C121.974 43.4643 122.178 43.1513 122.272 43.465C121.666 43.555 121.751 43.9266 121.774 44.373L121.783 44.4867L121.72 44.5222C121.237 43.9418 121.25 43.7372 120.47 43.7443L120.359 43.7462L120.289 43.6699C120.719 43.1268 120.638 43.0084 120.637 42.3037Z" fill="#FEFEFF"/>
<path d="M128.565 50.3125C129.281 51.1125 128.645 51.0313 130.012 51.2082C129.137 51.6622 129.416 51.6308 128.843 52.2163L128.473 52.0459L128.394 52.0347C127.976 51.6201 128.102 51.6992 127.534 51.7776L127.531 51.6549C127.68 51.5655 127.703 51.5405 127.837 51.4302L127.735 51.262C127.731 51.019 128.134 50.9375 128.309 50.7752C128.309 50.7752 128.546 50.3484 128.565 50.3125Z" fill="#FEFEFF"/>
<path d="M118.659 53.0215C119.05 53.6638 119.2 53.7528 119.875 54.0521C119.17 54.4029 119.061 54.3445 118.971 55.1686L118.883 55.0631C118.538 54.4629 118.469 54.3754 117.755 54.3187L117.666 54.312L117.664 54.2189C117.857 54.0363 117.987 53.9459 118.084 53.6981C118 53.4711 117.962 53.4064 117.938 53.1635C118.195 53.2628 118.179 53.2621 118.453 53.2653L118.659 53.0215Z" fill="#FEFEFF"/>
<path d="M124.662 51.3242C125.038 51.6359 125.08 51.5517 125.443 51.7545C125.648 51.8693 126.075 52.2246 126.276 52.3861C125.739 52.567 125.709 52.4066 125.514 52.9986L125.576 53.1436L125.498 53.1959C125.322 53.0389 125.175 52.9106 124.987 52.7645C124.689 52.7631 124.42 52.8204 124.219 52.5954C124.216 52.1395 124.628 52.0172 124.662 51.3242Z" fill="#FEFEFF"/>
<path d="M111.685 43.9531C112.264 44.3779 112.698 44.6852 113.309 45.0568C113.276 45.076 113.242 45.0953 113.209 45.1145L113.07 45.1976C112.506 45.5312 112.586 45.7246 112.548 46.3427L112.055 45.4491C111.795 45.4126 111.408 45.3915 111.211 45.2496C111.541 44.6833 111.634 44.8068 111.678 44.0833L111.685 43.9531Z" fill="#FEFEFF"/>
<path d="M119.668 55.9258C119.928 56.2446 120.279 56.7278 120.647 56.8823C120.816 56.9536 120.808 56.9445 120.948 57.0558C120.399 57.4126 120.358 57.3744 120.215 58.0156C119.423 57.2665 119.412 57.7548 118.906 57.4282C118.984 57.0824 118.987 57.0495 119.156 56.7445C119.669 56.4959 119.573 56.4826 119.668 55.9258Z" fill="#FEFEFF"/>
<path d="M124.464 58.3945C124.659 58.4151 124.761 58.7838 125.058 59.0594C125.27 58.9769 125.288 58.9532 125.511 58.9456L125.574 59.0902C125.221 59.6378 125.013 58.991 124.859 60.0525L124.698 60.1568C124.391 59.9823 124.177 59.6414 123.829 59.6278C123.627 59.62 123.56 59.5689 123.394 59.4559L123.385 59.539L123.367 59.4887C123.593 59.3288 123.687 59.2844 123.84 59.0491L123.736 58.6559C124.005 58.4185 123.934 58.7904 124.464 58.3945Z" fill="#FEFEFF"/>
<path d="M123.344 55.376C123.717 55.8354 123.223 55.761 124.114 56.213L124.14 56.2924C123.5 56.6385 123.61 56.5496 123.574 57.2567L123.499 57.2645L122.98 56.7382C122.663 56.6956 122.105 56.7138 121.766 56.7133C121.969 56.5838 122.14 56.4565 122.333 56.3145C122.496 56.0234 122.494 55.9534 122.496 55.6188C123.101 55.5969 122.894 55.6764 123.344 55.376Z" fill="#FEFEFF"/>
<path d="M119.073 46.126C119.618 46.7389 119.958 46.6903 120.33 47.0758C119.84 47.5535 119.801 47.5341 119.587 48.1905L119.544 48.3237C119.278 48.0592 119.375 47.7535 118.958 47.4955C118.714 47.5577 118.69 47.5995 118.469 47.5404C118.578 47.3627 118.575 47.3424 118.635 47.1396L118.509 46.929C118.639 46.5695 118.76 46.9095 119.073 46.126Z" fill="#FEFEFF"/>
<path d="M129.458 44.1387C129.579 44.3608 129.622 44.4989 129.704 44.7336C129.904 44.9609 130.074 44.9733 130.371 45.0612L130.494 45.0965L130.509 45.1866C129.236 45.6012 129.928 45.5319 129.606 45.929L129.348 45.8014C128.731 45.5283 128.427 45.4343 127.773 45.2496C128.176 45.1312 128.394 45.1419 128.71 44.8333C128.954 44.5961 129.203 44.3645 129.458 44.1387Z" fill="#FEFEFF"/>
<path d="M120.262 49.2744C120.269 49.2799 120.277 49.2855 120.285 49.2909C120.643 49.8542 121.103 49.9843 121.722 50.191C121.366 50.2838 121.274 50.2854 120.983 50.4933C120.773 50.7872 120.791 51.0955 120.755 51.4688C120.435 50.688 120.319 50.7021 119.553 50.4455C119.443 50.1388 119.782 50.2515 119.743 49.8477L119.623 49.7619L119.74 49.5686C119.968 49.4642 120.054 49.4064 120.262 49.2744Z" fill="#FEFEFF"/>
<path d="M113.366 40.1113C113.748 40.3679 113.781 40.218 114.152 40.3783C114.306 40.9134 114.398 40.9118 114.814 41.3394C114.449 41.7433 114.439 41.7704 114.38 42.3118C114.158 42.1179 114.138 41.8481 113.764 41.7081C113.562 41.6323 113.291 41.3847 113.133 41.2257C113.462 40.7689 113.499 40.6761 113.366 40.1113Z" fill="#FEFEFF"/>
<path d="M123.459 48.5234C124.226 48.8211 123.665 49.1804 125.144 49.3732C124.513 49.6658 124.273 49.6181 124.16 50.3085L124.061 50.2458C123.165 49.351 123.101 50.042 122.617 49.8854C122.81 49.6028 122.894 49.7161 123.003 49.3778C122.9 49.1982 122.902 49.2135 122.832 49.0193C123.288 48.8021 123.249 48.9642 123.459 48.5234Z" fill="#FEFEFF"/>
<path d="M113.806 50.3955C114.017 50.5977 114.141 50.9061 114.365 50.9896L114.498 50.832L114.597 50.8443C114.94 51.3284 114.988 51.4023 115.499 51.7156C114.942 51.9887 114.926 51.9783 114.733 52.4937L114.719 52.665C114.514 52.5686 114.301 52.1984 114.145 51.981C113.878 52.037 113.853 52.0786 113.609 52.0113C113.834 51.2099 113.93 51.3353 113.825 50.5381L113.806 50.3955Z" fill="#FEFEFF"/>
<path d="M110.733 40.5225C111.281 40.8727 111.417 41.3466 112.152 41.7211L112.172 41.8234C111.523 42.0076 111.637 41.9588 111.369 42.56L111.349 42.6631C110.86 42.263 111.154 42.1192 110.262 41.7311L110.188 41.6995L110.262 41.5744L110.237 41.7004C110.328 41.3846 110.594 41.0066 110.733 40.5225Z" fill="#FEFEFF"/>
<path d="M121.946 45.2852C122.191 45.5327 122.299 45.6911 122.618 45.7997L122.951 45.6039C123.052 45.7686 123.012 45.6807 122.958 45.9541C123.049 46.2131 123.109 46.1713 123.418 46.3533C123.544 46.6481 123.117 46.5844 122.95 46.982C122.942 47.0012 122.89 47.4207 122.883 47.4749C122.324 46.4926 122.085 46.7551 121.07 47.0231C121.367 46.8479 121.773 46.6619 121.94 46.3803L121.645 46.1851L121.641 46.0264L121.932 45.9368C122.083 45.6821 122.009 45.671 121.946 45.2852Z" fill="#FEFEFF"/>
<path d="M112.8 47.2529C113.13 47.5357 113.992 47.9163 114.205 48.325C114.16 48.5746 113.792 49.0278 113.647 49.3747L113.562 49.4791C113.272 49.0198 113.059 48.6645 112.517 48.5396L112.492 48.4485C112.899 47.9493 112.946 47.9895 112.821 47.3566L112.8 47.2529Z" fill="#FEFEFF"/>
<path d="M109.925 47.7363C110.164 47.8714 111.411 48.7598 111.503 48.9683L111.442 49.1059C111.095 49.2634 111.001 49.2724 110.795 49.5907C110.829 49.7922 110.851 49.7095 110.777 49.8466C110.1 49.0655 110.386 49.3217 109.555 49.1107C109.663 48.8969 109.832 48.7657 110.009 48.5881C109.934 48.2007 109.92 48.1263 109.925 47.7363Z" fill="#FEFEFF"/>
<path d="M115.768 46.7197C116.443 47.0672 116.666 47.4288 117.487 47.8149C117.183 47.9039 117.058 47.9338 116.779 48.0755C116.582 48.4069 116.652 48.4246 116.641 48.8731C116.04 47.891 115.948 47.9965 114.914 48.2602C115.638 47.6251 115.698 47.6611 115.768 46.7197Z" fill="#FEFEFF"/>
<path d="M123.594 41.8887C124.052 42.0217 124.504 42.0039 124.779 42.1118L124.836 42.3405C125.074 42.5245 125.759 42.462 126.111 42.4618L126.13 42.5262L126.414 42.4905C126.038 42.5323 125.66 42.5577 125.297 42.6589L125.288 42.8542C125.22 43.0849 125.121 43.1313 124.932 43.2837L124.862 43.3395L124.818 43.7243C124.686 43.4496 124.69 43.4253 124.472 43.1986C124.18 43.1395 124.044 43.1661 123.752 43.1896C123.7 42.4842 124.194 42.9976 123.594 41.8887Z" fill="#FEFEFF"/>
<path d="M118.723 35.874C119.147 36.397 119.285 36.4863 119.832 36.8857L119.843 37.0045C119.508 37.3077 119.403 37.4159 119.184 37.8086L119.124 37.924L118.974 37.8952C118.641 37.5887 118.266 37.3303 118.227 36.8876C118.642 36.4659 118.692 36.4721 118.723 35.874Z" fill="#FEFEFF"/>
<path d="M109.346 36.8701C109.674 37.0849 110.508 37.9155 110.695 38.2682L110.595 38.4674C110.233 38.6599 110.177 38.7105 110.006 39.0839L109.972 39.2071L109.89 39.2339C109.873 39.1573 109.855 39.081 109.836 39.0048C109.621 38.1707 109.306 38.5452 109 38.067C109.557 37.6067 109.396 37.575 109.346 36.8701Z" fill="#FEFEFF"/>
<path d="M115.512 36.2051C115.617 36.2931 116.777 37.6984 116.823 37.7877C116.581 37.9512 116.341 38.0797 116.087 38.2214L116.024 38.2295C115.795 37.3741 115.221 37.8367 114.945 37.5886C114.972 37.4239 115.369 36.8394 115.486 36.3215L115.512 36.2051Z" fill="#FEFEFF"/>
<path d="M118.019 43.1377C118.402 43.5848 118.86 43.806 119.118 44.1465L119.091 44.1475L119.124 44.0847L119.187 44.1404C118.83 44.1703 118.737 44.2087 118.54 44.5096C118.534 44.7591 118.567 44.9667 118.419 45.1506C118.136 44.7985 117.931 44.4983 117.47 44.4417L117.367 44.5263L117.388 44.4379L117.413 44.4843C117.509 44.3384 117.552 44.1603 117.61 43.9887L117.461 43.821C117.445 43.413 117.69 43.9642 118.019 43.1377Z" fill="#FEFEFF"/>
<path d="M115.037 53.9688C115.076 53.9844 115.176 54.0262 115.206 54.0272C115.615 54.0403 115.959 54.3326 116.327 54.572C116.579 55.0853 116.151 54.7917 115.876 55.6308L115.869 55.7385C115.348 55.392 115.716 55.4532 114.891 55.1534L114.758 55.1055C114.993 54.3278 115.118 54.7409 115.037 53.9688Z" fill="#FEFEFF"/>
<path d="M110.838 51.1465C110.987 51.2077 111.254 51.3558 111.408 51.4345C111.571 51.3436 111.514 51.3582 111.692 51.3227C111.899 51.8658 111.942 51.9458 112.43 52.2877C112.23 52.7438 112.221 52.2313 111.837 52.9308L111.831 53.1718L111.781 53.1108C111.353 52.6017 111.288 52.7448 110.747 52.4251L110.727 52.2936L111.062 52.0323C111.143 51.7898 110.948 51.4433 110.838 51.1465Z" fill="#FEFEFF"/>
<path d="M107.082 48.2549C107.573 48.5596 108.276 48.7356 108.434 49.4146C108.165 49.6907 108.088 49.7679 107.921 50.1108L107.869 50.1244C107.604 49.8013 107.166 49.585 106.797 49.3635C107.291 48.8471 107.231 48.9709 107.082 48.2549Z" fill="#FEFEFF"/>
<path d="M97.7422 57.1896C98.1686 56.372 98.6583 55.5176 99.1067 54.7061C100.803 56.0605 102.498 57.652 104.211 59.0564C107.14 61.4567 110.299 63.5629 113.641 65.3442C119.176 68.2791 125.892 70.3759 131.635 72.9708C133.622 73.8687 135.822 75.0579 137.717 76.1458C140.812 77.9349 143.696 80.0667 146.315 82.5009C146.966 83.0986 149.008 85.3408 149.406 85.58C149.021 86.3317 148.385 87.5117 147.879 88.1922C147.445 88.9674 147.047 89.6626 146.572 90.4177C146.315 90.9526 145.611 92.2083 145.266 92.6574C144.243 91.6364 143.208 90.5791 142.152 89.6061C136.344 84.2548 129.913 81.1464 122.582 78.3927C118.725 76.9439 114.515 75.3801 110.822 73.5567C105.075 70.7185 99.5905 66.6028 94.9609 62.151C95.2682 61.4659 95.8661 60.3206 96.3069 59.7276L97.7422 57.1896Z" fill="#FD7A3F"/>
<path d="M96.3069 59.7275C100.357 63.369 105.338 67.3035 110.13 69.8491C114.69 72.272 119.881 74.1988 124.708 76.0608C133.97 79.6332 139.689 83.2223 146.572 90.4176C146.315 90.9526 145.611 92.2083 145.266 92.6574C144.243 91.6363 143.208 90.5791 142.152 89.6061C136.344 84.2547 129.913 81.1464 122.582 78.3926C118.725 76.9439 114.515 75.3801 110.822 73.5566C105.075 70.7184 99.5905 66.6027 94.9609 62.151C95.2682 61.4658 95.8661 60.3206 96.3069 59.7275Z" fill="#FD7A3F"/>
<path d="M97.7322 57.1895C102.584 61.9928 107.938 66.0193 114.094 68.9983C120.633 72.1621 127.764 74.175 134.173 77.628C139.275 80.377 143.813 84.0711 147.869 88.192C147.435 88.9672 147.037 89.6624 146.562 90.4175C139.679 83.2222 133.96 79.6331 124.698 76.0606C119.871 74.1986 114.68 72.2719 110.12 69.849C105.328 67.3034 100.347 63.3688 96.2969 59.7274L97.7322 57.1895Z" fill="#FEFEFF"/>
<path d="M103.14 47.1934C106.855 50.7745 110.732 53.8252 115.111 56.5696C116.492 57.4351 118.232 58.1975 119.696 58.922C121.701 59.9139 123.732 60.8473 125.793 61.722C126.398 60.8811 126.793 60.1669 127.317 59.2791C128.7 59.7805 130.051 60.3992 131.406 60.9292C138.58 63.7344 146.003 67.3289 151.657 72.6813C153.006 73.9584 153.723 74.5809 154.899 76.0767C154.437 76.8952 153.934 77.8469 153.457 78.6401C153.068 79.3669 152.541 80.1361 152.194 80.8143C145.269 73.1093 137.784 69.4303 128.321 65.6137C124.39 64.0282 121.332 62.9524 117.53 61.0218C111.4 57.9085 106.881 54.2359 101.789 49.6854C102.216 48.8701 102.663 47.9733 103.14 47.1934Z" fill="#FEFEFF"/>
<path d="M127.313 59.2803C128.696 59.7817 130.048 60.4004 131.403 60.9304C138.576 63.7356 145.999 67.3301 151.653 72.6825C153.003 73.9597 153.72 74.5821 154.895 76.0779C154.433 76.8964 153.931 77.8481 153.453 78.6413C152.122 77.2448 150.862 76.0045 149.443 74.6969C143.787 69.4849 136.744 66.3023 129.699 63.4328C128.49 62.94 127.043 62.3562 125.88 61.7698L125.789 61.7232C126.394 60.8823 126.789 60.1681 127.313 59.2803Z" fill="#FD7A3F"/>
<path d="M100.363 52.3135C101.784 53.6518 103.267 54.8037 104.723 56.0484C108.273 59.0813 112.145 61.7574 116.346 63.7907C126.332 68.6238 137.237 71.2734 145.796 78.7492C147.306 80.0682 149.489 81.8032 150.607 83.4831C150.234 84.1404 149.742 84.9315 149.401 85.5798C149.003 85.3405 146.961 83.0984 146.31 82.5006C143.691 80.0665 140.807 77.9346 137.712 76.1455C135.817 75.0577 133.617 73.8684 131.63 72.9705C125.887 70.3757 119.171 68.2788 113.636 65.3439C110.294 63.5626 107.135 61.4565 104.206 59.0561C102.493 57.6517 100.798 56.0603 99.1016 54.7058L100.363 52.3135Z" fill="#FEFEFF"/>
<path d="M110.772 28.5859C111.305 28.7938 111.632 28.9428 112.199 29.0271C111.626 30.6702 110.876 31.9551 110.054 33.4812L107.571 38.0887C105.325 42.2716 103.28 46.3317 100.974 50.5324L82.1107 84.4498C79.0402 89.8645 76.0127 95.3032 73.0281 100.766L71.5703 100.012C72.3919 98.1302 73.8209 95.6682 74.8328 93.863L79.1818 86.0353L96.1687 55.6122C97.8572 52.5806 99.6849 49.3349 101.313 46.2928L106.361 36.7281C107.614 34.3993 109.41 30.6369 110.772 28.5859Z" fill="#FEFEFF"/>
<path d="M109.462 27.8662C109.853 27.8971 110.177 28.2062 110.507 28.4497C109.416 29.962 107.628 33.6716 106.65 35.4612L96.2554 54.8073L79.8596 84.1146L75.2134 92.4975C73.8569 94.9388 72.4979 97.3022 71.2882 99.8234C70.9463 99.6521 70.5914 99.4378 70.2578 99.2458C70.7593 98.229 71.5016 96.9979 72.0575 95.9553C74.0333 92.2794 76.0314 88.6153 78.0513 84.9634L97.7544 49.4065C100.33 44.6915 102.867 39.955 105.364 35.1977C106.159 33.6972 108.553 28.9753 109.462 27.8662Z" fill="#97979B"/>
<path d="M56.3272 28.6143C56.4978 28.7062 57.8905 31.2156 58.0738 31.5441L75.3567 63.1454L79.9596 71.6619C80.7429 73.1022 81.7805 74.8668 82.4571 76.3162C82.1686 76.7555 81.818 77.5557 81.5098 77.8867L81.3835 77.7862L73.751 63.9177C71.0062 58.7536 68.2265 53.6082 65.4122 48.4817L58.7936 36.4325C57.7032 34.4507 55.6752 30.9792 54.8359 28.9753C55.4541 28.8656 55.7321 28.8103 56.3272 28.6143Z" fill="#FEFEFF"/>
<path d="M57.5733 27.6406C58.0693 28.0275 61.4314 34.4909 61.9176 35.3784L73.1392 55.9695L78.8399 66.3373C79.7286 67.9629 80.6062 69.5945 81.4725 71.232C81.941 72.1122 82.8254 73.9318 83.4499 74.6359C83.1829 75.1027 82.9112 75.5668 82.6348 76.0279C81.6164 73.8488 80.0321 71.1455 78.8906 68.957C75.5876 62.6231 72.0065 56.3846 68.594 50.1157C65.9544 45.1524 63.2667 40.215 60.5313 35.3039C59.3082 33.0956 57.9733 30.4488 56.6172 28.3844C56.9375 28.1526 57.2612 27.8868 57.5733 27.6406Z" fill="#97979B"/>
<path d="M84.8711 80.126C85.0797 80.3676 85.7487 81.6876 85.9351 82.033L88.1203 86.0257L93.098 95.2675C93.8946 96.7477 94.9381 98.4971 95.6371 99.9863L94.4389 100.908L94.3335 100.948C94.0129 100.74 93.5777 99.8247 93.3977 99.4653C90.4453 93.5695 86.7934 87.8131 83.9219 81.8959C84.2344 81.2495 84.5108 80.7489 84.8711 80.126Z" fill="#FEFEFF"/>
<path d="M85.7492 78.6006C85.9587 78.8008 87.3104 81.3723 87.5644 81.839C89.5185 85.3951 91.4456 88.9662 93.3453 92.5519C94.4819 94.6684 95.8964 97.0519 96.94 99.17C96.6792 99.3205 96.3834 99.5195 96.1251 99.6833C96.0587 99.7525 96.1086 99.7129 95.9443 99.7453C95.6787 99.4308 95.4687 98.848 95.2527 98.4512L92.8699 94.0871C90.2988 89.2844 87.6963 84.4986 85.0625 79.7299C85.2899 79.3778 85.5293 78.9629 85.7492 78.6006Z" fill="#97979B"/>
<path d="M111.422 24.1844C111.885 24.1578 112.227 24.1414 112.666 24.3181C113.268 24.5617 113.744 25.0413 113.983 25.645C114.586 27.1585 113.712 28.2632 112.292 28.7247C109.314 28.4555 108.206 25.2299 111.422 24.1844Z" fill="#FEFEFF"/>
<path d="M54.913 24.1782C58.1325 23.9643 58.7208 27.519 55.742 28.5703C54.6279 28.743 53.6112 28.4466 53.1764 27.306C52.9502 26.7014 52.9898 26.0293 53.2851 25.4552C53.6569 24.7279 54.1769 24.4314 54.913 24.1782Z" fill="#FEFEFF"/>
</g>
<defs>
<clipPath id="clip0_7125_9548">
<rect width="167" height="105" fill="white" transform="translate(0.5 10)"/>
</clipPath>
</defs>
</svg>
