<svg width="124" height="124" viewBox="0 0 124 124" fill="none" xmlns="http://www.w3.org/2000/svg">
<g clip-path="url(#clip0_7125_9547)">
<path d="M35.2308 106.119C34.4858 105.823 33.775 105.359 33.0717 104.975C29.9917 103.292 27.5327 101.74 24.8148 99.4786C14.0222 90.4998 7.47282 77.0557 6.1989 63.1519C6.15574 62.7086 6.11808 62.2649 6.08592 61.8207C6.05376 61.3764 6.02712 60.9319 6.00598 60.4869C5.98486 60.0421 5.96925 59.597 5.95915 59.1517C5.94906 58.7064 5.94449 58.2611 5.94544 57.8157C5.94639 57.3703 5.95286 56.925 5.96485 56.4798C5.97685 56.0346 5.99436 55.5895 6.01739 55.1447C6.04042 54.6999 6.06896 54.2555 6.10301 53.8114C6.13706 53.3674 6.17661 52.9237 6.22166 52.4806C6.26671 52.0375 6.31725 51.595 6.37327 51.1532C6.4293 50.7114 6.49079 50.2703 6.55776 49.8299C6.62472 49.3896 6.69713 48.9502 6.77498 48.5116C6.85285 48.0731 6.93614 47.6356 7.02485 47.1991C7.11356 46.7627 7.20766 46.3274 7.30717 45.8932C7.40667 45.459 7.51154 45.0262 7.62178 44.5947C7.73203 44.1632 7.8476 43.7331 7.9685 43.3044C8.08941 42.8757 8.21561 42.4486 8.34711 42.0231C8.4786 41.5976 8.61535 41.1737 8.75736 40.7516C8.89937 40.3294 9.04659 39.9091 9.19902 39.4906C9.35146 39.0721 9.50905 38.6555 9.67181 38.2409C9.83457 37.8264 10.0024 37.4139 10.1754 37.0034C10.3484 36.593 10.5265 36.1848 10.7096 35.7788C10.8927 35.3728 11.0808 34.9691 11.2739 34.5677C11.467 34.1664 11.6651 33.7675 11.8682 33.3711C12.0712 32.9747 12.2791 32.5808 12.4918 32.1896C12.7047 31.7982 12.9223 31.4097 13.1447 31.0238C13.3671 30.6379 13.5943 30.2548 13.8262 29.8746C14.0581 29.4943 14.2947 29.117 14.536 28.7427C14.7772 28.3683 15.0231 27.9969 15.2736 27.6287C15.5241 27.2604 15.7791 26.8952 16.0386 26.5333C16.2982 26.1713 16.5622 25.8126 16.8306 25.4572C17.099 25.1018 17.3718 24.7498 17.649 24.4012C17.9261 24.0525 18.2076 23.7074 18.4933 23.3657C18.7883 23.0164 19.0876 22.6709 19.391 22.3289C19.6944 21.987 20.0019 21.6489 20.3136 21.3144C20.6253 20.98 20.9411 20.6495 21.2608 20.3228C21.5806 19.9962 21.9043 19.6734 22.232 19.3547C22.5596 19.0359 22.8911 18.7211 23.2265 18.4104C23.5619 18.0998 23.901 17.7933 24.2438 17.4909C24.5867 17.1885 24.9332 16.8904 25.2833 16.5964C25.6334 16.3025 25.9871 16.0129 26.3443 15.7277C26.7015 15.4424 27.0621 15.1615 27.4262 14.8851C27.7903 14.6086 28.1577 14.3366 28.5285 14.0692C28.8991 13.8017 29.2731 13.5388 29.6502 13.2804C30.0274 13.0221 30.4076 12.7684 30.791 12.5193C31.1743 12.2703 31.5606 12.026 31.95 11.7864C32.3393 11.5468 32.7315 11.3119 33.1266 11.0819C33.5216 10.8519 33.9194 10.6268 34.32 10.4065C34.7206 10.1862 35.1238 9.97085 35.5296 9.76041C35.9354 9.54998 36.3438 9.34453 36.7546 9.14407C37.1654 8.94361 37.5787 8.7482 37.9944 8.55785C38.4099 8.36749 38.8278 8.18224 39.248 8.0021C39.6681 7.82196 40.0904 7.64697 40.5149 7.47715C40.9393 7.30733 41.3657 7.14272 41.7941 6.98332C42.2226 6.82392 42.653 6.66978 43.0852 6.5209C43.5174 6.37201 43.9514 6.22843 44.3871 6.09016C44.8228 5.95189 45.2602 5.81896 45.6991 5.69137C46.1381 5.56379 46.5786 5.44159 47.0206 5.32477C47.4625 5.20796 47.9058 5.09656 48.3506 4.99057C48.7953 4.88459 49.2411 4.78406 49.6882 4.68897C50.1354 4.59388 50.5836 4.50427 51.033 4.42015C51.4823 4.33601 51.9326 4.25739 52.3839 4.18427C52.8351 4.11115 53.2872 4.04355 53.7401 3.98147C54.193 3.9194 54.6466 3.86287 55.101 3.81188C55.5552 3.76089 56.0101 3.71546 56.4655 3.6756C56.9777 3.63199 57.4905 3.59537 58.0037 3.56573C58.517 3.5361 59.0306 3.51347 59.5445 3.49785C60.0583 3.48221 60.5723 3.47358 61.0863 3.47196C61.6005 3.47034 62.1146 3.47573 62.6285 3.48812C63.1425 3.50051 63.6562 3.5199 64.1696 3.5463C64.683 3.57269 65.196 3.60607 65.7085 3.64645C66.2211 3.68683 66.7329 3.73418 67.2441 3.78851C67.7553 3.84284 68.2658 3.90413 68.7753 3.97237C69.2849 4.04062 69.7935 4.1158 70.301 4.1979C70.8085 4.28001 71.3148 4.36901 71.8198 4.46492C72.3249 4.56083 72.8286 4.6636 73.3308 4.77323C73.8332 4.88288 74.3339 4.99934 74.833 5.12262C75.3321 5.24591 75.8294 5.37597 76.325 5.51281C76.8205 5.64966 77.3142 5.79323 77.8058 5.94352C78.2974 6.09382 78.7869 6.25079 79.2743 6.41443C79.7617 6.57808 80.2467 6.74833 80.7295 6.9252C81.7665 7.30615 83.5426 7.81877 84.3562 8.49906C87.4991 7.14835 90.2967 7.28882 93.4585 8.54352C102.276 12.0427 109.104 22.7132 112.675 31.0582C113.416 32.7831 114.09 34.5336 114.699 36.3097C115.307 38.0858 115.847 39.8823 116.319 41.6993C119.134 52.8023 119.872 67.5531 115.537 78.3692C113.936 82.3657 111.344 86.2804 107.246 88.0162C105.713 88.6654 104.178 88.9309 102.517 88.9354C101.992 90.1827 100.789 91.3214 99.8891 92.3221C94.6097 98.1922 87.5737 103.436 80.2488 106.409C76.7738 107.82 73.0781 108.927 69.3837 109.571C68.7002 109.69 68.0163 109.8 67.3247 109.859C66.6107 109.92 65.7515 109.881 65.0685 110.075L67.7307 117.036C68.099 118.014 68.5781 119.033 68.8391 120.04C68.911 120.317 68.9931 120.593 68.8675 120.865C68.7542 121.111 68.5672 121.284 68.3086 121.367C67.492 121.629 62.3545 121.482 61.0511 121.482L43.8357 121.474C43.4643 121.476 43.1085 121.456 42.7571 121.324C42.3028 121.154 41.9698 120.86 41.7081 120.456C41.046 119.433 40.4557 117.76 39.9355 116.604C38.3643 113.113 36.8927 109.568 35.2308 106.119Z" fill="black"/>
<path d="M35.2308 106.119C34.4858 105.823 33.775 105.359 33.0717 104.975C29.9917 103.292 27.5327 101.74 24.8148 99.4786C14.0222 90.4998 7.47282 77.0557 6.1989 63.1519C6.15574 62.7086 6.11808 62.2649 6.08592 61.8207C6.05376 61.3764 6.02712 60.9319 6.00598 60.4869C5.98486 60.0421 5.96925 59.597 5.95915 59.1517C5.94906 58.7064 5.94449 58.2611 5.94544 57.8157C5.94639 57.3703 5.95286 56.925 5.96485 56.4798C5.97685 56.0346 5.99436 55.5895 6.01739 55.1447C6.04042 54.6999 6.06896 54.2555 6.10301 53.8114C6.13706 53.3674 6.17661 52.9237 6.22166 52.4806C6.26671 52.0375 6.31725 51.595 6.37327 51.1532C6.4293 50.7114 6.49079 50.2703 6.55776 49.8299C6.62472 49.3896 6.69713 48.9502 6.77498 48.5116C6.85285 48.0731 6.93614 47.6356 7.02485 47.1991C7.11356 46.7627 7.20766 46.3274 7.30717 45.8932C7.40667 45.459 7.51154 45.0262 7.62178 44.5947C7.73203 44.1632 7.8476 43.7331 7.9685 43.3044C8.08941 42.8757 8.21561 42.4486 8.34711 42.0231C8.4786 41.5976 8.61535 41.1737 8.75736 40.7516C8.89937 40.3294 9.04659 39.9091 9.19902 39.4906C9.35146 39.0721 9.50905 38.6555 9.67181 38.2409C9.83457 37.8264 10.0024 37.4139 10.1754 37.0034C10.3484 36.593 10.5265 36.1848 10.7096 35.7788C10.8927 35.3728 11.0808 34.9691 11.2739 34.5677C11.467 34.1664 11.6651 33.7675 11.8682 33.3711C12.0712 32.9747 12.2791 32.5808 12.4918 32.1896C12.7047 31.7982 12.9223 31.4097 13.1447 31.0238C13.3671 30.6379 13.5943 30.2548 13.8262 29.8746C14.0581 29.4943 14.2947 29.117 14.536 28.7427C14.7772 28.3683 15.0231 27.9969 15.2736 27.6287C15.5241 27.2604 15.7791 26.8952 16.0386 26.5333C16.2982 26.1713 16.5622 25.8126 16.8306 25.4572C17.099 25.1018 17.3718 24.7498 17.649 24.4012C17.9261 24.0525 18.2076 23.7074 18.4933 23.3657C18.7883 23.0164 19.0876 22.6709 19.391 22.3289C19.6944 21.987 20.0019 21.6489 20.3136 21.3144C20.6253 20.98 20.9411 20.6495 21.2608 20.3228C21.5806 19.9962 21.9043 19.6734 22.232 19.3547C22.5596 19.0359 22.8911 18.7211 23.2265 18.4104C23.5619 18.0998 23.901 17.7933 24.2438 17.4909C24.5867 17.1885 24.9332 16.8904 25.2833 16.5964C25.6334 16.3025 25.9871 16.0129 26.3443 15.7277C26.7015 15.4424 27.0621 15.1615 27.4262 14.8851C27.7903 14.6086 28.1577 14.3366 28.5285 14.0692C28.8991 13.8017 29.2731 13.5388 29.6502 13.2804C30.0274 13.0221 30.4076 12.7684 30.791 12.5193C31.1743 12.2703 31.5606 12.026 31.95 11.7864C32.3393 11.5468 32.7315 11.3119 33.1266 11.0819C33.5216 10.8519 33.9194 10.6268 34.32 10.4065C34.7206 10.1862 35.1238 9.97085 35.5296 9.76041C35.9354 9.54998 36.3438 9.34453 36.7546 9.14407C37.1654 8.94361 37.5787 8.7482 37.9943 8.55785C38.4099 8.36749 38.8278 8.18224 39.248 8.0021C39.6681 7.82196 40.0904 7.64697 40.5148 7.47715C40.9393 7.30733 41.3657 7.14272 41.7941 6.98332C42.2226 6.82392 42.653 6.66978 43.0852 6.5209C43.5174 6.37201 43.9513 6.22843 44.3871 6.09016C44.8228 5.95189 45.2602 5.81896 45.6991 5.69137C46.1381 5.56379 46.5786 5.44159 47.0206 5.32477C47.4625 5.20796 47.9058 5.09656 48.3506 4.99057C48.7953 4.88459 49.2411 4.78406 49.6882 4.68897C50.1354 4.59388 50.5836 4.50427 51.033 4.42015C51.4823 4.33601 51.9326 4.25739 52.3838 4.18427C52.8351 4.11115 53.2872 4.04355 53.7401 3.98147C54.193 3.9194 54.6466 3.86287 55.101 3.81188C55.5552 3.76089 56.0101 3.71546 56.4655 3.6756C56.9777 3.63199 57.4905 3.59537 58.0037 3.56573C58.517 3.5361 59.0306 3.51347 59.5445 3.49785C60.0583 3.48221 60.5723 3.47358 61.0863 3.47196C61.6005 3.47034 62.1146 3.47573 62.6285 3.48812C63.1425 3.50051 63.6562 3.5199 64.1696 3.5463C64.683 3.57269 65.196 3.60607 65.7085 3.64645C66.2211 3.68683 66.7329 3.73418 67.2441 3.78851C67.7553 3.84284 68.2658 3.90413 68.7753 3.97237C69.2849 4.04062 69.7935 4.1158 70.301 4.1979C70.8085 4.28001 71.3148 4.36901 71.8198 4.46492C72.3249 4.56083 72.8286 4.6636 73.3308 4.77323C73.8332 4.88288 74.3339 4.99934 74.833 5.12262C75.332 5.24591 75.8294 5.37597 76.325 5.51281C76.8205 5.64966 77.3142 5.79323 77.8058 5.94352C78.2974 6.09382 78.7869 6.25079 79.2743 6.41443C79.7617 6.57808 80.2467 6.74833 80.7295 6.9252C81.7665 7.30615 83.5426 7.81877 84.3562 8.49906C83.2477 9.03842 82.2996 9.80053 81.1376 10.2318C78.3545 11.3437 76.7052 13.9734 75.2091 16.4222C74.9775 16.8013 74.5932 17.1658 74.4092 17.5573C73.0268 19.2222 71.7613 21.0079 70.4466 22.7288L60.2086 36.2392C59.6291 36.9909 58.2283 39.1594 57.6463 39.5826C57.1002 39.9797 54.7368 40.7851 53.9987 41.0808L45.0165 44.7274C43.0013 45.5755 40.9782 46.4042 38.9471 47.2136C38.1961 47.5194 36.8682 48.2408 36.1091 48.3041C35.0292 48.3939 33.9071 48.2965 32.8215 48.3006L24.7246 48.3041C23.0638 48.3043 21.2666 48.1491 19.6601 48.6176C18.3915 48.9877 17.2056 49.8102 16.3292 50.7893C16.1603 50.9794 16.0016 51.1776 15.853 51.3839C15.7045 51.5903 15.5669 51.8037 15.4402 52.0242C15.3136 52.2446 15.1986 52.471 15.0952 52.7033C14.9918 52.9356 14.9006 53.1725 14.8215 53.4142C14.5053 54.4119 14.3757 55.4877 14.1845 56.5167C13.8707 58.1213 13.5654 59.7275 13.2685 61.3353C12.6981 64.1962 12.1484 67.0611 11.6196 69.9298C11.4114 71.0452 10.9255 72.8327 10.9979 73.9181C11.0191 74.2358 11.0784 74.446 11.3222 74.6645C11.8626 75.1492 12.7653 75.0399 13.4365 75.0034C13.4422 75.0262 13.4498 75.0487 13.4538 75.0719C13.5471 75.6136 13.1333 76.7742 13.5805 77.1641C13.9635 77.4982 14.8002 77.4047 15.2747 77.3941C15.6136 78.6909 15.8581 80.0033 16.2705 81.2822C17.4098 84.8152 19.7411 88.8989 23.0033 90.81C25.0662 92.0182 26.2897 91.5006 28.4611 91.0428C29.9541 93.9234 31.218 96.9849 32.5183 99.9598C33.4157 102.013 34.3991 104.039 35.2308 106.119Z" fill="#D4E3F9"/>
<path d="M55.7266 85.7257C56.4728 85.3734 59.7938 84.8767 60.8473 84.6554C62.6505 84.2724 64.4567 83.9044 66.2659 83.5514C67.1627 83.3739 68.1302 83.0977 69.0411 83.0771C69.8766 83.0582 70.8037 83.3408 71.6253 83.5023L75.8117 84.3174L90.9842 87.1973C93.8553 87.7443 96.7256 88.3143 99.6283 88.6706C100.576 88.7869 101.566 88.9331 102.522 88.9356C101.997 90.1828 100.793 91.3216 99.8932 92.3222C94.6138 98.1923 87.5778 103.436 80.2529 106.409C76.7779 107.82 73.0822 108.927 69.3878 109.571C68.7043 109.69 68.0204 109.8 67.3288 109.859C66.6148 109.92 65.7556 109.882 65.0726 110.075L60.4822 98.2323C59.3811 95.4536 58.3139 92.6619 57.2804 89.8572C56.7646 88.4847 56.1826 87.1182 55.7266 85.7257Z" fill="#D4E3F9"/>
<path d="M13.6938 74.6803C13.0559 74.6959 12.0612 74.8403 11.5568 74.3881C11.3758 74.2258 11.3347 74.0856 11.3292 73.8453C11.3026 72.7012 11.7887 70.7549 12.0096 69.5784L13.7458 60.5911L14.5617 56.2941C14.7389 55.3351 14.8642 54.3234 15.1781 53.3997C15.2218 53.2726 15.2692 53.1469 15.3202 53.0226C15.3712 52.8982 15.4258 52.7754 15.4839 52.6542C15.542 52.5329 15.6036 52.4135 15.6686 52.2958C15.7335 52.1782 15.8018 52.0625 15.8734 51.9488C15.9451 51.8351 16.02 51.7235 16.0981 51.6141C16.1761 51.5047 16.2573 51.3977 16.3417 51.2929C16.4259 51.1882 16.5131 51.086 16.6033 50.9863C16.6935 50.8867 16.7864 50.7897 16.8822 50.6953C17.9276 49.6524 19.2629 48.9307 20.7336 48.7152C22.3379 48.4801 24.1979 48.6231 25.8312 48.6239C29.1753 48.6152 32.5194 48.6237 35.8634 48.6493L72.9911 48.7498L96.8804 48.8261C101.974 48.8254 107.072 48.8818 112.165 48.8259C112.451 48.8323 112.753 48.8046 112.961 49.0397C113.185 49.2928 113.144 49.6596 113.091 49.9649C111.625 58.2258 110.066 66.4692 108.416 74.6952L13.6938 74.6803Z" fill="#FAFAFA"/>
<path d="M94.7955 57.8891C95.3995 57.8331 96.0279 57.8421 96.5732 58.1433C97.0805 58.4236 97.4018 58.9171 97.5613 59.4646C97.8528 60.4645 97.8443 63.1643 97.3284 64.0938C96.9872 64.7087 96.4448 65.002 95.7874 65.182C95.2292 65.2167 94.6907 65.2056 94.1709 64.9651C93.6219 64.7112 93.2458 64.2456 93.0622 63.6741C92.7408 62.674 92.7464 59.8976 93.2655 58.9692C93.6129 58.3481 94.1362 58.073 94.7955 57.8891Z" fill="black"/>
<path d="M95.0415 58.4561C95.4658 58.4376 95.9186 58.4614 96.2884 58.6929C96.6741 58.9344 96.887 59.3304 96.9874 59.7648C97.1875 60.6306 97.2125 63.1415 96.7335 63.8996C96.4483 64.351 96.0798 64.5149 95.5759 64.6271C95.1476 64.6415 94.7151 64.609 94.3363 64.3903C93.9164 64.1478 93.6806 63.7304 93.5739 63.2676C93.3726 62.3953 93.3434 59.9108 93.8404 59.1636C94.1346 58.7215 94.5423 58.563 95.0415 58.4561Z" fill="#FAFAFA"/>
<path d="M83.1961 57.834C83.6912 57.8376 84.2133 57.9339 84.6327 58.2081C85.1608 58.5535 85.4547 59.1211 85.5814 59.7261C85.8213 60.8704 85.8428 63.3497 85.1741 64.3202C84.7896 64.8784 84.2271 65.1016 83.5801 65.2074C82.9408 65.1969 82.3379 65.1677 81.8036 64.7636C81.2904 64.3757 81.0747 63.7811 80.9831 63.1654C80.8208 62.0745 80.7787 59.5331 81.4633 58.6529C81.9016 58.0895 82.5209 57.9169 83.1961 57.834Z" fill="black"/>
<path d="M83.0538 58.4486C83.4143 58.4387 83.7873 58.4821 84.1121 58.6488C84.5535 58.8753 84.8116 59.2991 84.9378 59.7667C85.1678 60.6198 85.1881 63.1558 84.7234 63.9062C84.461 64.33 84.1029 64.4957 83.6296 64.5941C83.2153 64.6205 82.784 64.624 82.4036 64.433C82.0111 64.2358 81.7805 63.8835 81.6638 63.4685C81.4226 62.6117 81.4131 59.9126 81.8718 59.1741C82.1514 58.724 82.5576 58.561 83.0538 58.4486Z" fill="#FAFAFA"/>
<path d="M36.1339 57.9633C36.9864 57.9438 37.9955 57.8291 38.8165 58.0774C39.3324 58.2334 39.7772 58.5723 40.01 59.0643C40.2595 59.5911 40.2712 60.2446 40.0602 60.7858C39.8104 61.4264 39.3703 61.7239 38.7698 61.9829C39.14 62.6124 40.2648 64.2479 40.3712 64.8648C40.3973 65.0168 40.3885 65.0858 40.2963 65.206C40.2548 65.202 40.2119 65.2055 40.1718 65.1943C39.806 65.0908 39.6063 64.6469 39.4399 64.345C39.0028 63.5815 38.5609 62.8209 38.1142 62.063L36.5137 62.0599C36.5147 62.6786 36.6802 64.6446 36.3378 65.0991C36.1705 65.1381 36.1639 65.1223 36.0063 65.0478C35.9685 64.993 35.9198 64.9444 35.8932 64.8835C35.8308 64.7409 35.813 58.712 35.872 58.286C35.8945 58.1231 36.0129 58.055 36.1339 57.9633Z" fill="url(#paint0_linear_7125_9547)"/>
<path d="M36.5 58.5629C37.2408 58.5489 38.3601 58.3968 38.9954 58.8252C39.3121 59.0388 39.4888 59.4001 39.5494 59.7698C39.63 60.2607 39.4627 60.7107 39.1857 61.1079C38.4081 61.6788 37.4126 61.5622 36.5026 61.5498L36.5 58.5629Z" fill="#FAFAFA"/>
<path d="M100.752 64.2476C101.184 62.8708 101.486 61.4265 101.84 60.0272C101.987 59.4467 102.091 58.7828 102.348 58.2423C102.433 58.0628 102.525 57.8721 102.72 57.7988C102.93 57.9165 103.031 58.1966 103.107 58.4143C103.294 58.9563 103.386 59.5633 103.509 60.1238C103.825 61.5558 104.09 63.0473 104.569 64.4331C104.906 63.2623 105.875 58.5641 106.375 57.898C106.533 57.8402 106.521 57.8497 106.675 57.921C106.794 58.0937 106.794 58.1166 106.798 58.3276C106.548 59.422 106.193 60.5057 105.897 61.5895C105.625 62.5825 105.405 63.6317 105.06 64.5996C104.981 64.821 104.874 65.0226 104.636 65.1076C104.518 65.1499 104.355 65.1399 104.252 65.0629C103.857 64.7659 102.901 59.9377 102.691 59.0253C102.452 59.9083 101.363 64.6903 100.962 65.019C100.824 65.1316 100.784 65.1228 100.618 65.1093C100.526 65.047 100.453 64.994 100.387 64.9011C100.112 64.508 98.7161 59.2122 98.5747 58.3907C98.5416 58.1982 98.5528 58.0258 98.5845 57.8344C98.7076 57.8426 98.8016 57.8492 98.9176 57.8967C99.0263 57.9413 99.0548 57.9963 99.1088 58.1027C99.3175 58.5137 99.4003 59.0867 99.5123 59.5332C99.8496 60.8775 100.26 63.0642 100.752 64.2476Z" fill="black"/>
<path d="M20.5311 59.943C20.5888 59.5171 20.6228 59.0724 20.7095 58.6519C20.769 58.3631 20.8614 58.0429 21.1191 57.8809L21.2181 57.981C21.3993 58.6047 21.2256 59.3181 21.1384 59.9506L22.5632 59.9507C22.6314 59.5123 22.7029 59.0744 22.7778 58.6371C22.8032 58.3759 22.7983 58.107 23.0203 57.9292C23.0415 57.9124 23.0652 57.8989 23.0876 57.8837C23.2322 57.9264 23.2871 57.9896 23.3497 58.1304C23.4608 58.3805 23.365 58.7172 23.324 58.9786L23.1445 59.9504C23.3696 59.9519 23.6901 59.9169 23.8687 60.0732C23.9212 60.1191 23.9357 60.1516 23.9688 60.2074C23.9211 60.3352 23.8625 60.4177 23.7206 60.4574C23.531 60.5102 23.2922 60.4812 23.0977 60.4732L22.7675 62.2901C23.0562 62.2845 23.432 62.2209 23.6478 62.4524C23.6663 62.4722 23.6815 62.4951 23.6982 62.5165C23.6796 62.6669 23.6588 62.6959 23.5251 62.7894C23.3177 62.9342 22.9128 62.8652 22.6658 62.8656C22.5853 63.4216 22.527 64.6886 22.124 65.0787L21.9106 65.1231C21.703 64.4107 21.9816 63.561 22.1418 62.8539C21.6302 62.8527 21.1169 62.8424 20.6056 62.8512C20.5608 63.1675 20.5281 63.4924 20.4695 63.806C20.4163 64.1801 20.3926 64.6199 20.2042 64.9547C20.1253 65.0951 20.1023 65.1557 19.9382 65.2014C19.9127 65.1725 19.881 65.148 19.8617 65.1146C19.6338 64.7187 19.8818 63.871 19.9636 63.4369L20.0335 62.9376C19.885 62.8169 19.7776 62.8836 19.5968 62.8664C19.4255 62.8501 19.4097 62.8385 19.3021 62.717C19.2827 62.5359 19.2703 62.5375 19.3762 62.3919C19.6197 62.2829 19.8815 62.3027 20.1438 62.2982C20.2231 61.6912 20.3077 61.0887 20.4208 60.4866C20.1761 60.4864 19.8841 60.5195 19.689 60.3434C19.6141 60.2757 19.6342 60.249 19.6287 60.1566C19.6478 60.1351 19.6655 60.1122 19.686 60.0921C19.9135 59.8705 20.2396 59.9325 20.5311 59.943Z" fill="black"/>
<path d="M20.9829 60.4859L22.4797 60.4824L22.2252 62.3115L20.7188 62.3157C20.8431 61.7149 20.902 61.094 20.9829 60.4859Z" fill="#FAFAFA"/>
<path d="M73.6217 57.8623C73.7991 57.8886 73.8927 57.9147 74.0486 58.0133C74.3284 58.4882 75.9936 64.0076 76.1192 64.6588C76.1579 64.8593 76.1356 64.9706 76.0101 65.1369C75.9472 65.2203 75.9746 65.1967 75.8674 65.2053C75.4439 64.9624 75.1701 63.5876 75.0213 63.1209L73.9474 63.1249L72.4332 63.1247C72.2696 63.6309 72.0789 64.6616 71.7211 65.0392C71.6357 65.1293 71.5947 65.1028 71.4777 65.1092C71.3189 65.0257 71.3208 65.0331 71.2578 64.8659C71.3943 64.0407 71.7704 63.1903 72.0246 62.3876C72.4437 61.0638 72.8043 59.6732 73.3162 58.3839C73.3943 58.1872 73.4848 58.0241 73.6217 57.8623Z" fill="black"/>
<path d="M73.7663 58.9121C74.0501 59.364 74.7197 61.907 74.9292 62.5756L73.7893 62.5861L72.6328 62.5876C72.9692 61.3497 73.3471 60.1245 73.7663 58.9121Z" fill="#FAFAFA"/>
<path d="M43.2208 57.8535C43.4016 57.9143 43.5628 57.9276 43.664 58.1079C43.9275 58.5773 44.4955 60.5931 44.7225 61.2716C45.0885 62.3654 45.5766 63.4853 45.8544 64.5995C45.9004 64.7836 45.9144 64.87 45.8449 65.0474C45.7068 65.1264 45.6979 65.1259 45.5391 65.1093C45.1475 64.8831 44.8084 63.5149 44.6408 63.0805L43.4999 63.0845L42.0839 63.0804C41.8843 63.663 41.7853 64.4475 41.4515 64.9655C41.3608 65.1063 41.3024 65.1456 41.143 65.1831L40.9883 65.0785C40.9471 65.0018 40.9181 64.936 40.9223 64.8466C40.9416 64.4228 42.7439 58.6858 42.9916 58.1444C43.0473 58.0228 43.125 57.9441 43.2208 57.8535Z" fill="url(#paint1_linear_7125_9547)"/>
<path d="M43.323 58.9141C43.6444 59.3742 44.2954 61.8642 44.4955 62.5126L43.5799 62.5199L42.25 62.5122C42.6189 61.3167 43.0019 60.1234 43.323 58.9141Z" fill="#FAFAFA"/>
<path d="M48.7931 57.8983C48.8814 57.9009 48.9826 57.901 49.0667 57.9303C49.2342 57.9884 49.3402 58.154 49.437 58.2924C49.8944 58.9463 50.2327 59.7101 50.6185 60.4104C51.2872 61.6246 51.9885 62.8184 52.605 64.0609C52.5684 62.8856 52.5914 61.709 52.585 60.5333C52.5814 59.8584 52.5161 59.1429 52.5897 58.4728C52.6134 58.2566 52.6429 58.0836 52.7664 57.9026C52.851 57.8728 52.8909 57.8309 52.9789 57.8909C53.1449 58.0041 53.1884 58.1591 53.2205 58.3454C53.3746 59.2394 53.2139 60.9043 53.2131 61.8814C53.2124 62.8326 53.3532 63.8593 53.2337 64.7999C53.2139 64.9563 53.1461 65.055 53.0566 65.1814C52.9247 65.187 52.821 65.1654 52.6931 65.134C52.1832 64.7648 49.7155 59.8733 49.2559 58.9809L49.2351 62.8145C49.2352 63.3885 49.2947 63.9833 49.245 64.5538C49.23 64.7264 49.2062 64.901 49.0919 65.0379C49.0241 65.1189 48.9555 65.0996 48.8577 65.1108C48.6992 65.0419 48.6885 65.0411 48.6025 64.8928C48.5625 63.5523 48.6067 62.205 48.6131 60.8638C48.6169 60.0699 48.5505 59.2428 48.6394 58.4549C48.6617 58.2575 48.7191 58.0815 48.7931 57.8983Z" fill="black"/>
<path d="M91.0251 64.0802C91.0297 63.2267 90.9072 58.3505 91.1545 57.9849C91.2209 57.8867 91.2384 57.9061 91.3454 57.8809C91.4247 57.9284 91.505 57.9537 91.5481 58.0409C91.7034 58.3549 91.6887 64.4752 91.5424 65.0017C91.37 65.0736 91.2592 65.1136 91.0667 65.099C90.5807 64.8247 88.1189 60.0134 87.5535 59.1197L87.5184 62.9065C87.5187 63.5147 87.5946 64.1935 87.5232 64.7949C87.5053 64.9452 87.4537 65.0249 87.332 65.1125C87.2319 65.1847 87.224 65.1605 87.1127 65.1461C87.0702 65.0952 87.0441 65.0695 87.0144 65.0046C86.8641 64.6767 86.8876 59.1515 86.932 58.4055C86.9427 58.2242 86.9781 58.0846 87.0489 57.9186C87.1961 57.9189 87.3181 57.9354 87.4615 57.9689C87.9514 58.3412 90.383 63.04 91.0251 64.0802Z" fill="black"/>
<path d="M70.3537 57.8545C70.4075 57.8742 70.5157 57.9109 70.5612 57.9416C70.6929 58.0302 70.7011 58.174 70.7119 58.3171C70.7565 58.9072 70.7766 64.7436 70.6695 64.9691C70.6424 65.0262 70.5854 65.0636 70.5432 65.1109C70.458 65.1385 70.3876 65.1847 70.2981 65.1544C70.1707 65.1112 70.0905 65.0259 70.014 64.9202C69.4569 64.152 69.0211 63.1829 68.5651 62.3477C67.976 61.2685 67.3412 60.2151 66.7532 59.1355L66.7746 62.94C66.7761 63.5477 66.8456 64.2649 66.7297 64.8576C66.6934 65.0436 66.6182 65.1015 66.4969 65.2349C66.3309 65.121 66.2024 65.0819 66.1589 64.869C66.0796 64.4809 66.1282 59.1966 66.1821 58.51C66.1945 58.3514 66.196 58.2172 66.291 58.0839C66.433 57.9967 66.4709 57.9597 66.6405 57.9445C67.139 58.407 69.5461 63.0195 70.1204 64.0097C70.143 62.3595 70.0976 60.707 70.1 59.0564C70.1006 58.6457 70.044 58.1627 70.3537 57.8545Z" fill="black"/>
<path d="M61.1206 59.0072C61.0997 59.9061 61.2522 64.5027 61.0299 64.9888C60.9767 65.1054 60.9684 65.1059 60.8449 65.1549C60.7993 65.1412 60.7388 65.1263 60.7004 65.0978C60.5901 65.0157 60.5504 64.9183 60.5296 64.7882C60.4017 63.9893 60.5146 62.7893 60.5187 61.9581C60.5244 60.8098 60.4423 59.5802 60.5461 58.4393C60.5624 58.2593 60.5554 58.1783 60.6636 58.0364C60.8256 57.9712 60.9012 57.9522 61.0739 57.9839C61.5377 58.3427 62.7141 60.7496 63.0294 61.4511C63.5241 62.2829 64.001 63.1248 64.4602 63.9768C64.4382 62.7004 64.4243 61.4239 64.4186 60.1473C64.4154 59.6079 64.3617 59.0273 64.4042 58.4933C64.4168 58.3337 64.4952 58.0706 64.6144 57.9549C64.6451 57.9252 64.6848 57.9068 64.7201 57.8828C64.8548 57.9278 64.8576 57.9361 64.9173 58.0609C64.9936 58.2204 65.0067 58.4084 65.0134 58.5827C65.0398 59.2721 65.0519 64.5882 64.9468 64.8808C64.8969 65.0196 64.8581 65.0543 64.7467 65.1418C64.5768 65.1399 64.5139 65.1266 64.3909 65.0027C64.0386 64.6477 62.9227 62.4548 62.7167 61.9159C62.1507 60.9716 61.6493 59.9738 61.1206 59.0072Z" fill="black"/>
<path d="M30.8764 61.7928C31.4525 61.1766 33.9239 58.003 34.5357 57.9193C34.6887 57.9895 34.7064 57.9595 34.7735 58.1241C34.6747 58.4532 33.1703 60.0746 32.8672 60.4392C33.4048 61.682 34.1017 62.9177 34.7522 64.1057C34.8919 64.343 35.0943 64.611 35.1268 64.8872C35.0629 65.0668 35.0389 65.0826 34.8874 65.2016C34.8293 65.1948 34.7944 65.1955 34.7383 65.1641C34.2388 64.8845 32.7369 61.5752 32.4144 60.8667C31.8951 61.4695 31.3695 62.0669 30.8375 62.6587C30.8429 63.1873 30.9577 64.5901 30.7818 65.032C30.7335 65.1531 30.6948 65.1567 30.5828 65.2007C30.4565 65.149 30.3712 65.0986 30.3092 64.9687C30.1933 64.7258 30.2093 59.011 30.245 58.3227C30.2529 58.1713 30.2819 58.0502 30.335 57.9082C30.5273 57.9263 30.6062 57.9196 30.7687 58.03C31.0342 58.4796 30.8724 61.0931 30.8764 61.7928Z" fill="url(#paint2_linear_7125_9547)"/>
<path d="M24.9175 57.8457C25.003 57.8726 25.1795 57.9238 25.2507 57.976C25.7039 58.3075 24.7852 63.1521 25.8206 64.1845C26.1424 64.5053 26.5891 64.6392 27.0359 64.6362C27.4662 64.6332 27.9059 64.4846 28.2017 64.1625C29.0566 63.2313 28.6185 60.0023 28.6037 58.7588C28.5999 58.4367 28.6529 58.1738 28.8846 57.9422C29.0581 57.9015 29.048 57.9056 29.2036 57.9947C29.3239 58.1871 29.3184 58.3247 29.3157 58.5478C29.3111 59.9861 29.5989 63.4286 28.7764 64.5101C28.4652 64.9192 28.0164 65.1473 27.5135 65.2202C26.8421 65.3176 26.0352 65.2618 25.4941 64.817C24.9589 64.377 24.7585 63.6625 24.704 62.9971C24.654 62.3875 24.6231 58.5267 24.7165 58.1808C24.7559 58.0347 24.8221 57.9592 24.9175 57.8457Z" fill="black"/>
<path d="M54.6148 57.9504C55.5609 57.9517 56.5367 57.8862 57.4779 57.9528C57.7312 57.9708 58.0263 57.9822 58.2023 58.1869L58.1509 58.3493C58.1003 58.3893 58.0591 58.4454 57.9991 58.4693C57.6894 58.5928 55.4528 58.5009 54.9779 58.5046L54.9878 61.1319C55.4919 61.1336 57.4993 61.0236 57.8274 61.2212C57.9088 61.2701 57.9008 61.3369 57.9226 61.4214L57.8407 61.5348C57.2533 61.8443 55.6841 61.6889 54.9846 61.6851L54.9859 62.6571L54.9893 64.5506C55.7549 64.5629 56.5218 64.5392 57.2877 64.5468C57.6132 64.5502 58.0921 64.5259 58.3338 64.7712C58.3306 64.9149 58.3067 64.9033 58.2161 65.0057C57.6171 65.2812 55.1563 65.1123 54.3739 65.1031C54.3123 63.0421 54.3361 60.9413 54.3721 58.8796C54.3784 58.5138 54.3353 58.2193 54.6148 57.9504Z" fill="black"/>
<path d="M75.9776 57.946C76.7798 57.91 79.535 57.8256 80.1843 57.981C80.3467 58.0199 80.4237 58.0488 80.5143 58.1886C80.5032 58.2105 80.4557 58.3063 80.4421 58.3231C80.2075 58.6148 78.9176 58.5023 78.5417 58.4964L78.5365 63.359C78.5397 63.7576 78.5786 64.2183 78.4975 64.6078C78.4521 64.8258 78.3938 65.0283 78.203 65.1476L78.087 65.0639C77.9751 64.8363 77.9213 64.6231 77.8981 64.3703C77.8338 63.6739 77.8873 62.9373 77.8907 62.2368L77.8925 58.4926C77.7555 58.4906 77.6197 58.4933 77.4827 58.4971C77.024 58.5101 76.1921 58.6345 75.8445 58.306C75.8385 58.1196 75.87 58.1024 75.9776 57.946Z" fill="black"/>
<path d="M47.0459 57.8926L47.3164 58.0408C47.4237 58.1948 47.4215 58.3717 47.4275 58.5537C47.474 59.9413 47.4226 61.3486 47.4197 62.7377C47.4184 63.379 47.5164 64.2012 47.4017 64.8248C47.371 64.9922 47.2539 65.0765 47.1424 65.1965C47.0446 65.1426 46.9546 65.0743 46.863 65.0107C46.7711 64.83 46.7779 64.6196 46.7731 64.4206C46.7417 63.1246 46.7642 61.8221 46.7642 60.5256C46.7642 59.8236 46.6976 59.0401 46.796 58.3486C46.8282 58.1212 46.8957 58.0493 47.0459 57.8926Z" fill="black"/>
<path d="M59.2495 57.8965C59.4305 57.9432 59.4734 57.9424 59.5983 58.0772C59.7654 58.8754 59.6483 60.8786 59.6474 61.7759C59.6464 62.7622 59.7268 63.8221 59.636 64.8002C59.6209 64.9645 59.5735 65.0624 59.4857 65.1996C59.3107 65.1429 59.2223 65.125 59.1088 64.9705C58.9584 63.8687 59.0729 62.1274 59.0737 60.9494C59.0742 60.0846 58.9689 59.0676 59.0953 58.2215C59.1147 58.0922 59.177 58.0019 59.2495 57.8965Z" fill="black"/>
<path d="M85.8684 10.896C87.1679 11.0163 88.4135 11.269 89.6365 11.7342C93.5541 13.2242 96.9485 16.5408 99.5839 19.7147C104.93 26.153 108.359 33.9848 110.54 42.009C111.071 43.9592 111.731 46.5133 111.839 48.5154C111.397 48.5237 110.929 48.5017 110.491 48.5515C109.393 48.428 107.821 48.5313 106.679 48.5305L98.655 48.5188C97.7344 44.6742 95.8751 41.016 92.6435 38.614C91.7246 37.9309 90.6143 37.603 89.773 36.8293C89.5629 36.6382 89.3422 36.4595 89.1211 36.2813C89.0042 36.187 88.8862 36.094 88.767 36.0025C88.6477 35.911 88.5275 35.821 88.4061 35.7325C88.2847 35.644 88.1622 35.557 88.0387 35.4714C87.9152 35.3859 87.7906 35.3019 87.665 35.2194C87.5394 35.1369 87.4129 35.056 87.2854 34.9767C87.1578 34.8973 87.0293 34.8194 86.8997 34.7432C86.7703 34.6669 86.64 34.5923 86.5086 34.5193C86.3774 34.4462 86.2452 34.3748 86.1121 34.3049C85.979 34.2352 85.8452 34.167 85.7105 34.1004C85.5758 34.0339 85.4403 33.969 85.304 33.9058C85.1677 33.8426 85.0306 33.7811 84.8929 33.7212C84.755 33.6613 84.6165 33.6032 84.4772 33.5467C84.338 33.4903 84.1981 33.4355 84.0576 33.3824C83.917 33.3293 83.7758 33.278 83.634 33.2284C83.4922 33.1788 83.3497 33.131 83.2067 33.0849C83.0637 33.0388 82.9202 32.9945 82.7761 32.9519C82.632 32.9093 82.4875 32.8684 82.3424 32.8294C82.1973 32.7903 82.0517 32.753 81.9057 32.7175C81.7597 32.682 81.6133 32.6484 81.4665 32.6165C81.3197 32.5846 81.1725 32.5545 81.025 32.5262C80.8774 32.4978 80.7295 32.4713 80.5812 32.4467C80.4331 32.422 80.2846 32.3991 80.1359 32.378C79.9871 32.357 79.8381 32.3378 79.6889 32.3204C79.5396 32.303 79.3902 32.2874 79.2405 32.2737C79.0909 32.2599 78.9412 32.248 78.7913 32.238C78.6413 32.228 78.4913 32.2197 78.3412 32.2133C78.1912 32.2069 78.041 32.2023 77.8907 32.1995C77.7405 32.1968 77.5903 32.1959 77.44 32.1969C77.2898 32.1978 77.1395 32.2006 76.9894 32.2053C76.8392 32.2099 76.6891 32.2163 76.5391 32.2247C76.3891 32.2329 76.2393 32.243 76.0895 32.255C75.9397 32.267 75.79 32.2808 75.6406 32.2964C75.764 31.7907 75.763 31.2099 75.7999 30.6895C75.8644 29.7802 75.9251 28.8704 76.0404 27.9658C76.6896 22.8674 78.3235 16.7154 82.1647 13.0652C82.9882 12.2827 84.6719 10.8639 85.8684 10.896Z" fill="#FAFAFA"/>
<path d="M15.6875 77.371C16.9043 77.4982 18.2285 77.3819 19.4584 77.3812L27.6526 77.3785L53.9998 77.376L60.9567 77.3745C61.6591 77.3745 63.0426 77.2675 63.6836 77.4098C65.3112 79.133 66.8485 80.9789 68.3865 82.7834C67.8465 82.9439 67.2623 83.0213 66.7089 83.1323L63.6377 83.7517L53.6171 85.743L26.5088 91.1018C26.141 91.1743 25.732 91.2848 25.3589 91.2878C24.474 91.2948 23.3757 90.6917 22.661 90.2067C19.8754 88.317 17.8326 84.8103 16.7526 81.6524C16.275 80.256 15.9584 78.8197 15.6875 77.371Z" fill="#FEEB93"/>
<path d="M43.6647 88.0977C44.1602 89.506 44.7546 90.8917 45.3075 92.279C46.2333 94.5864 47.1462 96.8989 48.0462 99.2165C49.4912 102.906 50.8389 106.64 52.2499 110.344C53.6546 113.927 55.0308 117.521 56.3784 121.126L49.6746 121.145C48.5833 121.146 47.4789 121.11 46.3889 121.149C45.3645 121.128 43.7286 121.358 42.807 120.992C42.293 120.788 42.0947 120.517 41.836 120.054C41.2654 119.033 40.838 117.883 40.3661 116.81L37.661 110.687C35.4435 105.788 33.2524 100.878 31.0877 95.9557C30.3507 94.2935 29.5576 92.6543 28.8438 90.9825C31.8938 90.355 34.9487 89.7516 38.0083 89.1722C39.88 88.8073 41.7756 88.3492 43.6647 88.0977Z" fill="#FAFAFA"/>
<path d="M81.5292 10.7439C83.9721 8.75785 86.5592 7.60385 89.7637 7.93532C95.6762 8.54691 101.006 13.5356 104.573 17.9586C112.148 27.3548 116.657 40.4013 117.908 52.3263C118.152 54.8057 118.266 57.2911 118.252 59.7824C118.281 62.1305 118.176 64.4725 117.936 66.8085C117.246 73.1574 115.214 81.7383 110.004 85.9414C107.635 87.8519 104.749 88.8821 101.691 88.5488C100.71 88.4418 99.7709 88.1465 98.8557 87.7868C98.4993 87.6468 98.1034 87.4305 97.7354 87.3352C96.8927 86.7759 95.9755 86.3274 95.1323 85.7533C91.8907 83.5467 89.2768 80.7217 87.1483 77.4382C87.6665 77.4299 88.1812 77.4285 88.699 77.4492C91.595 81.2697 96.6264 86.0812 101.522 86.759C102.727 86.9259 104.225 86.9044 105.378 86.4781C105.438 86.471 105.501 86.4497 105.557 86.4328C108.612 85.5214 111.181 82.476 112.617 79.7485C117.686 70.1252 117.342 56.0504 115.26 45.6868C114.728 43.0349 113.98 40.4086 113.176 37.8276C110.298 28.5913 103.564 16.0671 94.6294 11.4181C91.7363 9.91269 88.9035 9.39929 85.767 10.3844C82.071 11.8419 79.7372 14.8801 78.1948 18.4309C76.4854 22.366 75.4547 27.2738 75.4246 31.5563C75.2271 32.5906 75.3096 33.8559 75.3336 34.9083C75.4374 39.4647 75.984 43.9166 76.8309 48.3918L75.6631 48.379C75.3304 47.0629 75.1143 45.6968 74.9029 44.3563C74.3404 40.7893 74.0359 37.279 74.0313 33.6663C74.0211 25.4965 75.5449 16.7491 81.5292 10.7439Z" fill="#D7D8E1"/>
<path d="M74.2379 18.2432C74.2358 18.2764 74.2345 18.3097 74.2318 18.3428C74.1825 18.9275 73.4565 20.3975 73.2363 21.071C72.804 22.3932 72.4845 23.7865 72.2219 25.1524C71.0353 31.3254 71.2323 37.9163 72.1704 44.1094C72.3884 45.5482 72.715 46.9614 72.9798 48.391C72.3085 48.3918 71.6241 48.3653 70.9543 48.3955C66.5249 48.3127 62.0873 48.399 57.6561 48.3498C57.4061 46.1504 57.3844 44.0138 57.6056 41.8115C57.6635 41.2359 57.7021 40.6239 57.8868 40.0728C58.1681 39.233 61.4411 35.166 62.2145 34.1529L69.8834 23.9908C71.3304 22.0827 72.8958 20.226 74.2379 18.2432Z" fill="#FAFAFA"/>
<path d="M64.2734 77.4507C65.0052 77.3171 65.8341 77.3798 66.5777 77.3807L70.4406 77.388L83.6427 77.3948C86.0316 80.7975 88.7778 84.097 92.3224 86.3432C92.8291 86.6642 93.5377 87.1637 94.1361 87.2738C94.2104 87.2876 94.2063 87.2855 94.2698 87.2871L94.3193 87.3621L94.3028 87.4155C93.7149 87.4667 90.7199 86.774 89.8682 86.6187L75.5829 83.9196C73.2987 83.4822 71.0129 82.9568 68.7153 82.6091C67.2459 80.88 65.7653 79.1605 64.2734 77.4507Z" fill="#FAFAFA"/>
<path d="M110.122 77.4448C110.279 76.4635 110.523 75.4976 110.733 74.5268C111.105 72.8044 111.476 71.0728 111.821 69.345L112.63 65.1295C112.775 64.3758 112.882 63.5635 113.127 62.8379C113.289 69.5099 111.53 79.2968 106.735 84.2899C106.04 85.0131 105.246 85.572 104.39 86.0861C103.472 86.4861 102.677 86.5858 101.686 86.4623C96.8924 85.8646 91.9396 81.1064 89.0859 77.4464C91.6891 77.289 94.3469 77.3918 96.9551 77.3918C101.344 77.3691 105.733 77.3868 110.122 77.4448Z" fill="#FAFAFA"/>
<path d="M57.3254 40.1182L57.4437 40.1492C57.5181 40.6723 57.3246 41.3575 57.2643 41.8903C57.2047 42.4163 57.1792 42.9482 57.1536 43.4768C57.0741 45.1178 57.1601 46.7248 57.2716 48.3609L37.6687 48.3167L37.4068 48.3065L37.3984 48.2504C37.7254 48.0463 38.1006 47.954 38.4502 47.7959C40.0246 47.0837 41.6477 46.4619 43.2479 45.8089C47.9238 43.8708 52.6163 41.9739 57.3254 40.1182Z" fill="#FEEB93"/>
<path d="M88.851 37.2975L88.9016 37.2715C89.696 37.5227 90.5266 37.7556 91.2709 38.1344C93.4262 39.231 95.4357 41.5447 96.534 43.664C97.2917 45.1262 97.9623 46.8837 98.2854 48.4991C97.9016 48.4946 97.5139 48.5017 97.1309 48.484C97.0952 47.3709 95.9391 44.9184 95.4054 43.8874C93.9447 41.0666 91.7401 38.5761 88.6406 37.6007C88.6606 37.591 88.682 37.5836 88.7008 37.5716C88.8345 37.4854 88.8252 37.4461 88.851 37.2975Z" fill="#FEEB93"/>
<path d="M88.6398 37.6009C87.7165 37.406 86.6755 37.5002 85.7895 37.8214C82.5119 39.0092 81.5854 43.1558 81.3395 46.231C81.3009 46.7136 81.3628 47.9862 81.1999 48.3385C81.0955 48.3732 81.0434 48.3931 80.9323 48.367C80.8432 48.346 80.7919 48.2989 80.7518 48.2139C80.5348 47.7533 81.0047 44.5906 81.1264 43.9507C81.5599 41.6731 82.5089 39.3091 84.5047 37.9699C85.8249 37.084 87.3252 37.004 88.8502 37.2976C88.8244 37.4462 88.8337 37.4855 88.6999 37.5717C88.6812 37.5837 88.6598 37.5911 88.6398 37.6009Z" fill="#FAFAFA"/>
<path d="M87.3872 39.7236C88.2397 39.7945 89.1009 40.0899 89.8337 40.5263C91.3994 41.4586 92.5268 43.1508 93.3361 44.7414C93.5463 45.1546 93.7857 45.5925 93.8822 46.05C93.9261 46.2584 93.9218 46.3235 93.8087 46.5025L93.5809 46.4474C93.2387 46.069 93.0703 45.2764 92.8476 44.7993C92.6683 44.4248 92.4709 44.0603 92.2553 43.7055C91.0967 41.7974 89.8852 40.7874 87.7331 40.2369C87.5612 40.1929 87.3964 40.1891 87.3047 40.0318L87.3872 39.7236Z" fill="#FAFAFA"/>
</g>
<defs>
<linearGradient id="paint0_linear_7125_9547" x1="35.2099" y1="62.386" x2="40.3959" y2="60.7926" gradientUnits="userSpaceOnUse">
<stop stop-color="#010007"/>
<stop offset="1" stop-color="#090728"/>
</linearGradient>
<linearGradient id="paint1_linear_7125_9547" x1="46.4216" y1="63.2073" x2="41.7779" y2="61.3113" gradientUnits="userSpaceOnUse">
<stop stop-color="#04030F"/>
<stop offset="1" stop-color="#080721"/>
</linearGradient>
<linearGradient id="paint2_linear_7125_9547" x1="34.9486" y1="64.9516" x2="30.183" y2="58.2842" gradientUnits="userSpaceOnUse">
<stop stop-color="#040315"/>
<stop offset="1" stop-color="#0A082B"/>
</linearGradient>
<clipPath id="clip0_7125_9547">
<rect width="121" height="123" fill="white" transform="translate(2 1)"/>
</clipPath>
</defs>
</svg>
