<svg width="64" height="64" viewBox="0 0 64 64" fill="none" xmlns="http://www.w3.org/2000/svg">
<path d="M29.9484 40.8C11.6484 26 17.7984 8.25 17.7984 8.25C17.7984 8.25 41.5984 17.65 50.6984 29.15" fill="white"/>
<path d="M39.7516 26C48.6016 8.69997 59.6516 21.15 59.6516 21.15C54.4516 23.6 57.6016 34.3 50.3016 44.95C45.0516 52.6 37.9516 52.4 27.1016 54.3C23.3016 54.95 18.4016 59.25 18.4016 59.25C11.7516 54.65 5.80156 49.8 4.60156 42.8L26.0016 39.1" fill="#E8E8E8"/>
<path d="M23.0992 44.2C2.69922 32.4 6.09922 13.85 6.09922 13.85C6.09922 13.85 31.0992 19.45 41.8492 29.4L23.0992 44.2Z" fill="#E8E8E8"/>
<path d="M15.8001 16.55C10.2001 14.8 6.10005 13.85 6.10005 13.85C6.10005 13.85 2.75005 32.35 23.1001 44.2C32.9001 36.45 16.0501 22.1 15.8001 16.55Z" fill="white"/>
<path d="M18.3988 60.8C18.2488 60.8 18.0988 60.8 17.9488 60.75C10.2488 58.2 3.94884 47.9 3.09884 43.15C2.94884 42.3 3.49884 41.5 4.34884 41.4L10.9988 40.2C11.7988 40.05 12.5988 40.6 12.7488 41.4C12.8988 42.2 12.3488 43 11.5488 43.15L6.49884 44.05C7.99884 48.35 12.7988 55.35 18.1488 57.6C19.6988 56.35 23.5988 53.45 26.8988 52.85C28.6488 52.55 30.2488 52.3 31.7988 52.05C33.9488 51.7 35.9488 51.4 37.7988 51C38.5988 50.85 39.3988 51.35 39.5988 52.15C39.7488 52.95 39.2488 53.75 38.4488 53.95C36.5488 54.35 34.4488 54.7 32.2988 55C30.7488 55.25 29.1488 55.5 27.4488 55.8C24.6988 56.3 20.7488 59.3 19.4488 60.4C19.0988 60.65 18.7488 60.8 18.3988 60.8ZM53.0988 41.35C52.8988 41.35 52.6988 41.3 52.4988 41.25C51.7488 40.95 51.3988 40.05 51.6988 39.3C53.1988 35.75 53.7988 32.35 54.3488 29.35C54.9488 25.95 55.4988 22.9 57.2988 21.05C55.7988 19.8 52.9988 18 49.8988 18.4C46.6488 18.8 43.6488 21.6 41.0488 26.7C40.6488 27.45 39.7488 27.75 39.0488 27.35C38.2988 26.95 37.9988 26.05 38.3988 25.35C41.4988 19.25 45.2488 15.9 49.5488 15.35C55.7488 14.55 60.5488 19.9 60.7488 20.1C61.0488 20.45 61.1988 20.95 61.0988 21.4C60.9988 21.85 60.6988 22.25 60.2488 22.45C58.4988 23.25 57.9988 25.65 57.2988 29.75C56.7488 32.75 56.0988 36.45 54.4488 40.35C54.2488 41 53.6988 41.35 53.0988 41.35Z" fill="#464C54"/>
<path d="M23.0999 45.65C22.8499 45.65 22.5999 45.6 22.3499 45.45C20.4499 44.3 18.6499 43.1 16.9999 41.8C16.3499 41.3 16.2499 40.35 16.7499 39.7C17.2499 39.05 18.1999 38.95 18.8499 39.45C20.3499 40.65 22.0499 41.8 23.7999 42.85C24.4999 43.25 24.7499 44.2 24.3499 44.9C24.1499 45.4 23.6499 45.65 23.0999 45.65ZM11.7499 35.75C11.2999 35.75 10.8499 35.55 10.5499 35.15C2.6999 24.55 4.5499 14 4.6499 13.6C4.6999 13.2 4.9499 12.85 5.2999 12.6C5.6499 12.4 6.0499 12.3 6.4499 12.4C6.6999 12.45 12.8499 13.85 20.4499 16.5C30.6999 20.1 38.2499 24.05 42.8999 28.35C43.4999 28.9 43.5499 29.85 42.9999 30.45C42.4499 31.05 41.4999 31.1 40.8999 30.55C32.0499 22.4 13.0999 17.15 7.3999 15.7C7.2499 18.85 7.5999 26.1 12.9499 33.35C13.4499 34 13.2999 34.95 12.6499 35.45C12.3499 35.65 12.0499 35.75 11.7499 35.75ZM36.8499 19.3C36.5499 19.3 36.2999 19.2 36.0499 19.05C30.5999 15.5 21.9499 11.75 18.5499 10.35C18.4999 10.6 18.4499 10.85 18.3499 11.2C18.1499 12 17.3999 12.5 16.5499 12.35C15.7499 12.2 15.2499 11.4 15.3999 10.55C15.9499 8.09999 16.3499 7.04999 17.4999 6.89999C17.7499 6.84999 17.9999 6.89999 18.2499 6.99999C18.7499 7.19999 30.5499 11.95 37.6499 16.55C38.3499 17 38.5499 17.95 38.0999 18.65C37.8499 19.05 37.3499 19.3 36.8499 19.3Z" fill="#464C54"/>
<path d="M52.7992 60.75C53.1992 61.15 53.8492 61.15 54.1992 60.75L61.9492 52.95C62.3492 52.55 62.6992 52.05 62.9492 51.55L53.4492 49.9L43.9492 51.55C44.1992 52.1 44.5492 52.6 44.9992 53L52.7992 60.75Z" fill="#F6CA47"/>
<path d="M61.9501 45.55C59.9001 43.5 56.6001 43.5 54.5501 45.55L53.4501 46.65L52.3501 45.55C50.3001 43.5 47.0001 43.5 44.9501 45.55C43.3501 47.15 43.0001 49.55 43.9001 51.5H62.9001C63.9001 49.6 63.6001 47.15 61.9501 45.55Z" fill="#00A6E4"/>
</svg>
