<svg width="16" height="16" viewBox="0 0 16 16" fill="none" xmlns="http://www.w3.org/2000/svg">
<path fill-rule="evenodd" clip-rule="evenodd" d="M7.92341 8.41259H7.94474C9.89674 8.41259 11.4841 6.82525 11.4841 4.87325C11.4841 2.92125 9.89674 1.33325 7.94474 1.33325C5.99207 1.33325 4.40407 2.92125 4.40407 4.87125C4.39741 6.81792 5.97541 8.40659 7.92341 8.41259ZM5.35607 4.87325C5.35607 3.44592 6.51741 2.28525 7.94474 2.28525C9.37141 2.28525 10.5321 3.44592 10.5321 4.87325C10.5321 6.29992 9.37141 7.46125 7.94474 7.46125H7.92541C6.50407 7.45592 5.35141 6.29592 5.35607 4.87325Z" fill="#7A7A7A"/>
<path fill-rule="evenodd" clip-rule="evenodd" d="M2.66406 12.1155C2.66406 14.5801 6.63873 14.5801 7.94473 14.5801C10.2107 14.5801 13.2241 14.3261 13.2241 12.1288C13.2241 9.66414 9.25073 9.66414 7.94473 9.66414C5.67806 9.66414 2.66406 9.91814 2.66406 12.1155ZM3.66406 12.1155C3.66406 11.1521 5.10406 10.6641 7.94473 10.6641C10.7847 10.6641 12.2241 11.1568 12.2241 12.1288C12.2241 13.0921 10.7847 13.5801 7.94473 13.5801C5.10406 13.5801 3.66406 13.0875 3.66406 12.1155Z" fill="#7A7A7A"/>
</svg>
