<svg width="64" height="64" viewBox="0 0 64 64" fill="none" xmlns="http://www.w3.org/2000/svg">
<path d="M32 59.5C17.685 59.5 10.67 59.37 7.63 56.48C4.635 53.63 4.5 46.99 4.5 33.435C4.5 18.38 4.635 11.005 7.71 7.79502C10.72 4.65502 17.72 4.52002 32 4.52002C46.28 4.52002 53.28 4.66002 56.285 7.80002C59.36 11.01 59.495 18.385 59.495 33.44C59.495 47.025 59.36 53.68 56.37 56.52C53.22 59.5 45.235 59.5 32 59.5Z" fill="#F1F2F4"/>
<path d="M44 27.5V23.5H40C35.58 23.5 32 27.08 32 31.5C32 27.08 28.42 23.5 24 23.5H20V27.5C20 31.92 23.58 35.5 28 35.5H22.5C21.12 35.5 20 36.62 20 38V39.5C20 43.92 23.58 47.5 28 47.5H22.5C21.12 47.5 20 48.62 20 50V51.5C20 55.92 23.58 59.5 28 59.5H36C40.42 59.5 44 55.92 44 51.5V50C44 48.62 42.88 47.5 41.5 47.5H36C40.42 47.5 44 43.92 44 39.5V38C44 36.62 42.88 35.5 41.5 35.5H36C40.42 35.5 44 31.92 44 27.5Z" fill="#F6CA47"/>
<path d="M25 18.5C24.17 18.5 23.5 17.83 23.5 17V7C23.5 6.17 24.17 5.5 25 5.5C25.83 5.5 26.5 6.17 26.5 7V17C26.5 17.83 25.83 18.5 25 18.5ZM39 18.5C38.17 18.5 37.5 17.83 37.5 17V7C37.5 6.17 38.17 5.5 39 5.5C39.83 5.5 40.5 6.17 40.5 7V17C40.5 17.83 39.83 18.5 39 18.5Z" fill="#464C54"/>
<path d="M36 37C41.24 37 45.5 32.74 45.5 27.5V23.5C45.5 22.67 44.83 22 44 22H40C37.485 22 35.2 22.99 33.5 24.59V2C33.5 1.17 32.83 0.5 32 0.5C31.17 0.5 30.5 1.17 30.5 2V24.59C28.8 22.99 26.515 22 24 22H20C19.17 22 18.5 22.67 18.5 23.5V27.5C18.5 32.74 22.76 37 28 37H30.5V46H28C24.415 46 21.5 43.085 21.5 39.5V38C21.5 37.17 20.83 36.5 20 36.5C19.17 36.5 18.5 37.17 18.5 38V39.5C18.5 44.74 22.76 49 28 49H30.5V58H28C24.415 58 21.5 55.085 21.5 51.5V50.5C21.5 49.67 20.83 49 20 49C19.17 49 18.5 49.67 18.5 50.5V51.5C18.5 56.74 22.76 61 28 61H30.5V62C30.5 62.83 31.17 63.5 32 63.5C32.83 63.5 33.5 62.83 33.5 62V61H36C41.24 61 45.5 56.74 45.5 51.5V50C45.5 49.17 44.83 48.5 44 48.5C43.17 48.5 42.5 49.17 42.5 50V51.5C42.5 55.085 39.585 58 36 58H33.5V49H36C41.24 49 45.5 44.74 45.5 39.5V38C45.5 37.17 44.83 36.5 44 36.5C43.17 36.5 42.5 37.17 42.5 38V39.5C42.5 43.085 39.585 46 36 46H33.5V37H36ZM40 25H42.5V27.5C42.5 31.085 39.585 34 36 34H33.5V31.5C33.5 27.915 36.415 25 40 25ZM21.5 27.5V25H24C27.585 25 30.5 27.915 30.5 31.5V34H28C24.415 34 21.5 31.085 21.5 27.5Z" fill="#464C54"/>
</svg>
