<svg width="40" height="45" viewBox="0 0 40 45" fill="none" xmlns="http://www.w3.org/2000/svg">
<path d="M35.2975 11.4329C35.2559 11.6998 35.2082 11.9727 35.1546 12.253C33.3096 21.7237 26.9991 24.9954 18.9389 24.9954H14.8352C13.8496 24.9954 13.019 25.7111 12.8654 26.6834L10.7641 40.009L10.1692 43.786C10.0692 44.4243 10.5615 44.9999 11.2054 44.9999H18.4843C19.3463 44.9999 20.0782 44.3737 20.2138 43.5237L20.2855 43.1537L21.6561 34.4569L21.7441 33.98C21.8781 33.1271 22.6117 32.5008 23.4736 32.5008H24.5622C31.614 32.5008 37.1347 29.6377 38.7483 21.3524C39.4222 17.8913 39.0733 15.0013 37.2897 12.9688C36.7501 12.3559 36.0805 11.8474 35.2975 11.4329Z" fill="#179BD7"/>
<path d="M33.3659 10.6643C33.0843 10.5823 32.7933 10.5077 32.4949 10.4406C32.1953 10.375 31.888 10.3168 31.572 10.2661C30.4654 10.0872 29.2532 10.0022 27.9543 10.0022H16.991C16.721 10.0022 16.4648 10.0633 16.2351 10.1737C15.7294 10.4167 15.3538 10.8954 15.2628 11.4815L12.9302 26.2534L12.8633 26.6843C13.017 25.712 13.8476 24.9963 14.8331 24.9963H18.9368C26.997 24.9963 33.308 21.7231 35.1525 12.2539C35.2074 11.9736 35.2538 11.7007 35.2954 11.4338C34.8288 11.1862 34.3232 10.9745 33.7789 10.794C33.6449 10.7493 33.5063 10.7061 33.3659 10.6643Z" fill="#222D65"/>
<path d="M15.266 11.4808C15.357 10.8947 15.733 10.4161 16.2382 10.1745C16.4696 10.0641 16.7246 10.003 16.9941 10.003H27.9578C29.2567 10.003 30.469 10.088 31.5752 10.2669C31.8915 10.3176 32.1989 10.3758 32.4985 10.4414C32.7968 10.5085 33.0874 10.5831 33.3694 10.6651C33.5094 10.7068 33.648 10.7501 33.7837 10.7933C34.328 10.9738 34.8336 11.187 35.3003 11.4331C35.8493 7.9332 35.296 5.55026 33.4038 3.39247C31.3176 1.017 27.5522 0 22.7342 0H8.74639C7.7621 0 6.9229 0.715744 6.77052 1.68951L0.944637 38.6192C0.829596 39.3498 1.39321 40.0092 2.12982 40.0092H10.7656L12.9338 26.2527L15.266 11.4808Z" fill="#253B80"/>
</svg>
