<svg width="80" height="45" viewBox="0 0 80 45" fill="none" xmlns="http://www.w3.org/2000/svg">
<path fill-rule="evenodd" clip-rule="evenodd" d="M43.2382 10.656L37.7883 11.8227V7.40139L43.2382 6.25V10.656Z" fill="#6461FC"/>
<path fill-rule="evenodd" clip-rule="evenodd" d="M54.5986 13.1123C52.4647 13.1123 51.0984 14.1102 50.3308 14.801L50.0544 13.45H45.2647V38.75L50.6992 37.5986L50.7146 31.4578C51.4975 32.0259 52.6489 32.8242 54.5679 32.8242C58.4673 32.8242 61.9982 29.6924 61.9982 22.8301C61.9829 16.5358 58.3905 13.1123 54.5986 13.1123ZM53.2937 28.0497C52.0041 28.0497 51.2519 27.5892 50.7299 27.0365L50.6992 18.9921C51.2673 18.3627 52.0502 17.9328 53.2937 17.9328C55.2741 17.9328 56.6404 20.1435 56.6404 22.9836C56.6404 25.8851 55.2895 28.0497 53.2937 28.0497Z" fill="#6461FC"/>
<path fill-rule="evenodd" clip-rule="evenodd" d="M71.3015 13.1123C66.1279 13.1123 62.9961 17.4876 62.9961 22.9989C62.9961 29.5235 66.6959 32.8242 71.9923 32.8242C74.5868 32.8242 76.5365 32.2408 78.0103 31.4118V27.0672C76.5365 27.8041 74.8324 28.2646 72.6832 28.2646C70.58 28.2646 68.707 27.5278 68.4614 24.964H79.1003C79.1003 24.8412 79.1156 24.5802 79.1156 24.2578C79.131 23.8279 79.1463 23.3367 79.1463 23.0296C79.1463 17.4876 76.4444 13.1123 71.3015 13.1123ZM68.4 20.9878C68.4 18.5315 69.9045 17.5183 71.2708 17.5183C72.5911 17.5183 74.0188 18.5315 74.0188 20.9878H68.4Z" fill="#6461FC"/>
<path d="M43.2382 13.4808H37.7729V32.4711H43.2382V13.4808Z" fill="#6461FC"/>
<path fill-rule="evenodd" clip-rule="evenodd" d="M31.5861 13.4808L31.9392 15.0927C33.2287 12.7439 35.7618 13.2198 36.468 13.4808V18.4701C35.7772 18.2245 33.6125 17.9175 32.323 19.5908V32.4557H26.8884V13.4808H31.5861Z" fill="#6461FC"/>
<path fill-rule="evenodd" clip-rule="evenodd" d="M21.0547 8.76771L15.7429 9.8884L15.7276 27.2668C15.7276 30.4753 18.1378 32.8395 21.3617 32.8395C23.1425 32.8395 24.4475 32.5171 25.169 32.118V27.712C24.4782 27.9883 21.0393 28.9862 21.0393 25.7776V18.1017H25.169V13.4808H21.0393L21.0547 8.76771Z" fill="#6461FC"/>
<path fill-rule="evenodd" clip-rule="evenodd" d="M8.20513 17.81C7.05374 17.81 6.3629 18.1324 6.3629 18.9767C6.3629 19.8979 7.56035 20.3124 9.04949 20.8036C11.4751 21.6326 14.6529 22.7073 14.6683 26.7141C14.6683 30.5981 11.5518 32.8395 7.03838 32.8395C5.16545 32.8395 3.12365 32.4711 1.09719 31.596V26.4378C2.92407 27.4356 5.22686 28.1725 7.03838 28.1725C8.25119 28.1725 9.12624 27.8501 9.12624 26.8523C9.12624 25.8237 7.82133 25.3631 6.25544 24.7951C3.86054 23.9508 0.851562 22.8608 0.851562 19.2531C0.851562 15.4151 3.78378 13.1123 8.20513 13.1123C10.0167 13.1123 11.7975 13.3886 13.5937 14.1102V19.207C11.951 18.3166 9.84778 17.81 8.20513 17.81Z" fill="#6461FC"/>
</svg>
