<svg width="240" height="63" viewBox="0 0 240 63" fill="none" xmlns="http://www.w3.org/2000/svg">
<g clip-path="url(#clip0_2664_7293)">
<path d="M0 62.2478C0 62.1786 0 62.1095 0 62.0403C1.03746 61.0028 2.00576 59.8962 3.11239 58.9279C5.8098 56.5763 8.7147 54.3631 10.9971 51.4582C12.9337 48.9682 13.6254 46.34 12.7954 43.2968C12.1037 40.6685 10.3055 38.8703 8.36888 37.2795C5.87896 35.2737 3.94236 33.0605 2.9049 30.0172C1.86743 26.974 2.62824 24.2074 4.01153 21.7867C5.6023 19.1585 7.88473 16.9452 9.95965 14.7319C11.6196 12.9337 13.487 11.4121 15.2853 9.75211C16.5994 8.50715 17.9135 7.2622 19.2277 6.01724C19.8501 5.39476 20.6109 4.91061 21.2334 4.28813C22.755 2.83568 24.2767 1.38324 25.7291 -0.0692139C25.7983 -0.0692139 25.8674 -0.0692139 25.9366 -0.0692139C28.0115 1.86739 30.1556 3.87315 31.9539 5.53309C33.8905 3.87315 35.9654 1.93655 38.0403 -4.9606e-05C38.1095 -4.9606e-05 38.1787 -4.9606e-05 38.2478 -4.9606e-05C39.0778 0.899086 39.8386 1.79822 40.7378 2.62819C43.9193 5.53309 47.17 8.29966 50.3516 11.2046C52.0115 12.7262 53.6023 14.3861 55.1931 15.9769C57.268 18.0518 59.4121 19.9884 60.5879 22.755C61.4179 24.6916 61.902 26.6282 61.5562 28.634C61.0029 32.023 58.9971 34.5129 56.3689 36.5878C54.5014 38.0403 52.7032 39.5619 51.804 41.8443C50.6974 44.6801 50.4899 47.4466 52.2882 50.0749C53.2565 51.4582 54.2939 52.7723 55.4697 53.9481C57.1297 55.5388 58.9279 56.9913 60.5879 58.5821C61.7637 59.6887 62.8703 60.7953 64.0461 62.0403C63.8386 62.1786 63.7694 62.2478 63.6311 62.2478C59.2738 62.2478 54.9164 62.2478 50.5591 62.2478C50.2132 62.2478 49.7983 62.0403 49.5908 61.7636C48.2766 60.4495 46.9625 59.1354 45.6484 57.8213C44.196 56.3688 42.6743 55.0547 41.2219 53.6022C39.4236 51.804 38.317 49.6599 37.902 47.1008C37.2795 43.5734 38.6628 40.5994 40.8069 38.0403C42.121 36.4495 43.9885 35.3429 45.5101 33.9596C47.0317 32.5763 48.6916 31.193 48.9683 28.9798C49.245 26.4899 48.8991 24.1383 47.2392 22.2017C45.4409 20.1959 43.5043 18.3976 41.5677 16.5302C39.4928 14.4553 37.3487 12.3112 35.2738 10.2363C34.1671 9.12963 33.1297 7.88468 32.0922 6.70888C31.1931 7.67718 30.4323 8.64548 29.5331 9.54462C25.8674 13.2795 22.0634 16.9452 18.3977 20.6801C17.6369 21.4409 16.8761 22.34 16.3228 23.3083C15.8386 24.1383 15.6311 25.1066 15.3545 26.0749C14.6628 28.2881 15.3545 30.2939 16.7378 31.9538C17.9135 33.4063 19.5043 34.5129 20.9568 35.7579C22.8934 37.3486 24.6916 39.0778 25.6599 41.4985C26.9049 44.8184 26.8357 47.9999 24.9683 51.1815C23.585 53.5331 21.3718 55.1239 19.6426 57.1296C18.1902 58.8587 16.3228 60.242 14.6628 61.7636C14.317 62.0403 13.7637 62.3169 13.3487 62.3169C8.78386 62.2478 4.42651 62.2478 0 62.2478Z" fill="#005BBB"/>
<path d="M32.0906 37.4871C38.4316 37.4871 43.5719 32.3467 43.5719 26.0058C43.5719 19.6649 38.4316 14.5245 32.0906 14.5245C25.7497 14.5245 20.6094 19.6649 20.6094 26.0058C20.6094 32.3467 25.7497 37.4871 32.0906 37.4871Z" fill="#005BBB"/>
<path d="M35.135 21.3718C35.135 21.3718 34.5817 25.9366 34.5125 26.6282C34.5817 26.6282 34.72 26.5591 34.7892 26.5591C35.4116 26.5591 35.8958 27.0432 35.8958 27.6657C35.8958 28.2882 35.4116 28.7723 34.7892 28.7723C34.6508 28.7723 34.5125 28.7723 34.3742 28.7032C33.6825 27.2507 32.7834 25.7983 32.7142 23.2392C32.7142 21.0951 32.8526 17.4294 32.8526 16.9452C32.8526 16.1153 32.0226 15.147 32.0226 15.147C32.0226 15.147 31.1926 16.0461 31.1926 16.9452C31.1926 17.4986 31.4001 21.1643 31.3309 23.2392C31.2618 25.7983 30.3626 27.2507 29.671 28.7032C29.5327 28.7723 29.3943 28.7723 29.256 28.7723C28.6335 28.7723 28.1494 28.2882 28.1494 27.6657C28.1494 27.0432 28.6335 26.5591 29.256 26.5591C29.3252 26.5591 29.4635 26.5591 29.5327 26.6282C29.4635 25.9366 28.9102 21.3718 28.9102 21.3718C28.3569 19.5043 27.3886 17.6369 25.3828 16.6686V32.5764H29.0485C29.5327 35.5504 31.9534 36.4496 31.9534 36.9337C31.9534 36.4496 34.3742 35.4813 34.8583 32.5764H38.524V16.6686C36.6566 17.6369 35.6883 19.5043 35.135 21.3718ZM28.3569 25.6599C27.8036 25.9366 27.3194 26.4899 27.1811 27.1124H26.5586V19.0202C28.2877 20.4035 28.2185 25.1758 28.3569 25.6599ZM29.0485 31.4697H26.5586V28.219H27.1811C27.3886 29.1873 28.2877 29.879 29.256 29.879C29.1868 30.3631 29.0485 30.8473 29.0485 31.4697ZM31.5384 34.7896C31.5384 34.7896 30.6393 34.0288 30.2935 32.5764H31.5384C31.5384 33.6138 31.5384 34.7896 31.5384 34.7896ZM30.1551 31.4697C30.1551 31.0548 30.2243 30.5706 30.2935 30.0865C30.2935 30.0865 31.4693 30.2248 31.4693 31.4697H30.1551ZM32.0917 29.879C31.6768 29.6023 31.4001 29.3256 30.8468 28.9798C31.2618 28.3573 31.8151 27.1124 32.0917 26.0058C32.4376 27.1124 32.9217 28.3573 33.3367 28.9798C32.7834 29.3948 32.5067 29.6023 32.0917 29.879ZM32.6451 34.7896C32.6451 34.7896 32.6451 33.6138 32.6451 32.5764H33.89C33.5442 34.0288 32.6451 34.7896 32.6451 34.7896ZM32.6451 31.4697C32.6451 30.2939 33.8209 30.0865 33.8209 30.0865C33.9592 30.5706 33.9592 31.0548 33.9592 31.4697H32.6451ZM35.7575 25.6599C35.8958 25.1758 35.8958 20.4035 37.5557 19.0202V27.1124H36.9332C36.7949 26.4899 36.3799 25.9366 35.7575 25.6599ZM35.0658 31.4697C35.0658 30.9164 34.9966 30.3631 34.8583 29.879C35.8958 29.879 36.7258 29.1873 36.9332 28.219H37.5557V31.4697H35.0658Z" fill="#FFD100"/>
<path d="M95.861 9.06048C95.861 9.75213 95.6535 10.2363 95.1693 10.5821C94.6852 10.9279 94.0627 11.1354 93.2327 11.1354C92.4028 11.1354 91.7111 10.9971 91.1578 10.7204V9.68296C91.5036 9.82129 91.8495 9.95962 92.2644 10.0288C92.6103 10.0979 93.0252 10.1671 93.3019 10.1671C93.7861 10.1671 94.1319 10.0979 94.3394 9.89046C94.5469 9.68296 94.6852 9.47547 94.6852 9.12965C94.6852 8.85299 94.5469 8.6455 94.3394 8.43801C94.1319 8.23051 93.7169 8.02302 93.0253 7.74636C92.3336 7.46971 91.8495 7.19305 91.5728 6.77806C91.2961 6.36308 91.1578 6.01726 91.1578 5.53311C91.1578 4.91063 91.3653 4.42648 91.8495 4.08066C92.3336 3.73484 92.8869 3.52734 93.6477 3.52734C94.3394 3.52734 95.031 3.66567 95.7918 4.01149L95.3768 4.97979C94.6852 4.70314 94.1319 4.56481 93.6477 4.56481C93.2327 4.56481 92.9561 4.63397 92.7486 4.84146C92.5411 5.04896 92.4719 5.25645 92.4719 5.53311C92.4719 5.7406 92.5411 5.87893 92.6103 6.01726C92.6794 6.15559 92.8178 6.29391 93.0253 6.43224C93.2327 6.57057 93.5786 6.7089 94.0627 6.91639C94.616 7.12389 95.031 7.33138 95.2385 7.53887C95.446 7.74636 95.6535 7.95386 95.7918 8.23051C95.9302 8.50717 95.861 8.71466 95.861 9.06048ZM101.463 11.0662H97.2443V3.66567H101.463V4.70314H98.4892V6.7089H101.256V7.74636H98.4892V10.0979H101.463V11.0662ZM103.054 11.0662V3.66567H104.299V10.0288H107.411V11.0662H103.054ZM109.901 11.0662H108.726V3.66567H112.875V4.70314H109.901V6.98556H112.668V8.02302H109.901V11.0662ZM118.132 8.09219V11.0662H116.887V3.66567H118.962C119.93 3.66567 120.622 3.87317 121.106 4.21899C121.59 4.56481 121.798 5.11812 121.798 5.80976C121.798 6.7089 121.313 7.40054 120.345 7.74636L122.42 10.9971H121.037L119.239 8.02302H118.132V8.09219ZM118.132 7.12389H118.962C119.515 7.12389 119.93 6.98556 120.207 6.77806C120.483 6.57057 120.553 6.22475 120.553 5.87893C120.553 5.46394 120.414 5.18729 120.138 4.97979C119.861 4.7723 119.446 4.70314 118.893 4.70314H118.063V7.12389H118.132ZM127.746 11.0662H123.527V3.66567H127.746V4.70314H124.772V6.7089H127.538V7.74636H124.772V10.0979H127.746V11.0662ZM129.336 11.0662V3.66567H130.581V10.0288H133.694V11.0662H129.336ZM134.939 11.0662V3.66567H136.184V11.0662H134.939ZM142.754 11.0662L141.994 8.99132H139.158L138.466 11.0662H137.221L139.988 3.59651H141.302L144.068 11.0662H142.754ZM141.648 7.95386L140.956 5.94809C140.887 5.80976 140.818 5.60227 140.749 5.32561C140.679 5.04896 140.61 4.84146 140.541 4.70314C140.472 5.11812 140.334 5.60227 140.126 6.08642L139.434 8.02302L141.648 7.95386ZM151.123 11.0662H149.671L146.005 5.18729H145.936V5.53311C146.005 6.15559 146.005 6.7089 146.005 7.26221V11.1354H144.898V3.73484H146.351L150.017 9.6138C150.017 9.54463 150.017 9.26798 149.947 8.78383C149.947 8.29968 149.947 7.88469 149.947 7.60804V3.73484H151.054L151.123 11.0662ZM156.241 4.63397C155.55 4.63397 154.996 4.91063 154.581 5.39478C154.166 5.87893 153.959 6.57057 153.959 7.46971C153.959 8.36884 154.166 9.06049 154.512 9.54464C154.927 10.0288 155.481 10.2363 156.172 10.2363C156.518 10.2363 156.795 10.2363 157.071 10.1671C157.348 10.0979 157.694 10.0288 157.97 9.95962V10.9971C157.417 11.2046 156.726 11.3429 155.965 11.3429C154.858 11.3429 154.028 10.9971 153.475 10.3746C152.922 9.75213 152.576 8.78383 152.576 7.53887C152.576 6.77806 152.714 6.08642 152.991 5.53311C153.267 4.97979 153.682 4.49564 154.236 4.21899C154.789 3.94233 155.411 3.73484 156.103 3.73484C156.864 3.73484 157.556 3.87317 158.178 4.21899L157.763 5.25645C157.486 5.11812 157.279 5.04896 157.002 4.97979C156.864 4.63397 156.587 4.63397 156.241 4.63397ZM163.849 11.0662H159.63V3.66567H163.849V4.70314H160.875V6.7089H163.642V7.74636H160.875V10.0979H163.849V11.0662ZM174.362 11.0662H172.91L169.244 5.18729H169.175V5.53311C169.244 6.15559 169.244 6.7089 169.244 7.26221V11.1354H168.138V3.73484H169.59L173.256 9.6138C173.256 9.54463 173.256 9.26798 173.187 8.78383C173.187 8.29968 173.187 7.88469 173.187 7.60804V3.73484H174.293L174.362 11.0662ZM180.518 11.0662H176.299V3.66567H180.518V4.70314H177.544V6.7089H180.311V7.74636H177.544V10.0979H180.518V11.0662ZM188.887 11.0662H187.573L186.328 6.63974C186.259 6.43224 186.19 6.15559 186.12 5.80976C186.051 5.46394 185.982 5.18729 185.982 5.04896C185.982 5.25645 185.913 5.53311 185.844 5.87893C185.775 6.22475 185.705 6.50141 185.636 6.63974L184.391 11.0662H183.077L182.109 7.33138L181.141 3.66567H182.385L183.423 7.95386C183.561 8.6455 183.7 9.26798 183.769 9.82129C183.838 9.54463 183.838 9.19881 183.907 8.85299C183.976 8.50717 184.045 8.23051 184.115 8.02302L185.29 3.66567H186.466L187.711 8.02302C187.849 8.43801 187.988 9.06049 188.057 9.82129C188.126 9.33714 188.195 8.71466 188.403 7.95386L189.44 3.66567H190.685L188.887 11.0662ZM196.702 7.05472L198.432 3.66567H199.746L197.256 8.23051V11.1354H196.011V8.29968L193.521 3.73484H194.835L196.702 7.05472ZM207.285 7.33138C207.285 8.50717 207.008 9.47547 206.385 10.1671C205.763 10.8588 204.933 11.2046 203.826 11.2046C202.72 11.2046 201.821 10.8588 201.267 10.2363C200.645 9.54464 200.368 8.6455 200.368 7.40054C200.368 6.15559 200.645 5.25645 201.267 4.56481C201.89 3.94233 202.72 3.59651 203.826 3.59651C204.933 3.59651 205.763 3.94233 206.385 4.56481C207.008 5.18729 207.285 6.15559 207.285 7.33138ZM201.682 7.33138C201.682 8.23051 201.89 8.92216 202.236 9.40631C202.581 9.89046 203.135 10.0979 203.896 10.0979C204.587 10.0979 205.141 9.89046 205.556 9.40631C205.901 8.92216 206.109 8.23051 206.109 7.33138C206.109 6.43224 205.901 5.7406 205.556 5.25645C205.21 4.7723 204.656 4.56481 203.965 4.56481C203.204 4.56481 202.72 4.7723 202.305 5.25645C201.821 5.7406 201.682 6.43224 201.682 7.33138ZM210.12 8.09219V11.0662H208.875V3.66567H210.95C211.919 3.66567 212.61 3.87317 213.094 4.21899C213.579 4.56481 213.786 5.11812 213.786 5.80976C213.786 6.7089 213.302 7.40054 212.334 7.74636L214.409 10.9971H213.025L211.227 8.02302H210.12V8.09219ZM210.12 7.12389H210.95C211.504 7.12389 211.919 6.98556 212.195 6.77806C212.472 6.57057 212.541 6.22475 212.541 5.87893C212.541 5.46394 212.403 5.18729 212.126 4.97979C211.849 4.7723 211.434 4.70314 210.881 4.70314H210.051V7.12389H210.12ZM221.187 11.0662H219.803L217.452 7.74636L216.76 8.29968V11.0662H215.515V3.66567H216.76V7.19305C217.106 6.77806 217.452 6.43224 217.728 6.01726L219.734 3.66567H221.117C219.803 5.18729 218.904 6.29391 218.351 6.91639L221.187 11.0662ZM113.014 23.5158H111.976V17.0835H115.573V17.9827H113.014V19.9884H115.434V20.8876H113.014V23.5158ZM118.754 23.6541C117.994 23.6541 117.44 23.4467 116.956 22.9625C116.541 22.5475 116.334 21.925 116.334 21.1642C116.334 20.4034 116.541 19.7809 116.956 19.2968C117.371 18.8126 117.924 18.6052 118.616 18.6052C119.239 18.6052 119.792 18.8126 120.138 19.1585C120.483 19.5043 120.691 20.0576 120.691 20.7492V21.3026H117.44C117.44 21.7867 117.579 22.1325 117.855 22.4092C118.063 22.6858 118.409 22.755 118.893 22.755C119.169 22.755 119.446 22.755 119.723 22.6858C119.999 22.6167 120.207 22.5475 120.553 22.4092V23.2392C120.276 23.3775 120.068 23.4467 119.792 23.5158C119.446 23.585 119.1 23.6541 118.754 23.6541ZM118.616 19.366C118.27 19.366 117.994 19.5043 117.855 19.7118C117.648 19.9193 117.509 20.1959 117.509 20.6109H119.723C119.723 20.1959 119.653 19.9193 119.446 19.7118C119.169 19.5043 118.893 19.366 118.616 19.366ZM123.458 23.6541C122.835 23.6541 122.351 23.4467 122.005 22.9625C121.659 22.4784 121.521 21.925 121.521 21.0951C121.521 20.2651 121.659 19.7118 122.005 19.2276C122.351 18.8126 122.835 18.536 123.458 18.536C124.08 18.536 124.564 18.7435 124.91 19.2276H124.979C124.91 18.8818 124.91 18.6052 124.91 18.3977V16.5994H125.947V23.4467H125.187L124.979 22.8242H124.91C124.633 23.3775 124.149 23.6541 123.458 23.6541ZM123.734 22.755C124.149 22.755 124.495 22.6167 124.633 22.4092C124.841 22.2017 124.91 21.7867 124.91 21.2334V21.0951C124.91 20.4726 124.841 20.0576 124.633 19.7809C124.426 19.5043 124.149 19.366 123.665 19.366C123.319 19.366 123.043 19.5043 122.835 19.7809C122.628 20.0576 122.558 20.4726 122.558 21.0259C122.558 21.5792 122.628 21.9942 122.835 22.2709C123.112 22.6167 123.388 22.755 123.734 22.755ZM129.544 23.585C128.783 23.585 128.23 23.3775 127.746 22.8933C127.331 22.4784 127.123 21.8559 127.123 21.0951C127.123 20.3343 127.331 19.7118 127.746 19.2276C128.161 18.7435 128.714 18.536 129.406 18.536C130.028 18.536 130.581 18.7435 130.927 19.0893C131.273 19.4351 131.481 19.9884 131.481 20.6801V21.2334H128.23C128.23 21.7175 128.368 22.0634 128.645 22.34C128.852 22.6167 129.198 22.6858 129.682 22.6858C129.959 22.6858 130.236 22.6858 130.512 22.6167C130.789 22.5475 130.996 22.4784 131.342 22.34V23.17C131.066 23.3083 130.858 23.3775 130.581 23.4467C130.305 23.5158 129.89 23.585 129.544 23.585ZM129.406 19.366C129.06 19.366 128.783 19.5043 128.645 19.7118C128.437 19.9193 128.299 20.1959 128.299 20.6109H130.512C130.512 20.1959 130.443 19.9193 130.236 19.7118C129.959 19.5043 129.682 19.366 129.406 19.366ZM135.077 18.6052C135.285 18.6052 135.423 18.6052 135.561 18.6743L135.492 19.6426C135.354 19.5735 135.215 19.5735 135.008 19.5735C134.593 19.5735 134.247 19.7118 133.97 19.9884C133.694 20.2651 133.556 20.6109 133.556 21.0259V23.5158H132.518V18.6743H133.348L133.486 19.5043H133.556C133.694 19.2276 133.901 18.951 134.178 18.8126C134.524 18.6743 134.8 18.6052 135.077 18.6052ZM139.573 23.5158L139.365 22.8242H139.296C139.089 23.1008 138.812 23.3083 138.604 23.4467C138.397 23.585 138.051 23.585 137.705 23.585C137.221 23.585 136.875 23.4467 136.599 23.17C136.322 22.8933 136.184 22.5475 136.184 22.0634C136.184 21.5792 136.391 21.1642 136.737 20.9567C137.083 20.7492 137.705 20.5418 138.466 20.5418H139.296V20.2651C139.296 19.9884 139.227 19.7118 139.089 19.5735C138.95 19.4351 138.743 19.366 138.397 19.366C138.12 19.366 137.913 19.4351 137.705 19.5043C137.498 19.5735 137.29 19.6426 137.014 19.7809L136.668 19.0201C136.945 18.8818 137.221 18.7435 137.567 18.6743C137.913 18.6052 138.19 18.536 138.466 18.536C139.089 18.536 139.573 18.6743 139.849 18.951C140.195 19.2276 140.334 19.6426 140.334 20.1959V23.5158H139.573ZM137.982 22.8242C138.328 22.8242 138.674 22.6858 138.881 22.4784C139.089 22.2709 139.227 21.9942 139.227 21.5792V21.1642H138.604C138.12 21.1642 137.775 21.2334 137.567 21.4409C137.36 21.5792 137.221 21.7867 137.221 22.1325C137.221 22.34 137.29 22.5475 137.429 22.6167C137.567 22.755 137.775 22.8242 137.982 22.8242ZM142.754 23.5158H141.717V16.6686H142.754V23.5158ZM149.394 17.9135C148.772 17.9135 148.287 18.121 147.942 18.536C147.596 18.951 147.458 19.5735 147.458 20.3343C147.458 21.0951 147.596 21.7175 147.942 22.1325C148.287 22.5475 148.772 22.755 149.394 22.755C149.671 22.755 149.947 22.755 150.155 22.6858C150.432 22.6167 150.708 22.5475 150.916 22.4784V23.3775C150.432 23.585 149.809 23.6541 149.187 23.6541C148.218 23.6541 147.527 23.3775 147.043 22.8242C146.558 22.2709 146.282 21.4409 146.282 20.4034C146.282 19.7118 146.42 19.1585 146.628 18.6743C146.904 18.1902 147.25 17.7752 147.665 17.4985C148.08 17.2219 148.702 17.0835 149.325 17.0835C149.947 17.0835 150.57 17.2219 151.123 17.4985L150.777 18.3977C150.57 18.3285 150.362 18.1902 150.086 18.121C149.947 17.9827 149.671 17.9135 149.394 17.9135ZM154.72 18.6052C154.927 18.6052 155.066 18.6052 155.204 18.6743L155.135 19.6426C154.996 19.5735 154.858 19.5735 154.651 19.5735C154.236 19.5735 153.89 19.7118 153.613 19.9884C153.336 20.2651 153.198 20.6109 153.198 21.0259V23.5158H152.161V18.6743H152.991L153.129 19.5043H153.198C153.336 19.2276 153.544 18.951 153.821 18.8126C154.166 18.6743 154.443 18.6052 154.72 18.6052ZM158.247 23.585C157.486 23.585 156.933 23.3775 156.449 22.8933C156.034 22.4784 155.826 21.8559 155.826 21.0951C155.826 20.3343 156.034 19.7118 156.449 19.2276C156.864 18.7435 157.417 18.536 158.109 18.536C158.731 18.536 159.285 18.7435 159.63 19.0893C159.976 19.4351 160.184 19.9884 160.184 20.6801V21.2334H156.933C156.933 21.7175 157.071 22.0634 157.348 22.34C157.556 22.6167 157.901 22.6858 158.385 22.6858C158.662 22.6858 158.939 22.6858 159.215 22.6167C159.492 22.5475 159.7 22.4784 160.045 22.34V23.17C159.769 23.3083 159.561 23.3775 159.285 23.4467C159.008 23.5158 158.593 23.585 158.247 23.585ZM158.04 19.366C157.694 19.366 157.417 19.5043 157.279 19.7118C157.071 19.9193 156.933 20.1959 156.933 20.6109H159.146C159.146 20.1959 159.077 19.9193 158.87 19.7118C158.662 19.5043 158.385 19.366 158.04 19.366ZM162.95 23.585C162.328 23.585 161.844 23.3775 161.498 22.8933C161.152 22.4784 161.014 21.8559 161.014 21.0259C161.014 20.1959 161.152 19.6426 161.498 19.1585C161.844 18.7435 162.328 18.4668 162.95 18.4668C163.573 18.4668 164.057 18.6743 164.403 19.1585H164.472C164.403 18.8126 164.403 18.536 164.403 18.3285V16.5302H165.44V23.3775H164.61L164.403 22.755H164.334C164.057 23.3775 163.573 23.585 162.95 23.585ZM163.227 22.755C163.642 22.755 163.988 22.6167 164.126 22.4092C164.334 22.2017 164.403 21.7867 164.403 21.2334V21.0951C164.403 20.4726 164.334 20.0576 164.126 19.7809C163.919 19.5043 163.642 19.366 163.158 19.366C162.812 19.366 162.535 19.5043 162.328 19.7809C162.12 20.0576 162.051 20.4726 162.051 21.0259C162.051 21.5792 162.12 21.9942 162.328 22.2709C162.535 22.6167 162.881 22.755 163.227 22.755ZM166.893 17.3602C166.893 17.1527 166.962 17.0144 167.031 16.9452C167.1 16.876 167.308 16.8069 167.446 16.8069C167.653 16.8069 167.792 16.876 167.861 16.9452C167.93 17.0144 167.999 17.1527 167.999 17.3602C167.999 17.5677 167.93 17.706 167.861 17.7752C167.792 17.8443 167.584 17.9135 167.446 17.9135C167.239 17.9135 167.1 17.8443 167.031 17.7752C166.893 17.706 166.893 17.5677 166.893 17.3602ZM167.93 23.5158H166.893V18.6743H167.93V23.5158ZM171.25 22.755C171.527 22.755 171.734 22.6858 172.011 22.6167V23.3775C171.873 23.4467 171.734 23.4467 171.596 23.5158C171.388 23.5158 171.25 23.585 171.043 23.585C170.074 23.585 169.59 23.1008 169.59 22.0634V19.4351H168.898V18.951L169.59 18.6052L169.936 17.5677H170.558V18.6743H171.942V19.4351H170.558V22.0634C170.558 22.34 170.628 22.4784 170.766 22.6167C170.904 22.755 171.043 22.755 171.25 22.755ZM180.449 17.0835V21.2334C180.449 21.7175 180.38 22.1325 180.172 22.4784C179.965 22.8242 179.688 23.1008 179.273 23.3083C178.858 23.5158 178.443 23.585 177.89 23.585C177.06 23.585 176.507 23.3775 176.022 22.9625C175.538 22.5475 175.331 21.9942 175.331 21.2334V17.0835H176.368V21.1642C176.368 21.7175 176.507 22.0634 176.714 22.34C176.922 22.6167 177.336 22.6858 177.821 22.6858C178.789 22.6858 179.273 22.1325 179.273 21.0951V17.0144H180.449V17.0835ZM186.259 23.5158H185.221V20.5418C185.221 20.1959 185.152 19.9193 185.014 19.7118C184.875 19.5043 184.599 19.4351 184.322 19.4351C183.907 19.4351 183.561 19.5735 183.354 19.8501C183.146 20.1268 183.077 20.5418 183.077 21.1642V23.5158H182.04V18.6743H182.87L183.008 19.2968H183.077C183.215 19.0893 183.423 18.8818 183.7 18.7435C183.976 18.6052 184.253 18.536 184.599 18.536C185.775 18.536 186.328 19.1585 186.328 20.3343V23.5158H186.259ZM187.642 17.3602C187.642 17.1527 187.711 17.0144 187.78 16.9452C187.849 16.876 188.057 16.8069 188.195 16.8069C188.403 16.8069 188.541 16.876 188.61 16.9452C188.679 17.0144 188.749 17.1527 188.749 17.3602C188.749 17.5677 188.679 17.706 188.61 17.7752C188.541 17.8443 188.403 17.9135 188.195 17.9135C187.988 17.9135 187.849 17.8443 187.78 17.7752C187.642 17.706 187.642 17.5677 187.642 17.3602ZM188.679 23.5158H187.642V18.6743H188.679V23.5158ZM194.489 21.0951C194.489 21.8559 194.282 22.4784 193.867 22.9625C193.452 23.4467 192.898 23.6541 192.138 23.6541C191.653 23.6541 191.308 23.585 190.962 23.3775C190.616 23.17 190.339 22.8933 190.132 22.4784C189.924 22.0634 189.855 21.6484 189.855 21.1642C189.855 20.4034 190.063 19.7809 190.478 19.2968C190.893 18.8126 191.446 18.6052 192.207 18.6052C192.898 18.6052 193.452 18.8126 193.867 19.2968C194.282 19.7118 194.489 20.3343 194.489 21.0951ZM190.962 21.0951C190.962 22.2017 191.377 22.755 192.207 22.755C193.037 22.755 193.452 22.2017 193.452 21.0951C193.452 19.9884 193.037 19.4351 192.207 19.4351C191.792 19.4351 191.446 19.5735 191.239 19.8501C191.031 20.1268 190.962 20.5418 190.962 21.0951ZM199.953 23.5158H198.916V20.5418C198.916 20.1959 198.847 19.9193 198.708 19.7118C198.57 19.5043 198.293 19.4351 198.017 19.4351C197.602 19.4351 197.256 19.5735 197.048 19.8501C196.841 20.1268 196.772 20.5418 196.772 21.1642V23.5158H195.734V18.6743H196.564L196.702 19.2968H196.772C196.91 19.0893 197.117 18.8818 197.394 18.7435C197.671 18.6052 197.947 18.536 198.293 18.536C199.469 18.536 200.022 19.1585 200.022 20.3343V23.5158H199.953ZM93.0944 38.5936C92.4028 38.5936 91.8495 38.8703 91.4345 39.3544C91.0195 39.8386 90.812 40.5302 90.812 41.4294C90.812 42.3285 91.0195 43.0201 91.3653 43.5043C91.7803 43.9884 92.3336 44.1959 93.0253 44.1959C93.3711 44.1959 93.6477 44.1959 93.9244 44.1268C94.201 44.0576 94.5469 43.9884 94.8235 43.9193V44.9567C94.2702 45.1642 93.5786 45.3026 92.8178 45.3026C91.7111 45.3026 90.8812 44.9567 90.3279 44.3343C89.7745 43.7118 89.4287 42.7435 89.4287 41.4985C89.4287 40.7377 89.567 40.0461 89.8437 39.4928C90.1203 38.9394 90.5353 38.4553 91.0886 38.1786C91.642 37.902 92.2644 37.6945 92.9561 37.6945C93.7169 37.6945 94.4085 37.8328 95.031 38.1786L94.616 39.2161C94.3394 39.0778 94.1319 39.0086 93.8552 38.9394C93.7169 38.6628 93.4402 38.5936 93.0944 38.5936ZM101.117 45.0951L100.357 43.0201H97.5209L96.8293 45.0951H95.5843L98.3509 37.6253H99.665L102.432 45.0951H101.117ZM100.08 41.9827L99.3884 39.9769C99.3192 39.8386 99.25 39.6311 99.1809 39.3544C99.1117 39.0778 99.0425 38.8703 98.9734 38.732C98.9042 39.1469 98.7659 39.6311 98.5584 40.1152L97.8668 42.0518L100.08 41.9827ZM106.581 45.0951L104.437 38.9394C104.507 39.8386 104.507 40.7377 104.507 41.4985V45.0951H103.4V37.6945H105.129L107.204 43.5735L109.348 37.6945H111.077V45.0951H109.901V41.4294C109.901 41.0835 109.901 40.5994 109.901 39.9769C109.901 39.3544 109.97 39.0086 109.97 38.8703H109.901L107.688 45.0259L106.581 45.0951ZM119.515 41.3602C119.515 42.536 119.239 43.5043 118.616 44.1959C117.994 44.8876 117.164 45.2334 116.057 45.2334C114.95 45.2334 114.051 44.8876 113.498 44.2651C112.875 43.5735 112.599 42.6743 112.599 41.4294C112.599 40.1844 112.875 39.2853 113.498 38.5936C114.12 37.9711 114.95 37.6253 116.057 37.6253C117.164 37.6253 117.994 37.9711 118.616 38.5936C119.239 39.2161 119.515 40.1844 119.515 41.3602ZM113.913 41.3602C113.913 42.2593 114.12 42.951 114.466 43.4351C114.812 43.9193 115.365 44.1268 116.126 44.1268C116.818 44.1268 117.371 43.9193 117.786 43.4351C118.132 42.951 118.339 42.2593 118.339 41.3602C118.339 40.4611 118.132 39.7694 117.786 39.2853C117.44 38.8011 116.887 38.5936 116.195 38.5936C115.504 38.5936 114.95 38.8011 114.535 39.2853C114.051 39.7694 113.913 40.4611 113.913 41.3602ZM126.847 45.0951H125.602V38.732H122.351V45.0951H121.106V37.6945H126.777L126.847 45.0951ZM135.354 41.3602C135.354 42.536 135.077 43.5043 134.455 44.1959C133.832 44.8876 133.002 45.2334 131.896 45.2334C130.789 45.2334 129.89 44.8876 129.336 44.2651C128.714 43.5735 128.437 42.6743 128.437 41.4294C128.437 40.1844 128.714 39.2853 129.336 38.5936C129.959 37.9711 130.789 37.6253 131.896 37.6253C133.002 37.6253 133.832 37.9711 134.455 38.5936C135.077 39.2161 135.354 40.1152 135.354 41.3602ZM129.682 41.3602C129.682 42.2593 129.89 42.951 130.236 43.4351C130.581 43.9193 131.135 44.1268 131.896 44.1268C132.587 44.1268 133.141 43.9193 133.556 43.4351C133.901 42.951 134.109 42.2593 134.109 41.3602C134.109 40.4611 133.901 39.7694 133.556 39.2853C133.21 38.8011 132.656 38.5936 131.965 38.5936C131.273 38.5936 130.72 38.8011 130.305 39.2853C129.89 39.7694 129.682 40.4611 129.682 41.3602ZM140.126 45.0951L137.982 38.9394H137.913C137.982 39.8386 137.982 40.7377 137.982 41.4985V45.0951H136.945V37.6945H138.674L140.749 43.5735L142.893 37.6945H144.622V45.0951H143.446V41.4294C143.446 41.0835 143.446 40.5994 143.446 39.9769C143.446 39.3544 143.515 39.0086 143.515 38.8703H143.446L141.233 45.0259L140.126 45.0951ZM148.91 45.0951H145.936V44.4034L146.835 44.1268V38.732L145.936 38.4553V37.7637H148.91V38.4553L148.011 38.732V44.1268L148.91 44.4034V45.0951ZM155.688 45.0951H154.443V42.121C153.959 42.2593 153.613 42.3977 153.198 42.4668C152.852 42.536 152.507 42.6052 152.092 42.6052C151.4 42.6052 150.847 42.4668 150.501 42.121C150.155 41.7752 149.947 41.291 149.947 40.7377V37.6945H151.192V40.3919C151.192 40.8069 151.262 41.0835 151.469 41.2219C151.677 41.4294 151.953 41.4985 152.437 41.4985C152.783 41.4985 153.06 41.4985 153.406 41.4294C153.682 41.3602 154.097 41.291 154.512 41.1527V37.6945H155.757L155.688 45.0951ZM159.7 42.8126V41.7752H162.328V42.8126H159.7ZM172.218 45.0951H170.973V41.7752H167.584V45.0951H166.339V37.6945H167.584V40.7377H170.973V37.6945H172.218V45.0951ZM179.342 42.8126C179.342 43.5043 179.066 44.0576 178.581 44.4726C178.097 44.8184 177.406 45.0259 176.437 45.0259H174.155V37.6253H175.4V40.6686H176.437C177.406 40.6686 178.097 40.876 178.581 41.2219C179.066 41.6369 179.342 42.121 179.342 42.8126ZM175.4 44.0576H176.437C176.991 44.0576 177.406 43.9884 177.682 43.7809C177.959 43.5735 178.097 43.2968 178.097 42.8818C178.097 42.4668 177.959 42.1902 177.682 41.9827C177.406 41.7752 176.922 41.706 176.299 41.706H175.4V44.0576ZM190.201 41.3602C190.201 42.536 189.924 43.5043 189.371 44.1959C188.818 44.8876 187.988 45.1642 186.95 45.1642C185.913 45.1642 185.152 44.8876 184.599 44.2651C184.045 43.6426 183.7 42.8126 183.63 41.706H182.04V45.0259H180.795V37.6253H182.04V40.6686H183.7C183.769 39.6311 184.115 38.8703 184.668 38.317C185.221 37.7637 185.982 37.487 186.95 37.487C187.988 37.487 188.818 37.8328 189.371 38.4553C189.924 39.0778 190.201 40.1844 190.201 41.3602ZM184.875 41.3602C184.875 42.2593 185.014 42.951 185.36 43.4351C185.705 43.9193 186.19 44.1268 186.881 44.1268C187.573 44.1268 188.057 43.9193 188.403 43.4351C188.749 42.951 188.887 42.2593 188.887 41.3602C188.887 40.4611 188.749 39.7694 188.403 39.2853C188.057 38.8011 187.573 38.5936 186.881 38.5936C186.19 38.5936 185.705 38.8011 185.36 39.2853C185.014 39.7694 184.875 40.4611 184.875 41.3602ZM194.489 37.6945H195.596V41.4985C195.596 41.9135 195.596 42.3285 195.596 42.7435C195.596 43.1585 195.527 43.4351 195.527 43.5735H195.596L199.4 37.6945H200.783V45.0951H199.677V41.291C199.677 40.7377 199.677 39.9769 199.746 39.1469H199.677L195.873 45.0951H194.42L194.489 37.6945ZM197.671 37.072C196.979 37.072 196.426 36.9337 196.08 36.657C195.734 36.3804 195.596 35.9654 195.527 35.3429H196.633C196.633 35.6196 196.702 35.7579 196.772 35.8962C196.841 36.0345 196.979 36.1037 197.117 36.1729C197.256 36.242 197.463 36.242 197.74 36.242C198.086 36.242 198.293 36.1729 198.501 36.0345C198.639 35.8962 198.777 35.6196 198.847 35.2737H199.953C199.884 35.8271 199.677 36.3112 199.331 36.5187C198.916 36.9337 198.362 37.072 197.671 37.072ZM209.29 41.3602C209.29 42.536 209.014 43.5043 208.391 44.1959C207.769 44.8876 206.939 45.2334 205.832 45.2334C204.726 45.2334 203.826 44.8876 203.273 44.2651C202.651 43.5735 202.374 42.6743 202.374 41.4294C202.374 40.1844 202.651 39.2853 203.273 38.5936C203.896 37.9711 204.726 37.6253 205.832 37.6253C206.939 37.6253 207.769 37.9711 208.391 38.5936C209.014 39.2161 209.29 40.1152 209.29 41.3602ZM203.619 41.3602C203.619 42.2593 203.826 42.951 204.172 43.4351C204.518 43.9193 205.071 44.1268 205.832 44.1268C206.524 44.1268 207.077 43.9193 207.492 43.4351C207.838 42.951 208.045 42.2593 208.045 41.3602C208.045 40.4611 207.838 39.7694 207.492 39.2853C207.146 38.8011 206.593 38.5936 205.901 38.5936C205.141 38.5936 204.656 38.8011 204.241 39.2853C203.826 39.7694 203.619 40.4611 203.619 41.3602ZM215.792 39.9077C215.792 40.6686 215.515 41.291 215.031 41.706C214.547 42.121 213.786 42.3285 212.887 42.3285H212.126V45.0951H210.881V37.6945H213.025C213.924 37.6945 214.616 37.902 215.1 38.2478C215.584 38.5936 215.792 39.1469 215.792 39.9077ZM212.057 41.291H212.679C213.302 41.291 213.786 41.1527 214.063 40.9452C214.339 40.7377 214.478 40.3919 214.478 39.9077C214.478 39.4928 214.339 39.1469 214.063 38.9394C213.786 38.732 213.371 38.5936 212.818 38.5936H211.988V41.291H212.057ZM222.916 45.0951H221.463L218.42 41.3602V45.0951H217.175V37.6945H218.42V41.291L221.394 37.6945H222.708L219.734 41.291L222.916 45.0951ZM74.4892 57.6138V56.6455H74.3509C73.7976 56.6455 73.3826 56.5763 72.9676 56.3688C72.5526 56.1614 72.276 55.8847 72.0685 55.5389C71.861 55.1931 71.7227 54.7089 71.7227 54.2939C71.7227 53.8098 71.7918 53.4639 71.9993 53.049C72.2068 52.7031 72.4835 52.4265 72.8985 52.219C73.3134 52.0115 73.7284 51.9423 74.2126 51.9423H74.4892V51.1815H75.4575V51.9423H75.7342C76.2183 51.9423 76.7025 52.0115 77.1175 52.219C77.5325 52.4265 77.8091 52.7031 78.0166 53.049C78.2241 53.3948 78.2933 53.8098 78.2933 54.2939C78.2933 54.7781 78.1549 55.1931 77.9474 55.608C77.7399 56.023 77.3941 56.2997 77.0483 56.438C76.6333 56.6455 76.2183 56.7147 75.665 56.7147H75.5267V57.683H74.4892V57.6138ZM74.4892 52.634H74.2817C73.7976 52.634 73.3826 52.7723 73.1059 53.049C72.8293 53.3256 72.691 53.6714 72.691 54.1556C72.691 54.6397 72.8293 55.0547 73.1059 55.3314C73.3826 55.608 73.7976 55.7464 74.3509 55.7464H74.4201L74.4892 52.634ZM75.4575 55.8155H75.5267C76.08 55.8155 76.495 55.6772 76.7716 55.4005C77.0483 55.1239 77.1866 54.7089 77.1866 54.2248C77.1866 53.7406 77.0483 53.3948 76.7716 53.1181C76.495 52.8415 76.1492 52.7031 75.665 52.7031H75.4575V55.8155ZM81.544 57.6138C80.7832 57.6138 80.2299 57.4063 79.7457 56.9222C79.3307 56.5072 79.1232 55.8847 79.1232 55.1239C79.1232 54.3631 79.3307 53.7406 79.7457 53.2565C80.1607 52.7723 80.714 52.5648 81.4057 52.5648C82.0281 52.5648 82.5814 52.7723 82.9273 53.1181C83.2731 53.4639 83.4806 54.0173 83.4806 54.7089V55.3314H80.2299C80.2299 55.8155 80.3682 56.1614 80.6448 56.438C80.8523 56.7147 81.1982 56.7838 81.6823 56.7838C81.959 56.7838 82.2356 56.7838 82.5123 56.7147C82.7889 56.6455 82.9964 56.5763 83.3423 56.438V57.268C83.0656 57.4063 82.8581 57.4755 82.5814 57.5446C82.3048 57.6138 81.8898 57.6138 81.544 57.6138ZM81.3365 53.3948C80.9907 53.3948 80.714 53.5331 80.5757 53.7406C80.3682 53.9481 80.2299 54.2248 80.2299 54.6397H82.4431C82.4431 54.2248 82.374 53.9481 82.1665 53.7406C81.959 53.4639 81.6823 53.3948 81.3365 53.3948ZM89.2904 59.2737H88.3221V57.5446H85.0022V59.2737H84.0339V56.7838H84.4489C84.7947 56.2997 85.0714 55.6772 85.2789 54.9856C85.4863 54.2939 85.6247 53.5331 85.6247 52.7031H88.5987V56.7838H89.2904V59.2737ZM87.5613 56.7147V53.4639H86.5238C86.4546 54.0864 86.3855 54.6397 86.178 55.2622C85.9705 55.8155 85.763 56.3688 85.5555 56.7147H87.5613ZM92.2644 57.6138C91.5036 57.6138 90.9503 57.4063 90.4662 56.9222C90.0512 56.5072 89.8437 55.8847 89.8437 55.1239C89.8437 54.3631 90.0512 53.7406 90.4662 53.2565C90.8812 52.7723 91.4345 52.5648 92.1261 52.5648C92.7486 52.5648 93.3019 52.7723 93.6477 53.1181C93.9935 53.4639 94.201 54.0173 94.201 54.7089V55.3314H90.9503C90.9503 55.8155 91.0887 56.1614 91.3653 56.438C91.5728 56.7147 91.9186 56.7838 92.4028 56.7838C92.6794 56.7838 92.9561 56.7838 93.2327 56.7147C93.5094 56.6455 93.7169 56.5763 94.0627 56.438V57.268C93.7861 57.4063 93.5786 57.4755 93.3019 57.5446C93.0252 57.6138 92.6103 57.6138 92.2644 57.6138ZM92.1261 53.3948C91.7803 53.3948 91.5036 53.5331 91.3653 53.7406C91.1578 53.9481 91.0195 54.2248 91.0195 54.6397H93.2327C93.2327 54.2248 93.1636 53.9481 92.9561 53.7406C92.6794 53.4639 92.4028 53.3948 92.1261 53.3948ZM97.7976 57.6138C97.1751 57.6138 96.691 57.4063 96.3451 56.9222H96.276C96.3451 57.3371 96.3451 57.6138 96.3451 57.683V59.6887H95.3077V52.7031H96.1376C96.1376 52.7723 96.2068 52.9798 96.276 53.3256H96.3451C96.691 52.8415 97.1751 52.5648 97.7976 52.5648C98.4201 52.5648 98.9042 52.7723 99.1809 53.2565C99.5267 53.6714 99.665 54.2939 99.665 55.1239C99.665 55.9539 99.5267 56.5072 99.1809 56.9913C98.9042 57.4063 98.4201 57.6138 97.7976 57.6138ZM97.5901 53.3948C97.1751 53.3948 96.8985 53.5331 96.691 53.7406C96.4835 53.9481 96.4143 54.3631 96.4143 54.9164V55.0547C96.4143 55.6772 96.4835 56.0922 96.691 56.3688C96.8985 56.6455 97.1751 56.7838 97.5901 56.7838C97.9359 56.7838 98.2126 56.6455 98.4201 56.3688C98.6276 56.0922 98.6967 55.6772 98.6967 55.1239C98.6967 54.5706 98.6276 54.1556 98.4201 53.8789C98.2126 53.5331 97.9359 53.3948 97.5901 53.3948ZM104.022 57.5446L103.815 56.853H103.746C103.538 57.1296 103.262 57.3371 103.054 57.4755C102.847 57.6138 102.501 57.6138 102.155 57.6138C101.671 57.6138 101.325 57.4755 101.048 57.1988C100.772 56.9222 100.633 56.5763 100.633 56.0922C100.633 55.608 100.841 55.1931 101.187 54.9856C101.532 54.7781 102.155 54.5706 102.916 54.5706H103.746V54.2939C103.746 54.0173 103.677 53.7406 103.538 53.6023C103.4 53.4639 103.192 53.3948 102.847 53.3948C102.57 53.3948 102.362 53.4639 102.155 53.5331C101.947 53.6023 101.74 53.6714 101.463 53.8098L101.117 53.049C101.394 52.9106 101.671 52.7723 102.017 52.7031C102.362 52.634 102.639 52.5648 102.916 52.5648C103.538 52.5648 104.022 52.7031 104.299 52.9798C104.645 53.2565 104.783 53.6714 104.783 54.2248V57.4755H104.022V57.5446ZM102.432 56.853C102.777 56.853 103.123 56.7147 103.331 56.5072C103.538 56.2997 103.677 56.023 103.677 55.608V55.1931H103.054C102.57 55.1931 102.224 55.2622 102.017 55.4697C101.809 55.608 101.671 55.8155 101.671 56.1613C101.671 56.3688 101.74 56.5763 101.878 56.6455C102.017 56.7838 102.224 56.853 102.432 56.853ZM110.178 57.5446H109.141V53.4639H107.826C107.757 54.5014 107.619 55.3314 107.481 55.8847C107.342 56.438 107.135 56.9222 106.927 57.1988C106.72 57.4755 106.443 57.6138 106.028 57.6138C105.821 57.6138 105.613 57.6138 105.475 57.5446V56.7147C105.613 56.7838 105.682 56.7838 105.821 56.7838C106.097 56.7838 106.374 56.438 106.512 55.7464C106.651 55.0547 106.789 54.0173 106.927 52.634H110.178V57.5446ZM112.668 54.6397H113.913C115.296 54.6397 115.919 55.1239 115.919 56.023C115.919 56.5072 115.78 56.9222 115.434 57.1297C115.089 57.4063 114.604 57.5446 113.913 57.5446H111.7V52.7031H112.737L112.668 54.6397ZM114.881 56.023C114.881 55.7464 114.812 55.608 114.604 55.5389C114.397 55.4697 114.19 55.4005 113.844 55.4005H112.668V56.7838H113.844C114.19 56.7838 114.466 56.7147 114.604 56.5763C114.812 56.438 114.881 56.2997 114.881 56.023ZM118.063 52.634V54.5706H120.345V52.634H121.383V57.4755H120.345V55.4005H118.063V57.4755H117.025V52.634H118.063ZM125.947 57.5446L125.74 56.853H125.671C125.463 57.1296 125.187 57.3371 124.979 57.4755C124.772 57.6138 124.426 57.6138 124.08 57.6138C123.596 57.6138 123.25 57.4755 122.973 57.1988C122.697 56.9222 122.558 56.5763 122.558 56.0922C122.558 55.608 122.766 55.1931 123.112 54.9856C123.458 54.7781 124.08 54.5706 124.841 54.5706H125.671V54.2939C125.671 54.0173 125.602 53.7406 125.463 53.6023C125.325 53.4639 125.117 53.3948 124.772 53.3948C124.495 53.3948 124.287 53.4639 124.08 53.5331C123.873 53.6023 123.665 53.6714 123.388 53.8098L123.043 53.049C123.319 52.9106 123.596 52.7723 123.942 52.7031C124.287 52.634 124.564 52.5648 124.841 52.5648C125.463 52.5648 125.947 52.7031 126.224 52.9798C126.57 53.2565 126.708 53.6714 126.708 54.2248V57.4755H125.947V57.5446ZM124.357 56.853C124.702 56.853 125.048 56.7147 125.256 56.5072C125.463 56.2997 125.602 56.023 125.602 55.608V55.1931H124.979C124.495 55.1931 124.149 55.2622 123.942 55.4697C123.734 55.608 123.596 55.8155 123.596 56.1613C123.596 56.3688 123.665 56.5763 123.803 56.6455C123.942 56.7838 124.149 56.853 124.357 56.853ZM135.423 57.5446H134.178L132.172 54.6397L131.55 55.1239V57.5446H130.512V51.1124H131.55V54.1556C131.826 53.8098 132.103 53.4639 132.38 53.1181L134.109 51.0432H135.285C134.178 52.3573 133.348 53.3256 132.864 53.8789L135.423 57.5446ZM138.674 57.6138C138.051 57.6138 137.567 57.4063 137.221 56.9222H137.152C137.221 57.3371 137.221 57.6138 137.221 57.683V59.6887H136.184V52.7031H137.014C137.014 52.7723 137.083 52.9798 137.152 53.3256H137.221C137.567 52.8415 138.051 52.5648 138.674 52.5648C139.296 52.5648 139.78 52.7723 140.057 53.2565C140.403 53.6714 140.541 54.2939 140.541 55.1239C140.541 55.9539 140.403 56.5072 140.057 56.9913C139.711 57.4063 139.227 57.6138 138.674 57.6138ZM138.397 53.3948C137.982 53.3948 137.705 53.5331 137.498 53.7406C137.29 53.9481 137.221 54.3631 137.221 54.9164V55.0547C137.221 55.6772 137.29 56.0922 137.498 56.3688C137.705 56.6455 137.982 56.7838 138.397 56.7838C138.743 56.7838 139.019 56.6455 139.227 56.3688C139.434 56.0922 139.504 55.6772 139.504 55.1239C139.504 54.5706 139.434 54.1556 139.227 53.8789C139.019 53.5331 138.743 53.3948 138.397 53.3948ZM143.93 57.6138C143.169 57.6138 142.616 57.4063 142.132 56.9222C141.717 56.5072 141.509 55.8847 141.509 55.1239C141.509 54.3631 141.717 53.7406 142.132 53.2565C142.547 52.7723 143.1 52.5648 143.792 52.5648C144.414 52.5648 144.968 52.7723 145.313 53.1181C145.659 53.4639 145.867 54.0173 145.867 54.7089V55.3314H142.616C142.616 55.8155 142.754 56.1614 143.031 56.438C143.239 56.7147 143.584 56.7838 144.068 56.7838C144.345 56.7838 144.622 56.7838 144.898 56.7147C145.175 56.6455 145.383 56.5763 145.728 56.438V57.268C145.452 57.4063 145.244 57.4755 144.968 57.5446C144.553 57.6138 144.207 57.6138 143.93 57.6138ZM143.723 53.3256C143.377 53.3256 143.1 53.4639 142.962 53.6714C142.754 53.8789 142.616 54.1556 142.616 54.5706H144.829C144.829 54.1556 144.76 53.8789 144.553 53.6714C144.276 53.4639 144.068 53.3256 143.723 53.3256ZM151.607 59.2046H150.639V57.4755H147.319V59.2046H146.351V56.7147H146.766C147.112 56.2305 147.388 55.608 147.596 54.9164C147.803 54.2248 147.942 53.4639 147.942 52.634H150.916V56.7147H151.607V59.2046ZM149.878 56.7147V53.4639H148.841C148.772 54.0864 148.702 54.6397 148.495 55.2622C148.287 55.8155 148.08 56.3688 147.873 56.7147H149.878ZM153.544 52.634V55.1239C153.544 55.4005 153.544 55.8155 153.475 56.3688L155.896 52.634H157.141V57.4755H156.172V55.0547C156.172 54.9164 156.172 54.7089 156.172 54.4322C156.172 54.1556 156.172 53.8789 156.241 53.7406L153.821 57.4755H152.576V52.634H153.544ZM162.259 52.634V53.4639H160.668V57.5446H159.63V53.4639H158.04V52.634H162.259ZM167.515 55.0547C167.515 55.8155 167.308 56.438 166.893 56.9222C166.478 57.4063 165.924 57.6138 165.164 57.6138C164.679 57.6138 164.334 57.5446 163.988 57.3371C163.642 57.1297 163.365 56.853 163.158 56.438C162.95 56.023 162.881 55.608 162.881 55.1239C162.881 54.3631 163.089 53.7406 163.504 53.2565C163.919 52.7723 164.472 52.5648 165.233 52.5648C165.924 52.5648 166.478 52.7723 166.893 53.2565C167.308 53.6714 167.515 54.2939 167.515 55.0547ZM163.988 55.0547C163.988 56.1614 164.403 56.7147 165.233 56.7147C166.063 56.7147 166.478 56.1614 166.478 55.0547C166.478 53.9481 166.063 53.3948 165.233 53.3948C164.818 53.3948 164.472 53.5331 164.264 53.8098C164.057 54.1556 163.988 54.5706 163.988 55.0547ZM172.91 53.8789C172.91 54.4322 172.564 54.7781 171.873 54.9164V54.9856C172.218 55.0547 172.564 55.1239 172.702 55.3314C172.841 55.5389 172.979 55.7464 172.979 56.0922C172.979 56.5763 172.772 56.9222 172.426 57.1297C172.08 57.4063 171.596 57.4755 170.904 57.4755H168.553V52.634H170.835C172.287 52.634 172.91 53.049 172.91 53.8789ZM171.873 54.0173C171.873 53.8098 171.803 53.6714 171.665 53.6023C171.527 53.5331 171.319 53.4639 170.973 53.4639H169.728V54.6397H170.835C171.181 54.6397 171.458 54.5706 171.596 54.5014C171.803 54.3631 171.873 54.2248 171.873 54.0173ZM172.011 56.023C172.011 55.8155 171.942 55.608 171.734 55.5389C171.527 55.4697 171.25 55.4005 170.904 55.4005H169.728V56.7838H170.973C171.665 56.7838 172.011 56.5072 172.011 56.023ZM177.129 57.5446L176.922 56.853H176.852C176.645 57.1296 176.368 57.3371 176.161 57.4755C175.953 57.6138 175.607 57.6138 175.262 57.6138C174.777 57.6138 174.432 57.4755 174.155 57.1988C173.878 56.9222 173.74 56.5763 173.74 56.0922C173.74 55.608 173.947 55.1931 174.293 54.9856C174.639 54.7089 175.262 54.5706 176.022 54.5706H176.852V54.2939C176.852 54.0173 176.783 53.7406 176.645 53.6023C176.507 53.4639 176.299 53.3948 175.953 53.3948C175.677 53.3948 175.469 53.4639 175.262 53.5331C175.054 53.6023 174.847 53.6714 174.57 53.8098L174.224 53.049C174.501 52.9106 174.777 52.7723 175.123 52.7031C175.469 52.634 175.746 52.5648 176.022 52.5648C176.645 52.5648 177.129 52.7031 177.406 52.9798C177.751 53.2565 177.89 53.6714 177.89 54.2248V57.4755H177.129V57.5446ZM175.607 56.7838C175.953 56.7838 176.299 56.6455 176.507 56.438C176.714 56.2305 176.852 55.9539 176.852 55.5389V55.1239H176.23C175.746 55.1239 175.4 55.1931 175.192 55.4005C174.985 55.5389 174.847 55.7464 174.847 56.0922C174.847 56.2997 174.916 56.5072 175.054 56.5763C175.192 56.7838 175.331 56.7838 175.607 56.7838ZM186.674 57.5446H185.429L183.423 54.6397L182.8 55.1239V57.5446H181.763V51.1124H182.8V54.1556C183.077 53.8098 183.354 53.4639 183.63 53.1181L185.36 51.0432H186.535C185.429 52.3573 184.599 53.3256 184.115 53.8789L186.674 57.5446ZM191.723 55.0547C191.723 55.8155 191.515 56.438 191.1 56.9222C190.685 57.3371 190.132 57.6138 189.371 57.6138C188.887 57.6138 188.541 57.5446 188.195 57.3371C187.849 57.1297 187.573 56.853 187.365 56.438C187.158 56.023 187.089 55.608 187.089 55.1239C187.089 54.3631 187.296 53.7406 187.711 53.2565C188.126 52.7723 188.679 52.5648 189.44 52.5648C190.132 52.5648 190.685 52.7723 191.1 53.2565C191.515 53.6714 191.723 54.2939 191.723 55.0547ZM188.195 55.0547C188.195 56.1614 188.61 56.7147 189.44 56.7147C190.27 56.7147 190.685 56.1614 190.685 55.0547C190.685 53.9481 190.27 53.3948 189.44 53.3948C189.025 53.3948 188.679 53.5331 188.472 53.8098C188.264 54.0864 188.195 54.5706 188.195 55.0547ZM197.187 55.0547C197.187 55.8155 196.979 56.438 196.564 56.9222C196.149 57.4063 195.596 57.6138 194.835 57.6138C194.351 57.6138 194.005 57.5446 193.659 57.3371C193.313 57.1297 193.037 56.853 192.829 56.438C192.622 56.023 192.553 55.608 192.553 55.1239C192.553 54.3631 192.76 53.7406 193.175 53.2565C193.59 52.7723 194.143 52.5648 194.904 52.5648C195.596 52.5648 196.149 52.7723 196.564 53.2565C196.979 53.6714 197.187 54.2939 197.187 55.0547ZM193.659 55.0547C193.659 56.1614 194.074 56.7147 194.904 56.7147C195.734 56.7147 196.149 56.1614 196.149 55.0547C196.149 53.9481 195.734 53.3948 194.904 53.3948C194.489 53.3948 194.143 53.5331 193.936 53.8098C193.728 54.0864 193.659 54.5706 193.659 55.0547ZM202.651 52.634V57.4755H201.613V53.4639H199.469V57.4755H198.432V52.634H202.651ZM206.247 57.6138C205.486 57.6138 204.933 57.4063 204.449 56.9222C204.034 56.5072 203.826 55.8847 203.826 55.1239C203.826 54.3631 204.034 53.7406 204.449 53.2565C204.864 52.7723 205.417 52.5648 206.109 52.5648C206.731 52.5648 207.285 52.7723 207.63 53.1181C207.976 53.4639 208.184 54.0173 208.184 54.7089V55.3314H204.933C204.933 55.8155 205.071 56.1614 205.348 56.438C205.556 56.7147 205.901 56.7838 206.385 56.7838C206.662 56.7838 206.939 56.7838 207.215 56.7147C207.492 56.6455 207.7 56.5763 208.045 56.438V57.268C207.769 57.4063 207.561 57.4755 207.285 57.5446C207.008 57.6138 206.593 57.6138 206.247 57.6138ZM206.04 53.3256C205.694 53.3256 205.417 53.4639 205.279 53.6714C205.071 53.8789 204.933 54.1556 204.933 54.5706H207.146C207.146 54.1556 207.077 53.8789 206.87 53.6714C206.662 53.4639 206.385 53.3256 206.04 53.3256ZM211.78 57.6138C211.158 57.6138 210.674 57.4063 210.328 56.9222H210.259C210.328 57.3371 210.328 57.6138 210.328 57.683V59.6887H209.29V52.634H210.12C210.12 52.7031 210.19 52.9106 210.259 53.2565H210.328C210.674 52.7723 211.158 52.4956 211.78 52.4956C212.403 52.4956 212.887 52.7031 213.164 53.1873C213.509 53.6023 213.648 54.2248 213.648 55.0547C213.648 55.8847 213.509 56.438 213.164 56.9222C212.818 57.4063 212.334 57.6138 211.78 57.6138ZM211.504 53.3948C211.089 53.3948 210.812 53.5331 210.605 53.7406C210.397 53.9481 210.328 54.3631 210.328 54.9164V55.0547C210.328 55.6772 210.397 56.0922 210.605 56.3688C210.812 56.6455 211.089 56.7838 211.504 56.7838C211.849 56.7838 212.126 56.6455 212.334 56.3688C212.541 56.0922 212.61 55.6772 212.61 55.1239C212.61 54.5706 212.541 54.1556 212.334 53.8789C212.195 53.5331 211.849 53.3948 211.504 53.3948ZM217.936 57.5446L217.728 56.853H217.659C217.452 57.1296 217.175 57.3371 216.968 57.4755C216.76 57.6138 216.414 57.6138 216.068 57.6138C215.584 57.6138 215.238 57.4755 214.962 57.1988C214.685 56.9222 214.547 56.5763 214.547 56.0922C214.547 55.608 214.754 55.1931 215.1 54.9856C215.446 54.7089 216.068 54.5706 216.829 54.5706H217.659V54.2939C217.659 54.0173 217.59 53.7406 217.452 53.6023C217.313 53.4639 217.106 53.3948 216.76 53.3948C216.483 53.3948 216.276 53.4639 216.068 53.5331C215.861 53.6023 215.653 53.6714 215.377 53.8098L215.031 53.049C215.308 52.9106 215.584 52.7723 215.861 52.7031C216.207 52.634 216.483 52.5648 216.76 52.5648C217.383 52.5648 217.867 52.7031 218.143 52.9798C218.42 53.2565 218.628 53.6714 218.628 54.2248V57.4755H217.936V57.5446ZM216.414 56.7838C216.76 56.7838 217.106 56.6455 217.313 56.438C217.521 56.2305 217.659 55.9539 217.659 55.5389V55.1239H217.037C216.553 55.1239 216.207 55.1931 215.999 55.4005C215.792 55.5389 215.653 55.7464 215.653 56.0922C215.653 56.2997 215.723 56.5072 215.861 56.5763C215.93 56.7838 216.138 56.7838 216.414 56.7838ZM223.746 52.634V53.4639H222.155V57.5446H221.117V53.4639H219.527V52.634H223.746ZM225.682 52.634V55.1239C225.682 55.4005 225.682 55.8155 225.613 56.3688L228.034 52.634H229.279V57.4755H228.311V55.0547C228.311 54.9164 228.311 54.7089 228.311 54.4322C228.311 54.1556 228.311 53.8789 228.38 53.7406L225.959 57.4755H224.714V52.634H225.682ZM235.019 53.8789C235.019 54.4322 234.674 54.7781 233.982 54.9164V54.9856C234.328 55.0547 234.674 55.1239 234.812 55.3314C235.019 55.5389 235.089 55.7464 235.089 56.0922C235.089 56.5763 234.881 56.9222 234.535 57.1297C234.19 57.4063 233.705 57.4755 233.014 57.4755H230.662V52.634H232.945C234.397 52.634 235.019 53.049 235.019 53.8789ZM233.982 54.0173C233.982 53.8098 233.913 53.6714 233.775 53.6023C233.636 53.5331 233.429 53.4639 233.083 53.4639H231.838V54.6397H232.945C233.29 54.6397 233.567 54.5706 233.705 54.5014C233.844 54.3631 233.982 54.2248 233.982 54.0173ZM234.12 56.023C234.12 55.8155 234.051 55.608 233.844 55.5389C233.636 55.4697 233.36 55.4005 233.014 55.4005H231.838V56.7838H233.083C233.775 56.7147 234.12 56.5072 234.12 56.023ZM239.238 57.5446L239.031 56.853H238.962C238.754 57.1296 238.478 57.3371 238.27 57.4755C238.063 57.6138 237.717 57.6138 237.371 57.6138C236.887 57.6138 236.541 57.4755 236.264 57.1988C235.988 56.9222 235.849 56.5763 235.849 56.0922C235.849 55.608 236.057 55.1931 236.403 54.9856C236.749 54.7089 237.371 54.5706 238.132 54.5706H238.962V54.2939C238.962 54.0173 238.893 53.7406 238.754 53.6023C238.616 53.4639 238.409 53.3948 238.063 53.3948C237.786 53.3948 237.579 53.4639 237.371 53.5331C237.164 53.6023 236.956 53.6714 236.679 53.8098L236.334 53.049C236.61 52.9106 236.887 52.7723 237.164 52.7031C237.509 52.634 237.786 52.5648 238.063 52.5648C238.685 52.5648 239.169 52.7031 239.446 52.9798C239.723 53.2565 239.93 53.6714 239.93 54.2248V57.4755H239.238V57.5446ZM237.717 56.7838C238.063 56.7838 238.409 56.6455 238.616 56.438C238.824 56.2305 238.962 55.9539 238.962 55.5389V55.1239H238.339C237.855 55.1239 237.509 55.1931 237.302 55.4005C237.094 55.5389 236.956 55.7464 236.956 56.0922C236.956 56.2997 237.025 56.5072 237.164 56.5763C237.233 56.7838 237.44 56.7838 237.717 56.7838Z" fill="#005BBB"/>
<path opacity="0.2" d="M72.9688 29.8789H238.963V30.5705H72.9688V29.8789Z" fill="#005BBB"/>
</g>
<defs>
<clipPath id="clip0_2664_7293">
<rect width="240" height="62.2478" fill="white"/>
</clipPath>
</defs>
</svg>
